<?xml version="1.0" encoding="iso-8859-1"?>
<!-- Generator: Adobe Illustrator 19.0.0, SVG Export Plug-In . SVG Version: 6.00 Build 0)  -->
<svg version="1.1" id="Capa_1" xmlns="http://www.w3.org/2000/svg" xmlns:xlink="http://www.w3.org/1999/xlink" x="0px" y="0px"
	 viewBox="0 0 332.416 332.416" style="enable-background:new 0 0 332.416 332.416;" xml:space="preserve">
<g>
	<g>
		<path d="M321.344,112.256L169.28,1.152c-2.048-1.536-4.096-1.536-6.144,0L11.072,112.256c-2.048,1.536-2.56,5.12-1.024,7.168
			c1.536,2.048,5.12,2.56,7.168,1.024l14.336-10.24v217.088c0,3.072,2.048,5.12,5.12,5.12h259.072c3.072,0,5.12-2.048,5.12-5.12
			V110.208l14.336,10.24c1.024,0.512,2.048,1.024,3.072,1.024c1.536,0,3.072-0.512,4.096-2.048
			C323.904,117.376,323.392,113.792,321.344,112.256z M187.2,322.688h-42.496v-102.4H187.2V322.688z M290.624,322.688H197.44
			v-107.52c0-3.072-2.048-5.12-5.12-5.12h-52.736c-3.072,0-5.12,2.048-5.12,5.12v107.52H41.28V103.04l124.416-91.136l124.928,91.136
			V322.688z"/>
	</g>
</g>
<g>
	<g>
		<path d="M245.568,209.536c-11.776,0-20.992,7.68-21.504,16.896v0.512v53.76c0,3.072,2.56,5.12,5.12,5.12h32.768
			c3.072,0,5.12-2.048,5.12-5.12v-53.76v-0.512C266.56,216.704,257.344,209.536,245.568,209.536z M256.832,227.456v48.128h-22.528
			v-48.128c0-4.608,5.12-8.192,11.264-8.192s11.264,3.584,11.264,7.68V227.456z"/>
	</g>
</g>
<g>
	<g>
		<path d="M89.408,209.024c-11.776,0-20.992,7.68-21.504,16.896v0.512v53.76c0,3.072,2.048,5.12,5.12,5.12h32.768
			c3.072,0,5.12-2.048,5.12-5.12v-53.248v-0.512C109.888,216.192,100.672,209.024,89.408,209.024z M100.672,227.456v48.128H78.144
			v-48.128v-0.512c0-4.096,5.12-7.68,11.264-7.68s11.264,3.584,11.264,7.68V227.456z"/>
	</g>
</g>
<g>
	<g>
		<path d="M245.568,123.52c-11.776,0-20.992,5.632-21.504,13.824c0,0,0,0.512,0,1.024v39.424c0,2.56,2.56,5.12,5.12,5.12h32.768
			c3.072,0,5.12-2.048,5.12-5.12v-39.424c0-0.512,0-0.512,0-1.024C266.56,129.664,257.344,123.52,245.568,123.52z M256.832,138.368
			v33.792h-22.528v-33.792c0-1.536,4.096-4.608,11.264-4.608c7.168,0,11.264,3.072,11.264,4.096
			C256.832,137.856,256.832,137.856,256.832,138.368z"/>
	</g>
</g>
<g>
	<g>
		<path d="M166.208,123.52c-11.776,0-20.992,5.632-21.504,13.824c0,0,0,0.512,0,1.024v39.424c0,3.072,2.048,5.12,5.12,5.12h32.768
			c3.072,0,5.12-2.048,5.12-5.12v-39.424c0-0.512,0-0.512,0-1.024C186.688,129.664,177.984,123.52,166.208,123.52z M177.472,138.88
			v33.792h-22.528V138.88c0,0,0,0,0-0.512c0-1.024,4.096-4.096,11.264-4.096c7.168,0,11.264,3.072,11.264,4.096
			C177.472,138.368,177.472,138.368,177.472,138.88z"/>
	</g>
</g>
<g>
	<g>
		<path d="M89.408,123.52c-11.776,0-20.992,5.632-21.504,13.824c0,0,0,0.512,0,1.024v39.424c0,3.072,2.048,5.12,5.12,5.12h32.768
			c3.072,0,5.12-2.048,5.12-5.12v-39.424c0-0.512,0-0.512,0-1.024C109.888,129.664,100.672,123.52,89.408,123.52z M100.672,138.88
			v33.792H78.144V138.88c0,0,0,0,0-0.512c0-1.024,4.096-4.096,11.264-4.096s11.264,3.072,11.264,4.096
			C100.672,138.368,100.672,138.368,100.672,138.88z"/>
	</g>
</g>
<g>
	<g>
		<path d="M166.208,51.328c-19.456-0.512-35.328,11.776-35.84,27.648c0,0.512,0,0.512,0,1.024v18.944c0,3.072,2.048,5.12,5.12,5.12
			h61.44c3.072,0,5.12-2.048,5.12-5.12V80c0-0.512,0-0.512,0-1.024C201.536,63.104,185.664,51.328,166.208,51.328z M161.088,93.312
			h-20.48V80v-0.512c0-8.704,8.704-16.384,20.48-17.92V93.312z M191.808,80v13.312h-20.48V61.568
			c11.264,1.536,19.968,9.216,20.48,17.92V80z"/>
	</g>
</g>
<g>
</g>
<g>
</g>
<g>
</g>
<g>
</g>
<g>
</g>
<g>
</g>
<g>
</g>
<g>
</g>
<g>
</g>
<g>
</g>
<g>
</g>
<g>
</g>
<g>
</g>
<g>
</g>
<g>
</g>
</svg>
