<?xml version="1.0" encoding="iso-8859-1"?>
<!-- Generator: Adobe Illustrator 17.1.0, SVG Export Plug-In . SVG Version: 6.00 Build 0)  -->
<!DOCTYPE svg PUBLIC "-//W3C//DTD SVG 1.1//EN" "http://www.w3.org/Graphics/SVG/1.1/DTD/svg11.dtd">
<svg version="1.1" id="Capa_1" xmlns="http://www.w3.org/2000/svg" xmlns:xlink="http://www.w3.org/1999/xlink" x="0px" y="0px"
	 viewBox="0 0 487.866 487.866" style="enable-background:new 0 0 487.866 487.866;" xml:space="preserve">
<path d="M337.198,0H150.668c-28.489,0-51.667,23.178-51.667,51.667v384.532c0,28.489,23.178,51.667,51.667,51.667h186.529
	c28.489,0,51.667-23.178,51.667-51.667V51.667C388.865,23.178,365.687,0,337.198,0z M378.865,436.199
	c0,22.975-18.691,41.667-41.667,41.667H150.668c-22.975,0-41.667-18.692-41.667-41.667V51.667c0-22.975,18.691-41.667,41.667-41.667
	h186.529c22.976,0,41.667,18.692,41.667,41.667V436.199z M353.445,69.685H134.421c-2.761,0-5,2.239-5,5V413.17c0,2.761,2.239,5,5,5
	h219.023c2.762,0,5-2.239,5-5V74.685C358.445,71.923,356.206,69.685,353.445,69.685z M348.445,408.17H139.421V79.685h209.023V408.17
	z M243.933,423.468c-13.736,0-24.912,11.175-24.912,24.912c0,13.736,11.175,24.911,24.912,24.911s24.911-11.175,24.911-24.911
	C268.844,434.644,257.669,423.468,243.933,423.468z M243.933,463.291c-8.222,0-14.912-6.689-14.912-14.911
	s6.689-14.912,14.912-14.912c8.222,0,14.911,6.689,14.911,14.912S252.155,463.291,243.933,463.291z M196.266,40.6
	c0-7.536,6.131-13.667,13.667-13.667h5.75c2.761,0,5,2.239,5,5s-2.239,5-5,5h-5.75c-2.021,0-3.667,1.645-3.667,3.667
	c0,2.022,1.645,3.667,3.667,3.667h68c2.022,0,3.667-1.645,3.667-3.667c0-2.021-1.645-3.667-3.667-3.667H242.7c-2.761,0-5-2.239-5-5
	s2.239-5,5-5h35.233c7.536,0,13.667,6.131,13.667,13.667c0,7.536-6.131,13.667-13.667,13.667h-68
	C202.397,54.267,196.266,48.136,196.266,40.6z M150.066,191.787H235.4c2.761,0,5-2.239,5-5v-84.388c0-2.761-2.239-5-5-5h-85.333
	c-2.761,0-5,2.239-5,5v84.388C145.066,189.548,147.305,191.787,150.066,191.787z M155.066,107.399H230.4v74.388h-75.333V107.399z
	 M337.799,221.208H235.4c-2.761,0-5,2.239-5,5v55.39c0,2.761,2.239,5,5,5h102.399c2.762,0,5-2.239,5-5v-55.39
	C342.799,223.447,340.561,221.208,337.799,221.208z M332.799,276.598H240.4v-45.39h92.399V276.598z M247.466,102.389
	c0-2.761,2.238-5,5-5h85.333c2.762,0,5,2.239,5,5s-2.238,5-5,5h-85.333C249.704,107.389,247.466,105.15,247.466,102.389z
	 M247.466,127.995c0-2.761,2.238-5,5-5h85.333c2.762,0,5,2.239,5,5s-2.238,5-5,5h-85.333
	C249.704,132.995,247.466,130.756,247.466,127.995z M247.466,153.6c0-2.761,2.238-5,5-5h85.333c2.762,0,5,2.239,5,5s-2.238,5-5,5
	h-85.333C249.704,158.6,247.466,156.361,247.466,153.6z M247.466,179.206c0-2.761,2.238-5,5-5h85.333c2.762,0,5,2.239,5,5
	s-2.238,5-5,5h-85.333C249.704,184.206,247.466,181.967,247.466,179.206z M145.066,230.396c0-2.761,2.239-5,5-5h68.267
	c2.761,0,5,2.239,5,5s-2.239,5-5,5h-68.267C147.305,235.396,145.066,233.158,145.066,230.396z M145.066,255.992c0-2.761,2.239-5,5-5
	h68.267c2.761,0,5,2.239,5,5s-2.239,5-5,5h-68.267C147.305,260.992,145.066,258.753,145.066,255.992z M145.066,281.587
	c0-2.761,2.239-5,5-5h68.267c2.761,0,5,2.239,5,5s-2.239,5-5,5h-68.267C147.305,286.587,145.066,284.349,145.066,281.587z
	 M145.066,307.183c0-2.761,2.239-5,5-5h187.733c2.762,0,5,2.239,5,5s-2.238,5-5,5H150.066
	C147.305,312.183,145.066,309.944,145.066,307.183z M145.066,332.798c0-2.761,2.239-5,5-5h187.733c2.762,0,5,2.239,5,5s-2.238,5-5,5
	H150.066C147.305,337.798,145.066,335.56,145.066,332.798z M145.066,358.414c0-2.761,2.239-5,5-5h187.733c2.762,0,5,2.239,5,5
	s-2.238,5-5,5H150.066C147.305,363.414,145.066,361.175,145.066,358.414z M145.066,384.029c0-2.761,2.239-5,5-5h187.733
	c2.762,0,5,2.239,5,5s-2.238,5-5,5H150.066C147.305,389.029,145.066,386.791,145.066,384.029z M145.066,204.811c0-2.761,2.239-5,5-5
	h187.733c2.762,0,5,2.239,5,5s-2.238,5-5,5H150.066C147.305,209.811,145.066,207.572,145.066,204.811z"/>
<g>
</g>
<g>
</g>
<g>
</g>
<g>
</g>
<g>
</g>
<g>
</g>
<g>
</g>
<g>
</g>
<g>
</g>
<g>
</g>
<g>
</g>
<g>
</g>
<g>
</g>
<g>
</g>
<g>
</g>
</svg>
