<svg id="Flat" height="20" viewBox="0 0 512 512" width="20" xmlns="http://www.w3.org/2000/svg"><rect fill="#f7cc38" rx="32" x="24" y="96"/><path d="m456 144h-224v-64a32 32 0 0 0 -32-32h-144a32 32 0 0 0 -32 32v352a32 32 0 0 0 32 32h400a32 32 0 0 0 32-32v-256a32 32 0 0 0 -32-32z" fill="#fbe36a"/><path d="m136 48v288a8 8 0 0 1 -16 0v-288z" fill="#f79539"/><g fill="#f7cc38"><path d="m152 152h-48a8 8 0 0 1 0-16h48a8 8 0 0 1 0 16z"/><path d="m152 200h-48a8 8 0 0 1 0-16h48a8 8 0 0 1 0 16z"/><path d="m152 248h-48a8 8 0 0 1 0-16h48a8 8 0 0 1 0 16z"/><path d="m152 104h-48a8 8 0 0 1 0-16h48a8 8 0 0 1 0 16z"/><path d="m152 296h-48a8 8 0 0 1 0-16h48a8 8 0 0 1 0 16z"/><path d="m149.18 368.639-9.18-32.639h-24l-9.18 32.639a19.391 19.391 0 0 0 -2.82 10.028c0 11.782 10.745 21.333 24 21.333s24-9.551 24-21.333a19.391 19.391 0 0 0 -2.82-10.028z"/></g></svg>