<?xml version="1.0" encoding="iso-8859-1"?>
<svg id="Icons" viewBox="0 0 74 74" xmlns="http://www.w3.org/2000/svg"><path d="m70.274 37.017h-66.548a1.728 1.728 0 0 1 -1.726-1.726v-4.791a1.728 1.728 0 0 1 1.726-1.726h66.548a1.728 1.728 0 0 1 1.726 1.726v4.792a1.728 1.728 0 0 1 -1.726 1.725zm-66.274-2h66v-4.244h-66z"/><path d="m64.833 66.017h-55.666a2.753 2.753 0 0 1 -2.75-2.75v-27.25a1 1 0 0 1 1-1h59.166a1 1 0 0 1 1 1v27.25a2.753 2.753 0 0 1 -2.75 2.75zm-56.416-29v26.25a.751.751 0 0 0 .75.75h55.666a.751.751 0 0 0 .75-.75v-26.25z"/><path d="m34.47 43.02h-2.91a1 1 0 1 1 0-2h2.91a1 1 0 0 1 0 2z"/><path d="m55.63 60.02h-37.26a1 1 0 0 1 -1-1 3.959 3.959 0 0 0 -3.95-3.96 1 1 0 0 1 -1-1v-7.08a1 1 0 0 1 1-1 3.959 3.959 0 0 0 3.95-3.96 1 1 0 0 1 1-1h6.19a1 1 0 0 1 0 2h-5.274a5.97 5.97 0 0 1 -4.866 4.88v5.248a5.97 5.97 0 0 1 4.866 4.876h35.428a5.97 5.97 0 0 1 4.866-4.876v-5.248a5.97 5.97 0 0 1 -4.866-4.876h-3.274a1 1 0 0 1 0-2h4.19a1 1 0 0 1 1 1 3.959 3.959 0 0 0 3.95 3.96 1 1 0 0 1 1 1v7.08a1 1 0 0 1 -1 1 3.959 3.959 0 0 0 -3.95 3.96 1 1 0 0 1 -1 .996z"/><path d="m44.44 43.02h-2.97a1 1 0 0 1 0-2h2.97a1 1 0 0 1 0 2z"/><path d="m60.5 70.5h-7.688a1 1 0 0 1 -1-1v-4.483a1 1 0 0 1 1-1h7.688a1 1 0 0 1 1 1v4.483a1 1 0 0 1 -1 1zm-6.688-2h5.688v-2.483h-5.688z"/><path d="m21.188 70.5h-7.688a1 1 0 0 1 -1-1v-4.483a1 1 0 0 1 1-1h7.688a1 1 0 0 1 1 1v4.483a1 1 0 0 1 -1 1zm-6.688-2h5.688v-2.483h-5.688z"/><path d="m62.641 30.773h-21.341a1 1 0 0 1 -1-1v-4.468a6.619 6.619 0 0 1 6.612-6.612h10.117a6.619 6.619 0 0 1 6.612 6.612v4.468a1 1 0 0 1 -1 1zm-20.339-2h19.339v-3.468a4.617 4.617 0 0 0 -4.612-4.612h-10.115a4.617 4.617 0 0 0 -4.614 4.612z"/><path d="m51.971 16.905a6.7 6.7 0 1 1 6.7-6.7 6.711 6.711 0 0 1 -6.7 6.7zm0-11.406a4.7 4.7 0 1 0 4.7 4.7 4.709 4.709 0 0 0 -4.7-4.699z"/><path d="m57.029 30.773h-10.115a1 1 0 0 1 -1-1v-3.024a1 1 0 1 1 2 0v2.024h8.115v-2.024a1 1 0 0 1 2 0v3.024a1 1 0 0 1 -1 1z"/><path d="m32.7 30.773h-21.341a1 1 0 0 1 -1-1v-4.468a6.619 6.619 0 0 1 6.612-6.612h10.115a6.619 6.619 0 0 1 6.614 6.612v4.468a1 1 0 0 1 -1 1zm-20.339-2h19.339v-3.468a4.617 4.617 0 0 0 -4.612-4.612h-10.117a4.617 4.617 0 0 0 -4.612 4.612z"/><path d="m22.029 16.905a6.7 6.7 0 1 1 6.7-6.7 6.711 6.711 0 0 1 -6.7 6.7zm0-11.406a4.7 4.7 0 1 0 4.7 4.7 4.709 4.709 0 0 0 -4.7-4.699z"/><path d="m27.086 30.773h-10.115a1 1 0 0 1 -1-1v-3.024a1 1 0 0 1 2 0v2.024h8.115v-2.024a1 1 0 1 1 2 0v3.024a1 1 0 0 1 -1 1z"/></svg>