<svg id="Capa_1" enable-background="new 0 0 511.998 511.998" height="512" viewBox="0 0 511.998 511.998" width="512" xmlns="http://www.w3.org/2000/svg"><g><path d="m489.021 132.047h-8.093l-.008-8.108c-.013-12.657-10.32-22.954-22.977-22.954h-.064c-12.669 0-22.977 10.307-22.977 22.977v7.965h-16.152v-39.028c0-12.669-10.308-22.977-23.025-22.977-12.669 0-22.977 10.307-22.977 22.977v39.027h-24.63c-3.643-17.639-19.296-30.941-37.999-30.941h-7.79v-23.563c-1.319-14.035-8.996-21.711-23.03-23.03-10.706 0-19.728 7.342-22.297 17.256-11.898-4.898-27.81 2.922-31.073 15.542-11.892-4.909-27.797 2.918-31.059 15.533-19.497-8.009-32.925 11.945-31.792 29.204h-24.248c-3.057-28.169-23.117-52.129-50.894-59.678-3.993-1.087-8.117 1.273-9.204 5.27s1.273 8.118 5.271 9.205c23.696 6.441 40.247 28.113 40.247 52.703v31.3c0 29.803-24.813 54.63-54.62 54.63-30.123 0-54.63-24.507-54.63-54.63v-31.3c0-24.59 16.551-46.262 40.247-52.703 3.997-1.086 6.357-5.208 5.271-9.205s-5.211-6.357-9.204-5.27c-30.213 8.211-51.314 35.835-51.314 67.177v31.3c0 38.395 31.236 69.63 69.63 69.63 34.876 0 65.593-27.545 69.226-62.247h24.224v66.926c0 14.102 5.492 27.36 15.466 37.333l15.594 15.593v20.399h-8.029c-4.143 0-7.5 3.358-7.5 7.5v23.625h-8.03c-4.143 0-7.5 3.358-7.5 7.5v93.12c0 4.142 3.357 7.5 7.5 7.5h45.78c4.143 0 7.5-3.358 7.5-7.5s-3.357-7.5-7.5-7.5h-38.28v-78.12h155.84v78.12h-84.88c-4.143 0-7.5 3.358-7.5 7.5s3.357 7.5 7.5 7.5h92.38c4.143 0 7.5-3.358 7.5-7.5v-93.12c0-4.142-3.357-7.5-7.5-7.5h-8.03v-23.625c0-4.142-3.357-7.5-7.5-7.5h-8.029v-20.399c16.173-14.344 33.186-33.366 31.06-56.667 0-4.142-3.357-7.5-7.5-7.5s-7.5 3.358-7.5 7.5c.51 20.337-14.25 35.844-28.863 48.257-1.406 1.406-2.196 3.314-2.196 5.303v23.505h-93.723v-23.505c0-1.989-.79-3.897-2.196-5.303l-17.79-17.79c-7.141-7.141-11.073-16.632-11.073-26.727v-68.372c5.615 2.021 11.212 1.925 16.791-.289 4.096 15.839 25.583 22.43 37.83 11.228 2.787 2.55 6.202 4.422 9.981 5.36-10.739 9.891-17.482 24.058-17.482 39.773 0 4.142 3.357 7.5 7.5 7.5s7.5-3.358 7.5-7.5c0-21.554 17.54-39.09 39.1-39.09h15.53c4.143 0 7.5-3.358 7.5-7.5v-31.063c-.224-3.406-2.234-6.421-5.682-7.283l-48.892-12.215c-10.749-2.716-9.234-19.599 2.394-19.599h59.97c13.123 0 23.8 10.677 23.8 23.8v68.82c0 4.142 3.357 7.5 7.5 7.5s7.5-3.358 7.5-7.5v-30.502l140.118-.102c12.659-.009 22.959-10.316 22.959-22.977 0-12.669-10.308-22.976-22.977-22.976zm-170.631 217.377h-124.78v-16.063h124.78zm-47.12-272.002c0-10.379 16.061-10.382 16.061 0v23.563h-16.061zm-108.191 85.687h-23.828v-16.183h23.828zm23.031.002c-4.422 0-8.02-3.592-8.03-8.011v-.024c0-.007-.001-.013-.001-.019v-31.039c0-9.898 16.062-11.104 16.062 0v31.063c0 4.427-3.603 8.03-8.031 8.03zm31.062 15.531c-4.429 0-8.031-3.603-8.031-8.031v-62.125c0-4.428 3.603-8.031 8.031-8.031 4.409 0 7.997 3.572 8.028 7.973v62.184c0 .013.001.025.001.038-.021 4.41-3.614 7.992-8.029 7.992zm70.158-8.03c0 4.428-3.603 8.03-8.03 8.03s-8.03-3.603-8.03-8.03v-13.692l16.061 4.013v9.679zm-31.06-17.44v17.44c0 4.428-3.606 8.03-8.039 8.03-4.415 0-8.008-3.582-8.028-7.992 0-.013.001-.026.001-.039v-21.814c1.255.548 16.066 4.375 16.066 4.375zm-16.07-50.111v-10.109c0-10.381 16.069-10.383 16.069 0v8.034c-5.119-.297-11.596.122-16.069 2.075zm248.827 59.939-140.106.104v-16.177h31.328c4.143 0 7.5-3.358 7.5-7.5v-46.528c0-4.398 3.578-7.977 8.025-7.977 4.398 0 7.977 3.578 7.977 7.977v46.527c0 4.142 3.357 7.5 7.5 7.5h31.152c4.143 0 7.5-3.358 7.5-7.5v-15.465c0-4.398 3.578-7.977 7.977-7.977h.064c4.394 0 7.972 3.575 7.977 7.969l.015 15.601c.004 4.14 3.36 7.493 7.5 7.493h15.586c4.398 0 7.977 3.578 7.977 7.977-.001 4.395-3.576 7.973-7.972 7.976z"/><path d="m31.064 139.427v31.063c0 21.263 17.299 38.562 38.563 38.562 21.263 0 38.562-17.299 38.562-38.562v-31.063c0-21.264-17.299-38.563-38.562-38.563-21.264 0-38.563 17.299-38.563 38.563zm15 0c0-12.992 10.57-23.563 23.563-23.563s23.562 10.57 23.562 23.563v31.063c0 12.992-10.569 23.562-23.562 23.562s-23.563-10.57-23.563-23.562z"/><path d="m302.594 395.486c4.143 0 7.5-3.358 7.5-7.5s-3.357-7.5-7.5-7.5h-15.531c-4.143 0-7.5 3.358-7.5 7.5s3.357 7.5 7.5 7.5z"/></g></svg>