<?xml version="1.0" encoding="iso-8859-1"?>
<!-- Generator: Adobe Illustrator 17.1.0, SVG Export Plug-In . SVG Version: 6.00 Build 0)  -->
<!DOCTYPE svg PUBLIC "-//W3C//DTD SVG 1.1//EN" "http://www.w3.org/Graphics/SVG/1.1/DTD/svg11.dtd">
<svg version="1.1" id="Capa_1" xmlns="http://www.w3.org/2000/svg" xmlns:xlink="http://www.w3.org/1999/xlink" x="0px" y="0px"
	 viewBox="0 0 474.364 474.364" style="enable-background:new 0 0 474.364 474.364;" xml:space="preserve">
<path d="M426.125,265.939c-1.951-1.953-5.119-1.953-7.07,0l-38.569,38.569l-15.866-15.866
	c28.995-30.758,44.908-70.764,44.908-113.219c0-44.127-17.184-85.612-48.386-116.813c-31.201-31.202-72.687-48.386-116.813-48.386
	c-42.455,0-82.461,15.914-113.219,44.909l-15.866-15.866l30.732-30.732c1.953-1.952,1.953-5.118,0-7.07
	c-1.951-1.953-5.119-1.953-7.07,0l-34.268,34.268c-37.313,37.313-57.862,86.922-57.862,139.69
	c0,52.77,20.549,102.379,57.862,139.691c31.826,31.826,72.6,51.445,116.648,56.53v25.402h-17.168c-1.92,0-3.67,1.1-4.504,2.829
	l-9.721,20.164h-44.88c-2.762,0-5,2.238-5,5v44.324c0,2.762,2.238,5,5,5h206.882c2.762,0,5-2.238,5-5V425.04c0-2.762-2.238-5-5-5
	h-44.881l-9.721-20.164c-0.834-1.729-2.584-2.829-4.504-2.829h-17.168v-26.533c40.878-6.468,78.57-25.57,108.398-55.399
	l42.104-42.104C428.078,271.058,428.078,267.892,426.125,265.939z M131.302,69.468l105.955,105.955l-49.537,49.537
	c-27.952-28.829-48.757-61.045-58.798-91.169C119.724,106.194,120.616,83.625,131.302,69.468z M244.328,182.494L350.28,288.446
	c-7.595,5.739-17.608,8.654-29.867,8.654c-35.777,0-84.664-25.417-125.621-65.07L244.328,182.494z M357.354,281.378L251.398,175.423
	l49.537-49.537c27.951,28.828,48.756,61.045,58.797,91.168C368.933,244.651,368.041,267.222,357.354,281.378z M244.328,168.353
	L138.376,62.401c7.595-5.739,17.609-8.654,29.867-8.654c35.778,0,84.665,25.416,125.622,65.07L244.328,168.353z M119.436,136.954
	c10.519,31.556,32.181,65.16,61.214,95.077l-49.536,49.537c-48.935-52.152-55.014-130.125-18.228-188.689
	C111.845,105.778,114.003,120.655,119.436,136.954z M187.721,239.101c43.33,42.043,93.819,67.999,132.692,67.999
	c2.256,0,4.457-0.098,6.608-0.279c-24.525,15.501-52.971,23.802-82.694,23.802c-39.784,0-77.277-14.876-106.145-41.983
	L187.721,239.101z M375.764,258.054c1.057-12.919-1.098-27.826-6.544-44.162c-10.519-31.557-32.181-65.161-61.213-95.078
	l49.536-49.536c27.107,28.868,41.983,66.361,41.983,106.146C399.527,205.121,391.24,233.543,375.764,258.054z M350.473,62.208
	l-49.538,49.538c-43.33-42.043-93.82-67.999-132.693-67.999c-2.256,0-4.457,0.098-6.608,0.279
	c24.525-15.501,52.971-23.802,82.693-23.802C284.112,20.225,321.605,35.101,350.473,62.208z M56.775,175.423
	c0-48.427,18.233-94.05,51.446-129.037l15.817,15.817c-60.906,64.658-59.751,166.805,3.477,230.033
	c31.201,31.202,72.687,48.386,116.813,48.386c42.456,0,82.462-15.914,113.22-44.909l15.818,15.817
	c-34.987,33.213-80.61,51.447-129.037,51.447c-50.098,0-97.196-19.51-132.621-54.934C76.284,272.62,56.775,225.521,56.775,175.423z
	 M346.895,464.364h-15.854V430.04h15.854V464.364z M295.913,420.04h-3.123c-2.762,0-5,2.238-5,5s2.238,5,5,5h11.084h17.168v34.324
	H150.013V430.04h43.021h60.765c2.762,0,5-2.238,5-5s-2.238-5-5-5h-52.804l6.264-12.993h19.018c0.003,0,0.006,0.001,0.01,0.001
	s0.006-0.001,0.01-0.001h44.316c0.003,0,0.006,0.001,0.01,0.001s0.006-0.001,0.01-0.001h19.018L295.913,420.04z M265.622,397.047
	h-34.336v-24.504c4.323,0.28,8.671,0.435,13.043,0.435c7.165,0,14.268-0.392,21.293-1.14V397.047z"/>
<g>
</g>
<g>
</g>
<g>
</g>
<g>
</g>
<g>
</g>
<g>
</g>
<g>
</g>
<g>
</g>
<g>
</g>
<g>
</g>
<g>
</g>
<g>
</g>
<g>
</g>
<g>
</g>
<g>
</g>
</svg>
