<svg id="Capa_1" enable-background="new 0 0 512 512" viewBox="0 0 512 512" xmlns="http://www.w3.org/2000/svg"><g><path d="m224.115 319.833h176.229c4.143 0 7.5-3.358 7.5-7.5s-3.357-7.5-7.5-7.5h-50.164c-.003 0-.007 0-.007 0-6.049 0-10.964-4.704-11.445-10.531h158.231c-.484 5.888-5.432 10.531-11.443 10.531h-50.173c-4.143 0-7.5 3.358-7.5 7.5s3.357 7.5 7.5 7.5h50.173c14.603 0 26.482-11.88 26.482-26.482 0-7.583-6.043-13.766-13.563-14.025 1.057-2.678 1.644-5.591 1.644-8.64v-84.561c0-13.022-10.594-23.616-23.616-23.616h-53.363c.512-12.856-4.509-24.958-12.981-29.326-1.488-.767-7.402-4.143-7.402-5.726v-52.583c0-41.48-33.765-75.382-75.86-74.868-40.742.524-73.889 34.56-73.889 75.871v51.567c0 .19-.068.374-.136.454-.028.031-.056.063-.083.095-1.527 1.786-3.824 3.436-7.228 5.191-8.028 4.139-13.252 15.606-12.997 28.535.191 9.703 3.346 18.33 8.819 24.853-3.24 1.256-5.268 2.042-5.392 2.091-.047.019-.095.037-.142.057-13.77 5.667-28.59 21.877-28.59 44.075v70.143c.001 9.316 7.58 16.895 16.896 16.895zm111.494-131.735c-11.022 2.241-24.079-.598-33.175-9.116 9.151-3.632 8.397-10.832 8.398-14.188 10.983 3.739 23.135 3.879 33.986.105l.002 2.531c-7.036 5.472-9.211 12.381-9.211 20.668zm-7.883-35.463c-21.609-.37-35.924-16.916-35.924-35.395v-23.78c6.033 0 12.683-.488 13.684-.655 8.653-.664 16.766-5.016 22.364-11.799 9.619 11.63 21.49 12.454 36.027 12.454v23.358c-.001 19.572-16.064 36.161-36.151 35.817zm148.739 24.874c4.751 0 8.616 3.865 8.616 8.616v84.561c0 4.75-3.865 8.616-8.616 8.616h-117.239c-4.751 0-8.616-3.865-8.616-8.616 0-9.333 0-75.609 0-84.561 0-4.684 3.824-8.573 8.54-8.612.025 0 .051-.003.076-.003 7.044 0 112.851-.001 117.239-.001zm-224.069-30.993c5.188-2.676 8.923-5.463 11.693-8.705.026-.03.053-.06.078-.089 2.451-2.861 3.801-6.511 3.801-10.277v-51.568c0-33.325 26.828-60.877 59.877-60.877 33.02 0 59.872 26.695 59.872 59.874v52.583c0 9.064 7.449 14.892 15.528 19.058 2.409 1.242 5.256 8.043 4.824 15.994h-48.253c-.004-4.805-.003-3.567-.005-5.941 12.276-9.884 19.064-24.642 19.064-39.75v-25.917c0-6.859-5.579-12.439-12.439-12.439-9.298 0-5.913.148-15.27-.649-7.136-.605-13.581-6.246-15.324-13.411-.898-3.712-4.188-6.304-8.002-6.304s-7.104 2.592-8.001 6.3c-2.04 8.411-10.112 13.454-15.51 13.454-9.51.761-7.435.611-15.089.611-6.858 0-12.439 5.579-12.439 12.439v26.34c0 15.404 7.079 29.997 19.03 39.413v8.794c-.067.026-38.981 15.113-38.981 15.113-8.128-5.39-9.247-14.986-9.329-19.136-.155-7.903 2.784-13.832 4.875-14.91zm-30.176 86.279c0-16.287 11.477-26.951 19.233-30.177 1.967-.763 44.034-17.071 45.966-17.821 11.961 14.879 30.76 20.977 48.19 18.506v67.383c0 2.972.577 5.936 1.631 8.625-10.994.387-17.418 12.095-10.947 25.522h-62.978v-72.293c0-4.142-3.357-7.5-7.5-7.5s-7.5 3.358-7.5 7.5v19.92h-26.095zm0 34.665h26.095v37.373h-24.199c-1.045 0-1.896-.85-1.896-1.896z"/><path d="m413.536 235.906h9.433c4.143 0 7.5-3.358 7.5-7.5s-3.357-7.5-7.5-7.5h-9.433c-4.143 0-7.5 3.358-7.5 7.5s3.358 7.5 7.5 7.5z"/><path d="m16.896 511.999h261.403c14.602 0 26.481-11.88 26.481-26.482 0-7.582-6.042-13.765-13.562-14.025 1.057-2.678 1.644-5.591 1.644-8.64v-84.561c0-13.022-10.594-23.616-23.616-23.616h-53.365c.513-12.856-4.509-24.958-12.981-29.326-3.405-1.756-5.702-3.405-7.19-5.145-.138-.163-.213-.37-.213-.582v-15.978c0-4.142-3.357-7.5-7.5-7.5s-7.5 3.358-7.5 7.5v15.978c0 3.74 1.326 7.376 3.775 10.286 2.831 3.31 6.566 6.097 11.754 8.772 2.408 1.242 5.256 8.043 4.824 15.994h-48.253c-.004-3.826-.003-2.606-.005-5.941 12.278-9.885 19.065-24.644 19.065-39.75v-25.918c0-6.86-5.582-12.439-12.439-12.439-13.261 0-20.808.284-26.862-6.829-1.764-2.073-3.079-4.545-3.732-7.231-.898-3.712-4.188-6.304-8.002-6.304-3.803 0-7.091 2.584-8.001 6.301-1.651 6.814-7.667 12.814-15.919 13.488-8.472.691-7.62.576-14.678.576-6.857 0-12.439 5.579-12.439 12.439v26.34c0 14.968 6.723 29.697 19.029 39.413v8.794c-3.34 1.295-23.067 8.943-38.981 15.112-8.127-5.391-9.248-14.987-9.33-19.138-.155-7.9 2.783-13.829 4.873-14.907 5.187-2.674 8.921-5.461 11.754-8.772.014-.015.032-.038.051-.06 2.432-2.854 3.77-6.489 3.77-10.239v-51.567c0-33.146 26.504-60.453 59.082-60.872 32.002-.39 60.666 24.603 60.666 60.867 0 4.142 3.357 7.5 7.5 7.5s7.5-3.358 7.5-7.5c0-44.676-35.54-76.373-75.859-75.866-40.742.524-73.889 34.56-73.889 75.871v51.567c0 .189-.067.372-.19.516-.014.015-.031.037-.05.058-1.529 1.777-3.82 3.419-7.207 5.166-8.028 4.139-13.251 15.606-12.997 28.534.191 9.703 3.346 18.33 8.82 24.854-3.238 1.255-5.264 2.041-5.389 2.089-.049.019-.098.038-.146.058-13.772 5.669-28.592 21.879-28.592 44.077v70.143c0 9.316 7.579 16.895 16.896 16.895zm272.845-25.531c-.484 5.888-5.432 10.531-11.442 10.531h-135.346c-.031 0-.061-.004-.092-.004-6.043-.047-10.877-4.754-11.351-10.527zm-161.35-108.176v1.972c-2.348.477-4.734.718-7.139.718-10.178 0-19.276-3.502-26.036-9.833 5.09-2.023 8.396-5.934 8.396-11.43v-2.758c10.773 3.671 23.034 3.914 33.987.105l.002 2.532c-5.819 4.496-9.21 11.39-9.21 18.694zm140.855-8.616c4.751 0 8.616 3.865 8.616 8.616v84.561c0 4.75-3.865 8.616-8.616 8.616h-117.24c-4.75 0-8.615-3.865-8.615-8.616 0-9.333 0-75.609 0-84.561 0-4.798 3.955-8.616 8.615-8.616zm-184.663-60.269v-23.78c14.908 0 26.559-.953 36.049-12.452 9.611 11.621 21.37 12.452 36.025 12.452v23.358c0 28.644-32.193 45.825-56.397 29.766-10.186-6.759-15.677-18.1-15.677-29.344zm-69.583 115.554c0-16.285 11.476-26.95 19.232-30.177 4.123-1.598 41.923-16.252 45.968-17.82 9.773 12.156 24.408 19.018 41.052 19.018 2.397 0 4.779-.177 7.139-.512v67.383c0 2.952.574 5.93 1.63 8.625-11.593.408-17.106 12.747-10.946 25.522h-62.978v-72.293c0-4.142-3.357-7.5-7.5-7.5s-7.5 3.358-7.5 7.5v19.92h-26.097zm0 34.665h26.096v37.373h-24.2c-1.045 0-1.896-.851-1.896-1.896z"/><path d="m206.317 428.072h9.432c4.143 0 7.5-3.358 7.5-7.5s-3.357-7.5-7.5-7.5h-9.432c-4.143 0-7.5 3.358-7.5 7.5s3.358 7.5 7.5 7.5z"/><path d="m76.082 177.509c4.143 0 7.5-3.358 7.5-7.5v-86.428h147.309c4.143 0 7.5-3.358 7.5-7.5s-3.357-7.5-7.5-7.5h-154.809c-4.143 0-7.5 3.358-7.5 7.5v93.929c0 4.142 3.357 7.499 7.5 7.499z"/><path d="m435.92 335.316c-4.143 0-7.5 3.358-7.5 7.5v85.603h-107.371c-4.143 0-7.5 3.358-7.5 7.5s3.357 7.5 7.5 7.5h114.871c4.143 0 7.5-3.358 7.5-7.5v-93.103c0-4.142-3.358-7.5-7.5-7.5z"/></g></svg>