<svg id="Capa_1" enable-background="new 0 0 512 512" height="512" viewBox="0 0 512 512" width="512" xmlns="http://www.w3.org/2000/svg"><g><path d="m169.495 275.71h26.797c4.143 0 7.5-3.358 7.5-7.5v-26.797c0-4.142-3.357-7.5-7.5-7.5h-26.797c-4.143 0-7.5 3.358-7.5 7.5v26.797c0 4.142 3.358 7.5 7.5 7.5zm7.5-26.797h11.797v11.797h-11.797z"/><path d="m317.022 275.71h26.797c4.143 0 7.5-3.358 7.5-7.5v-26.797c0-4.142-3.357-7.5-7.5-7.5h-26.797c-4.143 0-7.5 3.358-7.5 7.5v26.797c0 4.142 3.358 7.5 7.5 7.5zm7.5-26.797h11.797v11.797h-11.797z"/><path d="m243.259 275.71h26.797c4.143 0 7.5-3.358 7.5-7.5v-26.797c0-4.142-3.357-7.5-7.5-7.5h-26.797c-4.143 0-7.5 3.358-7.5 7.5v26.797c0 4.142 3.357 7.5 7.5 7.5zm7.5-26.797h11.797v11.797h-11.797z"/><path d="m169.495 208.611h26.797c4.143 0 7.5-3.358 7.5-7.5v-26.797c0-4.142-3.357-7.5-7.5-7.5h-26.797c-4.143 0-7.5 3.358-7.5 7.5v26.797c0 4.142 3.358 7.5 7.5 7.5zm7.5-26.797h11.797v11.797h-11.797z"/><path d="m317.022 208.611h26.797c4.143 0 7.5-3.358 7.5-7.5v-26.797c0-4.142-3.357-7.5-7.5-7.5h-26.797c-4.143 0-7.5 3.358-7.5 7.5v26.797c0 4.142 3.358 7.5 7.5 7.5zm7.5-26.797h11.797v11.797h-11.797z"/><path d="m243.259 208.611h26.797c4.143 0 7.5-3.358 7.5-7.5v-26.797c0-4.142-3.357-7.5-7.5-7.5h-26.797c-4.143 0-7.5 3.358-7.5 7.5v26.797c0 4.142 3.357 7.5 7.5 7.5zm7.5-26.797h11.797v11.797h-11.797z"/><path d="m504.5 466.431h-8.994v-185.966c0-4.142-3.357-7.5-7.5-7.5h-16.408v-79.12c0-4.142-3.357-7.5-7.5-7.5h-35.81v-28.134c0-4.142-3.357-7.5-7.5-7.5s-7.5 3.358-7.5 7.5v28.134h-28.311v-53.167c0-4.142-3.357-7.5-7.5-7.5h-26.314v-33.604c0-4.142-3.357-7.5-7.5-7.5h-20.22v-33.603c0-4.142-3.357-7.5-7.5-7.5h-51.942v-32.199c0-4.142-3.357-7.5-7.5-7.5s-7.5 3.358-7.5 7.5v32.199h-51.942c-4.143 0-7.5 3.358-7.5 7.5v33.603h-20.22c-4.143 0-7.5 3.358-7.5 7.5v33.604h-26.314c-4.143 0-7.5 3.358-7.5 7.5v87.883h-11.995v-64.602-37.817c0-4.142-3.357-7.5-7.5-7.5s-7.5 3.358-7.5 7.5v31.768c-6.112 1.629-15.7 5.005-25.288 11.694-13.443 9.379-29.276 27.085-31.446 58.957h-19.3c-4.143 0-7.5 3.358-7.5 7.5v183.183c0 4.142 3.357 7.5 7.5 7.5s7.5-3.358 7.5-7.5v-175.683h95.528v203.573h-103.028c-4.143 0-7.5 3.358-7.5 7.5v19.297h-9.996c-4.143 0-7.5 3.358-7.5 7.5s3.357 7.5 7.5 7.5h120.524v19.297c0 4.142 3.357 7.5 7.5 7.5h241.953c4.143 0 7.5-3.358 7.5-7.5v-19.297h119.523c4.143 0 7.5-3.358 7.5-7.5s-3.357-7.5-7.5-7.5zm-445.17-245.37c2.992-37.319 28.165-50.593 41.7-55.06v55.06zm397.268-19.716v71.62h-71.62v-71.62zm-252.039-142.874h103.885v26.103h-103.885zm-61.535 82.207h53.193c4.143 0 7.5-3.358 7.5-7.5s-3.357-7.5-7.5-7.5h-19.379v-26.104h159.324v26.104h-104.185c-4.143 0-7.5 3.358-7.5 7.5s3.357 7.5 7.5 7.5h138.001v139.787c0 4.142 3.357 7.5 7.5 7.5h103.028v151.669h-95.528v-123.596c0-4.142-3.357-7.5-7.5-7.5s-7.5 3.358-7.5 7.5v150.393h-18.658v-19.297c0-4.142-3.357-7.5-7.5-7.5h-20.376v-130.296c0-4.142-3.357-7.5-7.5-7.5h-118.572c-4.143 0-7.5 3.358-7.5 7.5v130.295h-20.377c-4.143 0-7.5 3.358-7.5 7.5v19.297h-18.971zm165.419 298.956h-44.286v-122.796h44.286zm-59.286 0h-44.285v-122.796h44.285zm87.162 15v11.797h-159.324v-11.797zm-303.823 0h95.528v11.797h-95.528zm337.482 38.594h-226.954v-11.797h226.953v11.797zm15-38.594h95.528v11.797h-95.528z"/><path d="m65.565 275.71h28.937c4.143 0 7.5-3.358 7.5-7.5s-3.357-7.5-7.5-7.5h-28.937c-4.143 0-7.5 3.358-7.5 7.5s3.358 7.5 7.5 7.5z"/><path d="m65.565 311.054h28.937c4.143 0 7.5-3.358 7.5-7.5s-3.357-7.5-7.5-7.5h-28.937c-4.143 0-7.5 3.358-7.5 7.5s3.358 7.5 7.5 7.5z"/><path d="m65.565 346.398h28.937c4.143 0 7.5-3.358 7.5-7.5s-3.357-7.5-7.5-7.5h-28.937c-4.143 0-7.5 3.358-7.5 7.5s3.358 7.5 7.5 7.5z"/><path d="m65.565 381.743h28.937c4.143 0 7.5-3.358 7.5-7.5s-3.357-7.5-7.5-7.5h-28.937c-4.143 0-7.5 3.358-7.5 7.5s3.358 7.5 7.5 7.5z"/><path d="m65.565 417.087h28.937c4.143 0 7.5-3.358 7.5-7.5s-3.357-7.5-7.5-7.5h-28.937c-4.143 0-7.5 3.358-7.5 7.5s3.358 7.5 7.5 7.5z"/><path d="m416.939 336.378h28.937c4.143 0 7.5-3.358 7.5-7.5s-3.357-7.5-7.5-7.5h-28.937c-4.143 0-7.5 3.358-7.5 7.5s3.358 7.5 7.5 7.5z"/><path d="m416.939 371.723h28.937c4.143 0 7.5-3.358 7.5-7.5s-3.357-7.5-7.5-7.5h-28.937c-4.143 0-7.5 3.358-7.5 7.5s3.358 7.5 7.5 7.5z"/><path d="m416.939 407.067h28.937c4.143 0 7.5-3.358 7.5-7.5s-3.357-7.5-7.5-7.5h-28.937c-4.143 0-7.5 3.358-7.5 7.5s3.358 7.5 7.5 7.5z"/><path d="m420.788 240.668c4.13 0 7.477-3.348 7.477-7.477s-3.348-7.477-7.477-7.477-7.477 3.348-7.477 7.477 3.347 7.477 7.477 7.477z"/></g></svg>