<svg id="Capa_1" enable-background="new 0 0 512 512" viewBox="0 0 512 512" xmlns="http://www.w3.org/2000/svg"><g id="_x31_4_laptop_2_"><path d="m421.723 312.643c4.143 0 7.5-3.358 7.5-7.5s-3.357-7.5-7.5-7.5h-16.919v-143.394c0-9.649-7.851-17.5-17.5-17.5h-26.335c-9.65 0-17.5 7.851-17.5 17.5v143.394h-17.422v-122.697c0-9.649-7.851-17.5-17.5-17.5h-26.336c-9.649 0-17.5 7.851-17.5 17.5v122.697h-17.422v-102.001c0-9.649-7.851-17.5-17.5-17.5h-26.336c-9.649 0-17.5 7.851-17.5 17.5v102.001h-17.422v-81.306c0-9.649-7.851-17.5-17.5-17.5h-26.336c-9.649 0-17.5 7.851-17.5 17.5v81.306h-16.918c-4.142 0-7.5 3.358-7.5 7.5s3.358 7.5 7.5 7.5zm-297.028-98.806h26.336c1.379 0 2.5 1.122 2.5 2.5v32.163h-31.336v-32.163c0-1.378 1.121-2.5 2.5-2.5zm236.274-62.088h26.335c1.379 0 2.5 1.122 2.5 2.5v62.947h-31.335v-62.947c0-1.378 1.121-2.5 2.5-2.5zm-2.5 80.447h31.335v65.447h-31.335zm-76.258-59.75h26.336c1.379 0 2.5 1.122 2.5 2.5v52.599h-31.336v-52.599c0-1.379 1.121-2.5 2.5-2.5zm-2.5 70.098h31.336v55.099h-31.336zm-76.258-49.402h26.336c1.379 0 2.5 1.122 2.5 2.5v42.251h-31.336v-42.251c0-1.379 1.121-2.5 2.5-2.5zm-2.5 59.751h31.336v44.751h-31.336zm-78.758 44.75v-34.143h31.336v34.143z"/><path d="m494.5 374.398c1.379 0 2.5 1.122 2.5 2.5v27.607c0 9.649-7.851 17.5-17.5 17.5h-74.328c-4.143 0-7.5 3.358-7.5 7.5s3.357 7.5 7.5 7.5h74.328c17.921 0 32.5-14.58 32.5-32.5v-27.607c0-9.649-7.851-17.5-17.5-17.5h-17.753c3.245-5.056 5.135-11.059 5.135-17.5v-80.163c0-4.142-3.357-7.5-7.5-7.5s-7.5 3.358-7.5 7.5v80.163c0 9.65-7.851 17.5-17.5 17.5h-386.765c-9.649 0-17.5-7.85-17.5-17.5v-176.153c0-4.142-3.357-7.5-7.5-7.5s-7.5 3.358-7.5 7.5v176.154c0 6.441 1.891 12.444 5.135 17.5h-17.752c-9.649 0-17.5 7.851-17.5 17.5v27.607c0 17.92 14.579 32.5 32.5 32.5h339.985c4.142 0 7.5-3.358 7.5-7.5s-3.358-7.5-7.5-7.5h-339.985c-9.649 0-17.5-7.851-17.5-17.5v-27.607c0-1.378 1.121-2.5 2.5-2.5h172.141v13.804c0 9.65 7.851 17.5 17.5 17.5h97.719c9.649 0 17.5-7.85 17.5-17.5v-13.804h172.14zm-187.141 13.804c0 1.379-1.121 2.5-2.5 2.5h-97.719c-1.379 0-2.5-1.121-2.5-2.5v-13.804h102.719z"/><path d="m37.617 140.559c4.143 0 7.5-3.358 7.5-7.5v-25.565c0-9.649 7.851-17.5 17.5-17.5h386.766c9.649 0 17.5 7.851 17.5 17.5v121.499c0 4.142 3.357 7.5 7.5 7.5s7.5-3.358 7.5-7.5v-121.499c0-17.92-14.579-32.5-32.5-32.5h-386.766c-17.921 0-32.5 14.58-32.5 32.5v25.565c0 4.142 3.358 7.5 7.5 7.5z"/></g></svg>