<svg id="Capa_1" enable-background="new 0 0 512 512" height="512" viewBox="0 0 512 512" width="512" xmlns="http://www.w3.org/2000/svg"><g><path d="m354.5 385h-6.904l-14.564-17.356c-1.409-1.712-3.575-2.734-5.792-2.736h-20.24v-10.794c35.619-15.982 62.445-48.164 71.054-87.114h11.946c20.953 0 38-17.047 38-38 0-13.194-6.762-24.834-17-31.65v-48.057c0-.162-.014-.321-.024-.481 18.494-17.755 30.024-42.711 30.024-70.312v-8c0-38.874-31.626-70.5-70.5-70.5-7.995 0-14.5 6.505-14.5 14.5 0 15.164-12.336 27.5-27.5 27.5h-90c-4.142 0-7.5 3.358-7.5 7.5s3.358 7.5 7.5 7.5h90c23.267 0 42.228-18.793 42.497-41.998 30.375.269 55.003 25.061 55.003 55.498v8c0 45.491-37.009 82.5-82.5 82.5h-160c-12.406 0-22.499 10.093-22.5 22.5v30.5c0 4.135-3.364 7.5-7.5 7.5h-7.5v-23c0-4.142-3.358-7.5-7.5-7.5h-16.5c-2.042 0-4.045.167-6 .478v-63.978c0-15.164 12.336-27.5 27.5-27.5h17c8.547 0 15.5-6.953 15.5-15.5 0-15.164 12.336-27.5 27.5-27.5 4.142 0 7.5-3.358 7.5-7.5s-3.358-7.5-7.5-7.5c-23.435 0-42.5 19.065-42.5 42.5 0 .276-.224.5-.5.5h-17c-23.435 0-42.5 19.065-42.5 42.5v68.57c0 .414.042.817.107 1.212-10.297 6.805-17.107 18.479-17.107 31.718 0 20.953 17.047 38 38 38h11.946c8.61 38.949 35.435 71.132 71.054 87.114v10.793h-20.245c-2.192 0-4.335 1.002-5.746 2.679l-14.612 17.414h-6.897c-48.248 0-87.5 39.252-87.5 87.5v12c0 15.164 12.336 27.5 27.5 27.5h262.5c4.142 0 7.5-3.358 7.5-7.5s-3.358-7.5-7.5-7.5h-41.832l88.924-74.324c12.324 13.001 19.908 30.538 19.908 49.824v12c0 6.893-5.607 12.5-12.5 12.5h-19.5c-4.142 0-7.5 3.358-7.5 7.5s3.358 7.5 7.5 7.5h19.5c15.164 0 27.5-12.336 27.5-27.5v-12c0-48.248-39.252-87.5-87.5-87.5zm-28.184-2.025 11.891 14.171c1.288 1.535 1.901 3.479 1.726 5.475-.174 1.996-1.116 3.804-2.65 5.091l-48.261 40.496c-3.169 2.658-7.908 2.243-10.566-.924l-11.891-14.172zm63.684-130.975h-9.579c.378-3.95.579-7.952.579-12v-3.5h9.5c4.142 0 7.5-3.358 7.5-7.5s-3.358-7.5-7.5-7.5h-9.5v-15.5h9c12.682 0 23 10.318 23 23s-10.318 23-23 23zm6-60.522c-1.955-.312-3.958-.478-6-.478h-16.5c-4.142 0-7.5 3.358-7.5 7.5v23h-7.5c-4.135 0-7.5-3.364-7.5-7.5v-38.286c16.475-1.259 31.817-6.631 45-15.088zm-274 60.522c-12.682 0-23-10.318-23-23s10.318-23 23-23h9v15.5h-9.5c-4.142 0-7.5 3.358-7.5 7.5s3.358 7.5 7.5 7.5h9.5v3.5c0 4.048.201 8.05.579 12zm24-12v-3.5h7.5c12.407 0 22.5-10.093 22.5-22.5v-30.5c0-4.136 3.365-7.5 7.5-7.5h152.5v38c0 12.407 10.093 22.5 22.5 22.5h7.5v3.5c0 60.654-49.346 110-110 110s-110-49.346-110-110zm110 125c12.511 0 24.594-1.856 36-5.292v32.48l-36.001 30.209-35.999-30.207v-32.482c11.406 3.436 23.489 5.292 36 5.292zm-82.212 32.145 11.891-14.172 59.751 50.137-11.891 14.172c-1.288 1.535-3.096 2.476-5.092 2.65-1.996.173-3.94-.438-5.475-1.726l-48.261-40.496c-3.167-2.657-3.582-7.397-.923-10.565zm-88.788 87.355v-12c0-19.286 7.584-36.823 19.908-49.824l88.924 74.324h-96.332c-6.893 0-12.5-5.607-12.5-12.5zm132.222 12.5-100.764-84.22c11.586-7.988 25.595-12.697 40.684-12.771-.607 7.061 2.099 14.301 7.929 19.192l48.261 40.496c4.089 3.432 9.148 5.266 14.424 5.266.664 0 1.331-.029 2-.087 5.987-.523 11.412-3.348 15.275-7.952l10.967-13.07 10.968 13.071c3.863 4.604 9.288 7.428 15.275 7.952.669.059 1.335.087 1.999.087 5.275 0 10.335-1.834 14.424-5.266l48.261-40.495c5.83-4.892 8.536-12.133 7.929-19.194 15.091.073 29.101 4.782 40.689 12.771l-100.764 84.22z"/><path d="m298.321 280.531c-2.667-3.169-7.398-3.577-10.567-.91-18.784 15.805-44.888 15.813-63.481.022-3.158-2.681-7.891-2.294-10.572.862-2.681 3.157-2.295 7.89.862 10.572 12.148 10.317 26.74 15.474 41.362 15.474 14.607 0 29.245-5.151 41.487-15.452 3.169-2.668 3.576-7.399.909-10.568z"/><path d="m313.5 251.5c4.142 0 7.5-3.358 7.5-7.5v-15c0-4.142-3.358-7.5-7.5-7.5s-7.5 3.358-7.5 7.5v15c0 4.142 3.358 7.5 7.5 7.5z"/><path d="m198.5 221.5c-4.142 0-7.5 3.358-7.5 7.5v15c0 4.142 3.358 7.5 7.5 7.5s7.5-3.358 7.5-7.5v-15c0-4.142-3.358-7.5-7.5-7.5z"/></g></svg>