<?xml version="1.0" encoding="UTF-8"?> <svg xmlns="http://www.w3.org/2000/svg" xmlns:xlink="http://www.w3.org/1999/xlink" width="48px" height="48px" viewBox="0 0 48 48" version="1.1"><!-- Generator: Sketch 63.1 (92452) - https://sketch.com --><title>Icon/Ad-Mapper/1</title><desc>Created with Sketch.</desc><g id="UI" stroke="none" stroke-width="1" fill="none" fill-rule="evenodd"><g id="Products-Ad-Mapper" transform="translate(-238.000000, -1606.000000)"><g id="Icon/What-can-you-gain/1" transform="translate(230.000000, 1598.000000)"><g id="quality" transform="translate(8.000000, 8.000000)"><path d="M39.469125,11.9438437 C39.7011372,11.9438437 39.9252519,12.0446593 40.0793225,12.2231031 L40.150233,12.3186867 L47.2714446,23.5626608 C47.3749982,23.730671 47.4149456,23.9139564 47.3948029,24.0912581 C47.3788796,24.2314199 47.3263265,24.3673313 47.2402318,24.4825371 L47.1694199,24.564802 L24.5753796,47.1592812 C24.4103578,47.3203022 24.206133,47.4000511 24.0008273,47.4000511 C23.8374591,47.4000511 23.6743015,47.3506827 23.5379365,47.2549855 L23.4411017,47.1745735 L0.833136256,24.5672788 C0.706321605,24.438977 0.629156609,24.2750775 0.606915568,24.1034548 C0.585225895,23.9360867 0.616037435,23.7613471 0.704223104,23.6050466 C0.895551343,23.2987807 7.77847916,12.4316563 7.85009607,12.3186111 C7.97443193,12.1222259 8.18016246,11.9871618 8.4128299,11.9525799 L8.53115625,11.9438437 L39.469125,11.9438437 Z M31.2759159,24.8065313 L16.7241823,24.8065313 L23.9999959,44.2897359 L31.2759159,24.8065313 Z M15.0029684,24.806625 L3.35249082,24.806625 L21.9468892,43.4008001 L15.0029684,24.806625 Z M44.6475906,24.806625 L32.9973129,24.806625 L26.0533781,43.4008375 L44.6475906,24.806625 Z M24.0000937,14.0939402 L17.174997,23.1940312 L30.8251905,23.1940312 L24.0000937,14.0939402 Z M8.52664825,14.264149 L2.87100192,23.1940312 L14.1077956,23.1940312 L8.52664825,14.264149 Z M39.4736435,14.264149 L33.89238,23.1940312 L45.1291736,23.1940312 L39.4736435,14.264149 Z M38.0143357,13.5564375 L25.6125938,13.5564375 L32.3771489,22.5758444 L38.0143357,13.5564375 Z M22.3875937,13.5564375 L9.98585182,13.5564375 L15.6230386,22.5758444 L22.3875937,13.5564375 Z" id="Shape" fill="#06092B" fill-rule="nonzero"></path><path d="M24.0000938,0.40625 C24.2762271,0.40625 24.526225,0.518186793 24.707191,0.699152755 C24.888157,0.880118716 25.0000938,1.13011667 25.0000938,1.40625 L25.0000938,1.40625 L25.0000938,7.03134375 C25.0000938,7.30747708 24.888157,7.55747503 24.707191,7.738441 C24.526225,7.91940696 24.2762271,8.03134375 24.0000938,8.03134375 C23.7239604,8.03134375 23.4739625,7.91940696 23.2929965,7.738441 C23.1120305,7.55747503 23.0000938,7.30747708 23.0000938,7.03134375 L23.0000938,7.03134375 L23.0000938,1.40625 C23.0000938,1.13011667 23.1120305,0.880118716 23.2929965,0.699152755 C23.4739625,0.518186793 23.7239604,0.40625 24.0000938,0.40625 L24.0000938,0.40625 Z" id="Path" fill="#59C9A5" fill-rule="nonzero"></path><path d="M13.4044917,4.2542448 C13.6062193,4.21092508 13.8244688,4.24456848 14.0114525,4.36544411 L14.0114525,4.36544411 L17.9889512,6.93670434 C18.1759532,7.05760922 18.2962725,7.24284865 18.3396122,7.44462405 C18.3829445,7.64636475 18.349318,7.86463108 18.2284911,8.05158106 C18.1076341,8.23853832 17.9223967,8.35885361 17.7206105,8.40218593 C17.5188973,8.44550258 17.3006459,8.41187464 17.1136359,8.29098989 L17.1136359,8.29098989 L13.1360488,5.71973316 C12.949065,5.59884007 12.8287712,5.41361929 12.7854457,5.21186482 C12.7421194,5.01010681 12.7757657,4.79182191 12.8965793,4.60489256 C13.0174822,4.41789361 13.2027182,4.29757441 13.4044917,4.2542448 Z" id="Path" fill="#59C9A5" fill-rule="nonzero"></path><path d="M34.4731779,4.23761236 L34.5958336,4.25428942 C34.797588,4.29761493 34.9828088,4.41790875 35.1036475,4.60480846 C35.2245155,4.79182191 35.2581619,5.01010681 35.2148356,5.21186482 C35.1715101,5.41361929 35.0512163,5.59884007 34.8642704,5.71970864 L34.8642704,5.71970864 L30.8867363,8.29093109 C30.6996181,8.41184324 30.4813573,8.44547189 30.2796549,8.40215755 C30.077845,8.35882013 29.8926152,8.23849146 29.7718212,8.05162904 C29.6509532,7.86461559 29.6173069,7.64633069 29.6606332,7.44457268 C29.7039587,7.24281821 29.8242525,7.05759743 30.0111984,6.93672886 L30.0111984,6.93672886 L33.9887772,4.36547745 C34.1757907,4.24460947 34.3940756,4.21096315 34.5958336,4.25428942 L34.4731779,4.23761236 Z" id="Path" fill="#59C9A5" fill-rule="nonzero"></path></g></g></g></g></svg> 