<?xml version="1.0" encoding="UTF-8"?> <svg xmlns="http://www.w3.org/2000/svg" xmlns:xlink="http://www.w3.org/1999/xlink" width="48px" height="42px" viewBox="0 0 48 42" version="1.1"><!-- Generator: Sketch 63.1 (92452) - https://sketch.com --><title>Icon/Ad-Mapper/1</title><desc>Created with Sketch.</desc><g id="UI" stroke="none" stroke-width="1" fill="none" fill-rule="evenodd"><g id="Products-Ad-Mapper" transform="translate(-828.000000, -1898.000000)" fill="#06092B"><g id="Icon/What-can-you-gain/6" transform="translate(820.000000, 1887.000000)"><g id="responsive" transform="translate(8.000000, 11.000000)"><path d="M40.3425938,0.57715625 C41.3678531,0.57715625 42.2974172,0.994422454 42.9707474,1.66775261 C43.5922829,2.28928814 43.9956338,3.12915319 44.05401,4.06107974 L44.0613438,4.29590625 L44.0613438,12.653375 L45.1875,12.653375 C45.8250616,12.653375 46.4030675,12.9129354 46.8217602,13.3316561 C47.1985839,13.7085049 47.4464992,14.2144089 47.492314,14.7766587 L47.5,14.9660625 L47.5,38.9229375 C47.5,39.5604938 47.2404447,40.1384954 46.8217513,40.5571888 C46.4449272,40.9340129 45.9390635,41.1819351 45.3768805,41.2277513 L45.1875,41.2354375 L27.6829687,41.2354375 C27.0454125,41.2354375 26.4674109,40.9758822 26.0487175,40.5571888 C25.6718934,40.1803647 25.4239712,39.674501 25.378155,39.112318 L25.3704687,38.9229375 L25.3704687,36.936625 L17.475,36.936625 C17.2247542,36.936625 16.9981942,36.8351812 16.834194,36.671181 C16.6701938,36.5071808 16.56875,36.2806208 16.56875,36.030375 C16.56875,35.7801292 16.6701938,35.5535692 16.834194,35.389569 C16.9708608,35.2529022 17.1509719,35.1596773 17.3520309,35.1323986 L17.475,35.124125 L19.5562813,35.124125 L19.5562813,29.8681563 L13.9942187,29.8681563 L13.9942188,38.9229375 C13.9942187,39.5604938 13.7346635,40.1384954 13.31597,40.5571888 C12.939146,40.9340129 12.4332822,41.1819351 11.8710992,41.2277513 L11.6817188,41.2354375 L2.8125,41.2354375 C2.17494375,41.2354375 1.59694214,40.9758822 1.1782487,40.5571888 C0.80142461,40.1803647 0.553502435,39.674501 0.507686241,39.112318 L0.5,38.9229375 L0.5,19.7444062 C0.5,19.10685 0.759555267,18.5288484 1.1782487,18.110155 C1.5550728,17.7333309 2.06093651,17.4854087 2.62311952,17.4395925 L2.8125,17.4319062 L3.93865625,17.4319062 L3.93865625,4.29590625 C3.93865625,3.27064687 4.35592245,2.34108276 5.02925261,1.66775261 C5.65078814,1.04621708 6.49065319,0.642866222 7.42257974,0.584489969 L7.65740625,0.57715625 L40.3425938,0.57715625 Z M12.1836203,36.961 L2.3125,36.961 L2.3125,39.4228484 L12.1830282,39.4227571 L12.1836203,36.961 Z M45.6891875,36.77125 L27.1829687,36.77125 L27.1829687,39.4228464 L45.6891875,39.4227473 L45.6891875,36.77125 Z M12.182139,23.51875 L2.3125,23.51875 L2.3125,35.1485 L12.1832673,35.1485 L12.182139,23.51875 Z M25.3704688,29.8680625 L21.3687812,29.8680625 L21.3687812,35.1240313 L25.3704688,35.1240313 L25.3704688,29.8680625 Z M45.6877438,18.9299687 L27.1829687,18.9299687 L27.1829687,34.95875 L45.6889437,34.95875 L45.6877438,18.9299687 Z M25.3704688,24.235 L13.9942187,24.235 L13.9942187,28.055375 L25.3704688,28.055375 L25.3704688,24.235 Z M40.3426875,2.38965625 L7.65740625,2.38965625 L7.48414508,2.39745413 C7.027546,2.4387431 6.61680982,2.64159121 6.30995052,2.94845052 C5.9647338,3.29366724 5.75115625,3.77035313 5.75115625,4.29590625 L5.75115625,4.29590625 L5.75115625,17.4317188 L11.6817188,17.4317188 L11.8710992,17.439405 C12.4332822,17.4852212 12.939146,17.7331434 13.31597,18.1099675 C13.7346635,18.5286609 13.9942188,19.1066625 13.9942188,19.7442188 L13.9942188,19.7442188 L13.9942187,22.4225 L25.3704688,22.4225 L25.3704687,14.965875 L25.378155,14.7764941 C25.4239714,14.2143098 25.6718947,13.7084456 26.0487219,13.331631 C26.467408,12.9129589 27.0453967,12.6534302 27.6829385,12.6534687 L27.6829385,12.6534687 L42.2489375,12.6534688 L42.2489375,4.29590625 L42.2411396,4.12264508 C42.1998506,3.666046 41.9970025,3.25530982 41.6901432,2.94845052 C41.3449265,2.6032338 40.8682406,2.38965625 40.3426875,2.38965625 L40.3426875,2.38965625 Z M12.1816867,19.2443125 L2.3125,19.2443125 L2.3125,21.7061563 L12.1818446,21.7061563 L12.1816867,19.2443125 Z M45.6875938,14.4659687 L27.1829687,14.4659687 L27.1829687,17.1174687 L45.6875938,17.1174687 L45.6875938,14.4659687 Z" id="Shape" fill-rule="nonzero"></path></g></g></g></g></svg> 