<?xml version="1.0" encoding="UTF-8"?> <svg xmlns="http://www.w3.org/2000/svg" xmlns:xlink="http://www.w3.org/1999/xlink" width="48px" height="48px" viewBox="0 0 48 48" version="1.1"><!-- Generator: Sketch 63.1 (92452) - https://sketch.com --><title>Icon/What-can-you-gain/10</title><desc>Created with Sketch.</desc><g id="UI" stroke="none" stroke-width="1" fill="none" fill-rule="evenodd"><g id="Products-Revenue-Booster" transform="translate(-828.000000, -1586.000000)"><g id="Icon/What-can-you-gain/10" transform="translate(820.000000, 1578.000000)"><g id="website-(1)" transform="translate(8.000000, 8.000000)"><path d="M46.59375,0.5 C46.8439958,0.5 47.0705558,0.601443842 47.234556,0.765444016 C47.3712228,0.902110827 47.4644477,1.08222195 47.4917264,1.28328088 L47.5,1.40625 L47.5,46.59375 C47.5,46.8439958 47.3985562,47.0705558 47.234556,47.234556 C47.0978892,47.3712228 46.9177781,47.4644477 46.7167191,47.4917264 L46.59375,47.5 L1.40625,47.5 C1.15600417,47.5 0.92944419,47.3985562 0.765444016,47.234556 C0.628777204,47.0978892 0.53555229,46.9177781 0.508273619,46.7167191 L0.5,46.59375 L0.5,1.40625 C0.5,1.15600417 0.601443842,0.92944419 0.765444016,0.765444016 C0.902110827,0.628777204 1.08222195,0.53555229 1.28328088,0.508273619 L1.40625,0.5 L46.59375,0.5 Z M45.6875,13.5625 L2.3125,13.5625 L2.3125,45.6875 L45.6875,45.6875 L45.6875,13.5625 Z M45.6875,2.3125 L2.3125,2.3125 L2.3125,11.75 L45.6875,11.75 L45.6875,2.3125 Z" id="Shape" fill="#06092B" fill-rule="nonzero"></path><path d="M40.96875,6.03125 C41.2448924,6.03125 41.4948924,6.14317881 41.6758568,6.32414322 C41.8568212,6.50510763 41.96875,6.75510763 41.96875,7.03125 C41.96875,7.30739237 41.8568212,7.55739237 41.6758568,7.73835678 C41.4948924,7.91932119 41.2448924,8.03125 40.96875,8.03125 C40.6926076,8.03125 40.4426076,7.91932119 40.2616432,7.73835678 C40.0806788,7.55739237 39.96875,7.30739237 39.96875,7.03125 C39.96875,6.75510763 40.0806788,6.50510763 40.2616432,6.32414322 C40.4426076,6.14317881 40.6926076,6.03125 40.96875,6.03125 Z" id="Oval" fill="#000000" fill-rule="nonzero"></path><path d="M35.34375,6.03125 C35.6198924,6.03125 35.8698924,6.14317881 36.0508568,6.32414322 C36.2318212,6.50510763 36.34375,6.75510763 36.34375,7.03125 C36.34375,7.30739237 36.2318212,7.55739237 36.0508568,7.73835678 C35.8698924,7.91932119 35.6198924,8.03125 35.34375,8.03125 C35.0676076,8.03125 34.8176076,7.91932119 34.6366432,7.73835678 C34.4556788,7.55739237 34.34375,7.30739237 34.34375,7.03125 C34.34375,6.75510763 34.4556788,6.50510763 34.6366432,6.32414322 C34.8176076,6.14317881 35.0676076,6.03125 35.34375,6.03125 Z" id="Oval" fill="#000000" fill-rule="nonzero"></path><path d="M29.71875,6.03125 C29.9948924,6.03125 30.2448924,6.14317881 30.4258568,6.32414322 C30.6068212,6.50510763 30.71875,6.75510763 30.71875,7.03125 C30.71875,7.30739237 30.6068212,7.55739237 30.4258568,7.73835678 C30.2448924,7.91932119 29.9948924,8.03125 29.71875,8.03125 C29.4426076,8.03125 29.1926076,7.91932119 29.0116432,7.73835678 C28.8306788,7.55739237 28.71875,7.30739237 28.71875,7.03125 C28.71875,6.75510763 28.8306788,6.50510763 29.0116432,6.32414322 C29.1926076,6.14317881 29.4426076,6.03125 29.71875,6.03125 L29.71875,6.03125 Z" id="Oval" fill="#000000" fill-rule="nonzero"></path><path d="M26.8125,17.375 C27.0627458,17.375 27.2893058,17.4764438 27.453306,17.640444 C27.5899728,17.7771108 27.6831977,17.9572219 27.7104764,18.1582809 L27.71875,18.28125 L27.71875,21.0907844 C28.2296286,21.3143719 28.7187424,21.5838464 29.1829539,21.897174 L29.5263943,22.1403604 L31.883511,20.7794751 C32.1001397,20.6543971 32.3470607,20.6290808 32.5710779,20.689103 C32.7577995,20.7391323 32.9286532,20.8484568 33.0527926,21.0088536 L33.1214238,21.1111545 L35.9339422,25.9826239 C36.0590442,26.199272 36.084369,26.4461945 36.0243498,26.6702114 C35.9743167,26.8569559 35.8649738,27.0278252 35.7045649,27.1519728 L35.6022577,27.2206079 L33.2739474,28.5648035 C33.3206088,28.935462 33.34375,29.2862424 33.34375,29.625 C33.34375,29.8508114 33.3335493,30.0819666 33.3128053,30.3207927 L33.2737389,30.6850761 L35.6022198,32.0293703 C35.8188923,32.1544863 35.9642985,32.3556965 36.0243242,32.5797378 C36.0743525,32.7664644 36.0650875,32.9690882 35.9882218,33.1568097 L35.9339238,33.267408 L33.1214271,38.1388397 C32.9963233,38.3555213 32.7951217,38.5009167 32.5711051,38.5609387 C32.384393,38.6109655 32.18179,38.6017035 31.9940875,38.5248259 L31.8835005,38.4705188 L29.5263943,37.1096396 C29.07483,37.4447667 28.5975791,37.7365491 28.097779,37.982953 L27.71875,38.1592156 L27.71875,40.96875 C27.71875,41.2189958 27.6173062,41.4455558 27.453306,41.609556 C27.3166392,41.7462228 27.1365281,41.8394477 26.9354691,41.8667264 L26.8125,41.875 L21.1875,41.875 C20.9372542,41.875 20.7106942,41.7735562 20.546694,41.609556 C20.4100272,41.4728892 20.3168023,41.2927781 20.2895236,41.0917191 L20.28125,40.96875 L20.28125,38.1590427 C19.7703703,37.9353996 19.2812517,37.6660408 18.8170378,37.3527253 L18.4735962,37.1095242 L16.1166643,38.4705319 C15.8999873,38.5956459 15.6530895,38.6209566 15.4291049,38.5609461 C15.242332,38.5109054 15.0714476,38.4015435 14.9473019,38.2411436 L14.8786699,38.1388455 L12.0661674,33.2674036 C11.945985,33.0592445 11.9134363,32.8118706 11.9755794,32.5797851 C12.0274393,32.3862922 12.1415611,32.2165859 12.2986151,32.0958468 L12.3978447,32.0294809 L14.7260253,30.6852985 C14.679383,30.3143096 14.65625,29.96382 14.65625,29.625 C14.65625,29.399147 14.6664471,29.1681072 14.687183,28.9292647 L14.7262336,28.5648217 L12.3978025,27.2204947 C12.1811419,27.0954332 12.0357601,26.894281 11.9757457,26.6702928 C11.925714,26.4835624 11.9349932,26.2809278 12.0118676,26.0931962 L12.0661699,25.982592 L14.8786596,21.1111724 C15.0037949,20.8944504 15.204922,20.7490806 15.428878,20.6890777 C15.615668,20.6390325 15.8183541,20.6483454 16.006078,20.7251932 L16.1166701,20.7794714 L18.4735946,22.1403685 C18.9251615,21.8052386 19.4024153,21.5134538 19.9022185,21.2670482 L20.28125,21.0907844 L20.28125,18.28125 C20.28125,18.0310042 20.3826938,17.8044442 20.546694,17.640444 C20.6833608,17.5037772 20.8634719,17.4105523 21.0645309,17.3832736 L21.1875,17.375 L26.8125,17.375 Z M25.90625,19.1875 L22.09375,19.1875 L22.09375,21.7058437 L22.0866399,21.8193888 C22.0678413,21.9686705 22.0124145,22.1085884 21.9281125,22.228141 C21.82276,22.3775465 21.6723064,22.4951491 21.4918702,22.5594525 C20.6368927,22.8641989 19.8465461,23.3228425 19.142928,23.9232031 C18.9969618,24.0477214 18.8196174,24.1195703 18.6372372,24.1362879 C18.454959,24.1529961 18.2676399,24.1146305 18.101568,24.018714 L18.101568,24.018714 L15.9951687,22.8023626 L14.088885,26.104046 L16.170599,27.3058907 L16.2655211,27.3689173 C16.3855655,27.4599803 16.4790668,27.5781325 16.5403945,27.7111262 C16.6170779,27.8774199 16.6434594,28.0669116 16.6085345,28.2556452 C16.5124338,28.7748101 16.46875,29.2100028 16.46875,29.625 C16.46875,30.03999 16.5124323,30.4751752 16.6085364,30.9944589 C16.6434621,31.1831662 16.6170699,31.372656 16.5403843,31.5389545 C16.4637241,31.7051978 16.3368002,31.8482643 16.1706281,31.9441862 L16.1706281,31.9441862 L14.088885,33.1460478 L15.9951687,36.4477311 L18.1015341,35.2313993 L18.2035542,35.1807535 C18.3424258,35.1223661 18.4915524,35.1004423 18.6374421,35.113815 C18.8197362,35.1305247 18.9969673,35.2023469 19.1429231,35.3268865 C19.8462563,35.9269597 20.6365968,36.3856088 21.4918484,36.690446 C21.6723064,36.7547572 21.82276,36.8723598 21.9281125,37.0217652 C22.03349,37.171206 22.09375,37.3524675 22.09375,37.5440625 L22.09375,37.5440625 L22.09375,40.0625 L25.90625,40.0625 L25.90625,37.54425 L25.9133601,37.4307049 C25.9321587,37.2814232 25.9875855,37.1415054 26.0718875,37.0219527 C26.17724,36.8725473 26.3276936,36.7549447 26.5081298,36.6906413 C27.3631073,36.3858948 28.1534539,35.9272512 28.857072,35.3268907 C29.0030397,35.202315 29.180272,35.1304855 29.3625639,35.113775 C29.5448696,35.0970633 29.732233,35.1354789 29.8984065,35.2314191 L29.8984065,35.2314191 L32.0049371,36.4477101 L33.9112149,33.1460371 L31.8293904,31.9441969 L31.7344875,31.8811641 C31.6144599,31.7900888 31.5209428,31.6719086 31.4596065,31.5388876 C31.3829235,31.3725842 31.3565401,31.1830907 31.3914655,30.9943548 C31.4875662,30.4751899 31.53125,30.0399972 31.53125,29.625 C31.53125,29.2100028 31.4875662,28.7748101 31.3914604,28.2556178 C31.3565015,28.0668637 31.3828852,27.8773874 31.4595594,27.7111031 C31.5362285,27.5448298 31.6631815,27.4017463 31.8293719,27.3058138 L31.8293719,27.3058138 L33.9112149,26.1039629 L32.0049371,22.8022899 L29.8983931,24.0185886 L29.7963735,24.0692685 C29.6575176,24.1276875 29.5084617,24.1495928 29.3626342,24.136225 C29.1803179,24.1195123 29.0030497,24.0476677 28.8570769,23.9231135 C28.1534326,23.3228311 27.3630941,22.8641005 26.508155,22.5593677 C26.3276936,22.4950553 26.17724,22.3774527 26.0718875,22.2280473 C25.96651,22.0786065 25.90625,21.897345 25.90625,21.70575 L25.90625,21.70575 L25.90625,19.1875 Z" id="Shape" fill="#59C9A5" fill-rule="nonzero"></path><path d="M24,25.90625 C25.0252594,25.90625 25.9548235,26.3235162 26.6281536,26.9968464 C27.3014838,27.6701765 27.71875,28.5997406 27.71875,29.625 C27.71875,30.6502594 27.3014838,31.5798235 26.6281536,32.2531536 C25.9548235,32.9264838 25.0252594,33.34375 24,33.34375 C22.9747406,33.34375 22.0451765,32.9264838 21.3718464,32.2531536 C20.6985162,31.5798235 20.28125,30.6502594 20.28125,29.625 C20.28125,28.5997406 20.6985162,27.6701765 21.3718464,26.9968464 C22.0451765,26.3235162 22.9747406,25.90625 24,25.90625 Z M24,27.71875 C23.4744469,27.71875 22.997761,27.9323275 22.6525443,28.2775443 C22.3073275,28.622761 22.09375,29.0994469 22.09375,29.625 C22.09375,30.1505531 22.3073275,30.627239 22.6525443,30.9724557 C22.997761,31.3176725 23.4744469,31.53125 24,31.53125 C24.5255531,31.53125 25.002239,31.3176725 25.3474557,30.9724557 C25.6926725,30.627239 25.90625,30.1505531 25.90625,29.625 C25.90625,29.0994469 25.6926725,28.622761 25.3474557,28.2775443 C25.002239,27.9323275 24.5255531,27.71875 24,27.71875 L24,27.71875 Z" id="Shape" fill="#59C9A5" fill-rule="nonzero"></path></g></g></g></g></svg> 