<?xml version="1.0" encoding="UTF-8"?> <svg xmlns="http://www.w3.org/2000/svg" xmlns:xlink="http://www.w3.org/1999/xlink" width="48px" height="48px" viewBox="0 0 48 48" version="1.1"><!-- Generator: Sketch 63.1 (92452) - https://sketch.com --><title>Icon/What-can-you-gain/11</title><desc>Created with Sketch.</desc><g id="UI" stroke="none" stroke-width="1" fill="none" fill-rule="evenodd"><g id="Products-CMP" transform="translate(-238.000000, -2115.000000)"><g id="Icon/What-can-you-gain/11" transform="translate(230.000000, 2107.000000)"><g id="piggybank" transform="translate(8.000000, 8.000000)"><path d="M11.2640625,25.71875 C11.5388894,25.71875 11.7835803,25.829602 11.9599367,26.0095212 C12.1411016,26.1943459 12.25,26.4507704 12.25,26.7328125 C12.25,27.0148638 12.1411172,27.2712991 11.9599495,27.4561268 C11.7836015,27.6360374 11.5389131,27.746875 11.2640625,27.746875 C10.9844758,27.746875 10.7310582,27.6329871 10.5474731,27.4494019 C10.3638879,27.2658168 10.25,27.0123992 10.25,26.7328125 C10.25,26.4532258 10.3638879,26.1998082 10.5474731,26.0162231 C10.7310582,25.8326379 10.9844758,25.71875 11.2640625,25.71875 Z" id="Path" fill="#06092B" fill-rule="nonzero"></path><path d="M24.09375,0.5 C25.8944156,0.5 27.5271047,1.23268808 28.7097083,2.41529167 C29.8923119,3.59789526 30.625,5.23058438 30.625,7.03125 C30.625,8.83191562 29.8923119,10.4646047 28.7097083,11.6472083 C27.5271047,12.8298119 25.8944156,13.5625 24.09375,13.5625 C22.2930844,13.5625 20.6603953,12.8298119 19.4777917,11.6472083 C18.2951881,10.4646047 17.5625,8.83191562 17.5625,7.03125 C17.5625,5.23058437 18.2951881,3.59789526 19.4777917,2.41529167 C20.6603953,1.23268808 22.2930844,0.5 24.09375,0.5 Z M24.09375,2.3125 C22.7927906,2.3125 21.6129797,2.84149942 20.7584896,3.69598958 C19.9039994,4.55047974 19.375,5.73029063 19.375,7.03125 C19.375,8.33220938 19.9039994,9.51202026 20.7584896,10.3665104 C21.6129797,11.2210006 22.7927906,11.75 24.09375,11.75 C25.3947094,11.75 26.5745203,11.2210006 27.4290104,10.3665104 C28.2835006,9.51202026 28.8125,8.33220938 28.8125,7.03125 C28.8125,5.73029062 28.2835006,4.55047974 27.4290104,3.69598958 C26.5745203,2.84149942 25.3947094,2.3125 24.09375,2.3125 Z" id="Shape" fill="#59C9A5" fill-rule="nonzero"></path><path d="M29.71875,20.09375 C29.9948833,20.09375 30.2448813,20.2056868 30.4258472,20.3866528 C30.6068132,20.5676187 30.71875,20.8176167 30.71875,21.09375 C30.71875,21.3698833 30.6068132,21.6198813 30.4258472,21.8008472 C30.2448813,21.9818132 29.9948833,22.09375 29.71875,22.09375 L29.71875,22.09375 L18.46875,22.09375 C18.1926167,22.09375 17.9426187,21.9818132 17.7616528,21.8008472 C17.5806868,21.6198813 17.46875,21.3698833 17.46875,21.09375 C17.46875,20.8176167 17.5806868,20.5676187 17.7616528,20.3866528 C17.9426187,20.2056868 18.1926167,20.09375 18.46875,20.09375 L18.46875,20.09375 L29.71875,20.09375 Z" id="Path" fill="#06092B" fill-rule="nonzero"></path><path d="M9.84375,11.75 C12.4132844,11.75 14.8317936,12.8122453 16.5990873,14.689311 C17.8966525,14.6636794 18.8395388,14.5784826 19.6554545,14.5644611 L19.875,14.5625 L26.90625,14.5625 C30.7860736,14.5625 34.3254907,16.0464793 36.9872722,18.4764276 C39.6732358,20.9284518 41.4659686,24.3436928 41.8124435,28.1700898 C43.2529943,28.625 44.0917228,28.2566458 44.6972125,27.66475 C45.3122153,27.0635547 45.6875,26.2310189 45.6875,25.3125 C45.6875,24.4277479 45.3429167,23.5959829 44.7172721,22.9702279 C44.5403127,22.7932684 44.4518281,22.5613464 44.4518281,22.3294219 C44.4518281,22.0974974 44.5403127,21.8655754 44.7173023,21.6885857 C44.8942558,21.511602 45.1261849,21.4231023 45.3581103,21.4231133 C45.5900064,21.4231242 45.8218917,21.5116266 45.9988997,21.6887252 C46.9669217,22.6566618 47.5,23.9437146 47.5,25.3125937 C47.5,26.7255562 46.9250229,28.0066829 45.997056,28.9346497 C45.0690891,29.8626166 43.7879625,30.4375937 42.375,30.4375937 C41.6162984,33.0962826 40.9370552,35.2601059 39.8164539,37.2049143 C38.6310335,39.2623222 37.0019514,40.9979578 35.0740861,42.2632725 C34.8592677,43.5054279 34.8470121,43.7673399 34.8460478,43.9687877 L34.845956,44.0038969 L34.8451391,44.6073948 L34.844067,45.7743761 L34.84375,46.59375 C34.84375,46.8439958 34.7423062,47.0705558 34.578306,47.234556 C34.4416392,47.3712228 34.2615281,47.4644477 34.0604691,47.4917264 L33.9375,47.5 L28.3125,47.5 C28.0622542,47.5 27.8356942,47.3985562 27.671694,47.234556 C27.5350272,47.0978892 27.4418023,46.9177781 27.4145236,46.7167191 L27.40625,46.59375 L27.40625,44.6875 L19.875,44.6875 C19.36378,44.6875 18.8245832,44.6617205 18.2997403,44.6142111 L17.78125,44.5596083 L17.78125,46.59375 C17.78125,46.8439958 17.6798062,47.0705558 17.515806,47.234556 C17.3791392,47.3712228 17.1990281,47.4644477 16.9979691,47.4917264 L16.875,47.5 L11.25,47.5 C10.9997542,47.5 10.7731942,47.3985562 10.609194,47.234556 C10.4725272,47.0978892 10.3793023,46.9177781 10.3520236,46.7165989 L10.34375,46.5935422 L10.3430883,45.0014023 L10.3421361,43.9653741 L10.3419456,43.8484404 L10.3419456,43.8484404 L10.3410824,43.3276889 L10.3409265,43.2355899 L10.3409265,43.2355899 L10.3402212,42.8295985 C10.3401349,42.7811736 10.3400514,42.7349154 10.3399707,42.6906844 L10.339117,42.2482939 C10.3390543,42.2180493 10.3389934,42.1892741 10.338934,42.1618288 L10.3381363,41.8324592 C10.3380874,41.8148264 10.3380391,41.7978261 10.337991,41.781319 L10.3375598,41.6423034 C8.62060256,39.9748955 7.30059848,38.2897953 6.35243865,36.4245242 C5.37445058,36.1480966 4.70152051,36.146875 4.21875,36.146875 C3.19277339,36.146875 2.26248736,35.7313642 1.58892854,35.0593021 C0.968262059,34.4400149 0.565596953,33.602787 0.507321057,32.6720581 L0.5,32.4375 L0.5,29.53125 C0.5,28.5059906 0.917266204,27.5764265 1.59059636,26.9030964 C2.21213189,26.2815608 3.05199694,25.87821 3.98392349,25.8198337 L4.21875,25.8125 L5.23322895,25.8125 C5.83469546,23.4727254 7.00321187,21.3108662 8.62761011,19.5176407 L8.9375,19.1857774 L8.9375,12.65625 C8.9375,12.4060042 9.03894384,12.1794442 9.20294402,12.015444 C9.36694419,11.8514438 9.59350417,11.75 9.84375,11.75 Z M10.75,13.6179348 L10.75,19.5576563 L10.7420112,19.6777655 C10.7155491,19.8757458 10.6241847,20.0607113 10.4804475,20.2025858 C8.83886804,21.8232093 7.65271236,23.843809 7.03324355,26.1065708 C7.00815399,26.2650591 6.90011159,26.7044748 6.84440707,26.9332958 C6.79589094,27.1324885 6.68315903,27.3104366 6.51852822,27.435223 C6.35901469,27.5561305 6.15244353,27.625 5.91403125,27.625 L5.91403125,27.625 L4.21875,27.625 L4.04548883,27.6327979 C3.58888975,27.6740869 3.17815357,27.876935 2.87129427,28.1837943 C2.52607755,28.529011 2.3125,29.0056969 2.3125,29.53125 L2.3125,29.53125 L2.3125,32.4375 L2.31956538,32.6031837 C2.36189666,33.0947914 2.5938957,33.5348585 3.00074803,33.8545705 C3.37439569,34.1481896 3.9086678,34.3438361 4.60221646,34.3439645 C5.2850112,34.3446806 6.54570314,34.3474268 7.63194482,34.9016547 C8.56599841,37.0324736 10.04239,38.9270979 11.7859245,40.238888 C12.012126,40.4090829 12.1458404,40.6751664 12.1473509,40.9582925 C12.1506942,41.5950907 12.1527594,42.5557905 12.1540509,43.5044094 L12.1540509,43.5044094 L12.155204,44.549462 L12.1560661,45.6875 L15.96875,45.6875 L15.96875,40.96875 L15.9770236,40.8457809 C16.0043023,40.6447219 16.0975272,40.4646108 16.234194,40.327944 C16.3981942,40.1639438 16.6247542,40.0625 16.875,40.0625 C17.1252458,40.0625 17.3518058,40.1639438 17.515806,40.327944 C17.6798062,40.4919442 17.78125,40.7185042 17.78125,40.96875 L17.78125,40.96875 L17.78125,42.7329757 L18.1870176,42.7825625 C18.7378934,42.8421316 19.3226537,42.875 19.875,42.875 L19.875,42.875 L27.40625,42.875 L27.40625,40.96875 L27.4145236,40.8457809 C27.4418023,40.6447219 27.5350272,40.4646108 27.671694,40.327944 C27.8356942,40.1639438 28.0622542,40.0625 28.3125,40.0625 C28.5627458,40.0625 28.7893058,40.1639438 28.953306,40.327944 C29.1173062,40.4919442 29.21875,40.7185042 29.21875,40.96875 L29.21875,40.96875 L29.21875,45.6875 L33.0314498,45.6875 L33.0326965,44.555219 L33.0332402,44.1510029 C33.0342393,43.4586729 33.0357174,42.6786661 33.0379043,41.8935803 C33.0388106,41.5711992 33.2109514,41.2735235 33.4899616,41.1119054 C37.4801533,38.8006872 40.0625,34.2564 40.0625,29.53125 C40.0625,25.9040719 38.587235,22.614886 36.2049245,20.2325755 C33.822614,17.850265 30.5334281,16.375 26.90625,16.375 L26.90625,16.375 L19.875,16.375 L19.4993926,16.3817293 C18.604228,16.4129695 17.5874506,16.5518356 16.6510438,16.7743237 C16.4794429,16.8151235 16.3038683,16.8043076 16.1438602,16.7486969 C15.9838763,16.6930946 15.8394545,16.5927097 15.7302051,16.4543431 C14.4712869,14.8601244 12.6907343,13.8574529 10.75,13.6179348 L10.75,13.6179348 Z" id="Shape" fill="#06092B" fill-rule="nonzero"></path></g></g></g></g></svg> 