<?xml version="1.0" encoding="UTF-8"?> <svg xmlns="http://www.w3.org/2000/svg" xmlns:xlink="http://www.w3.org/1999/xlink" width="48px" height="46px" viewBox="0 0 48 46" version="1.1"><!-- Generator: Sketch 63.1 (92452) - https://sketch.com --><title>Icon/Ad-Mapper/2</title><desc>Created with Sketch.</desc><defs><polygon id="path-1" points="9.6e-06 0.0003072 40.7038176 0.0003072 40.7038176 45.12 9.6e-06 45.12"></polygon></defs><g id="UI" stroke="none" stroke-width="1" fill="none" fill-rule="evenodd"><g id="Services-Video-Monetization" transform="translate(-238.000000, -1714.000000)"><g id="What-you-can-gain?" transform="translate(222.000000, 1428.000000)"><g id="Icon/What-can-you-gain/15" transform="translate(8.000000, 277.000000)"><g id="Group-12" transform="translate(8.000000, 9.000000)"><g id="Group-3" transform="translate(0.000000, -0.000288)"><mask id="mask-2" fill="white"><use xlink:href="#path-1"></use></mask><g id="Clip-2"></g><path d="M38.9757216,39.9830592 L29.0877216,35.0800512 L29.0877216,27.5119872 L38.9757216,22.6087872 L38.9757216,39.9830592 Z M20.1598176,26.1121152 C18.8029536,26.1121152 17.6497056,27.0820992 17.4177696,28.4186112 L17.3349216,28.8961152 L3.7439136,28.8961152 C2.6323296,28.8961152 1.7280096,27.9916992 1.7280096,26.8801152 L1.7280096,3.7442112 C1.7280096,2.6326272 2.6323296,1.7282112 3.7439136,1.7282112 L33.9837216,1.7282112 C35.0953056,1.7282112 35.9997216,2.6326272 35.9997216,3.7442112 L35.9997216,22.1557632 L28.0213536,26.1121152 L20.1598176,26.1121152 Z M27.3598176,34.7520192 L20.1598176,34.7520192 C19.5775776,34.7520192 19.1038176,34.2782592 19.1038176,33.6960192 L19.1038176,28.8960192 C19.1038176,28.3137792 19.5775776,27.8401152 20.1598176,27.8401152 L27.3598176,27.8401152 L27.3598176,34.7520192 Z M24.7158816,43.3919232 L20.6997216,43.3919232 L21.8517216,36.4800192 L25.9446816,36.4800192 L24.7158816,43.3919232 Z M40.2946656,20.4825792 C40.0346976,20.3213952 39.7289376,20.3066112 39.4559136,20.4419712 L37.7277216,21.2990592 L37.7277216,3.7442112 C37.7277216,1.6798272 36.0482016,0.0003072 33.9837216,0.0003072 L3.7439136,0.0003072 C1.6795296,0.0003072 9.6e-06,1.6798272 9.6e-06,3.7442112 L9.6e-06,26.8801152 C9.6e-06,28.9444992 1.6795296,30.6240192 3.7439136,30.6240192 L17.3758176,30.6240192 L17.3758176,33.6960192 C17.3758176,34.9907712 18.2934816,36.1337472 19.5578016,36.4135872 L20.0912736,36.5317632 L18.8276256,44.1139392 C18.7857696,44.3647872 18.8562336,44.6199552 19.0207776,44.8141632 C19.1854176,45.0085632 19.4256096,45.1200192 19.6798176,45.1200192 L25.4398176,45.1200192 C25.8593376,45.1200192 26.2171296,44.8202112 26.2904736,44.4072192 L27.7257696,36.3334272 L39.4559136,42.1500672 C39.7290336,42.2853312 40.0346016,42.2706432 40.2950496,42.1089792 C40.5548256,41.9478912 40.7038176,41.6807232 40.7038176,41.3760192 L40.7038176,21.2162112 C40.7038176,20.9112192 40.5546336,20.6437632 40.2946656,20.4825792 L40.2946656,20.4825792 Z" id="Fill-1" fill="#06092B" mask="url(#mask-2)"></path></g><path d="M47.940192,25.1786208 C48.024288,24.9637728 48.01968,24.7289568 47.927136,24.5175648 C47.834592,24.3059808 47.665344,24.1432608 47.4504,24.0590688 C47.348352,24.0191328 47.241888,23.9992608 47.135424,23.9992608 C47.01792,23.9992608 46.900512,24.0236448 46.789632,24.0722208 L45.25344,24.7443168 C45.041952,24.8367648 44.879136,25.0060128 44.79504,25.2209568 C44.710944,25.4359008 44.715552,25.6706208 44.808096,25.8820128 C44.90064,26.0935008 45.07008,26.2564128 45.285024,26.3404128 C45.499776,26.4245088 45.734496,26.4198048 45.945792,26.3273568 L45.945888,26.3272608 L47.481888,25.6552608 C47.693376,25.5628128 47.856096,25.3934688 47.940192,25.1786208" id="Fill-4" fill="#06092B"></path><path d="M47.481936,36.9361824 L47.48184,36.9361824 L45.94584,36.2641824 C45.834864,36.2156064 45.717456,36.1912224 45.599856,36.1912224 C45.493392,36.1912224 45.386928,36.2111904 45.284784,36.2511264 C45.06984,36.3352224 44.900592,36.4980384 44.808048,36.7094304 C44.7156,36.9209184 44.710992,37.1556384 44.795088,37.3704864 C44.879184,37.5854304 45.041904,37.7546784 45.253296,37.8471264 L46.789392,38.5191264 C47.000784,38.6116704 47.2356,38.6164704 47.450544,38.5321824 C47.665392,38.4480864 47.834736,38.2854624 47.927184,38.0740704 C48.019728,37.8624864 48.02424,37.6277664 47.940144,37.4129184 C47.856048,37.1979744 47.693328,37.0287264 47.481936,36.9361824" id="Fill-6" fill="#06092B"></path><path d="M47.1356256,30.431712 L45.5996256,30.431712 C45.1231776,30.431712 44.7356256,30.819264 44.7356256,31.295712 C44.7356256,31.77216 45.1231776,32.159712 45.5996256,32.159712 L47.1356256,32.159712 C47.6120736,32.159712 47.9996256,31.77216 47.9996256,31.295712 C47.9996256,30.819264 47.6120736,30.431712 47.1356256,30.431712" id="Fill-8" fill="#06092B"></path><path d="M13.967856,10.949856 L22.691856,15.311808 L13.967856,19.673856 L13.967856,10.949856 Z M12.65016,21.805824 C12.910992,21.967104 13.217424,21.981216 13.490256,21.844704 L25.010256,16.084608 C25.308432,15.93552 25.486512,15.64656 25.486512,15.311712 C25.486512,14.97696 25.308432,14.688096 25.01016,14.539008 L13.490256,8.779104 C13.365744,8.7168 13.23432,8.685888 13.103568,8.685888 C12.94728,8.685888 12.791856,8.729952 12.649872,8.817792 C12.389328,8.978784 12.239856,9.246336 12.239856,9.551904 L12.239856,21.071808 C12.239856,21.377184 12.389424,21.644736 12.65016,21.805824 L12.65016,21.805824 Z" id="Fill-10" fill="#59C9A5"></path></g></g></g></g></g></svg> 