<?xml version="1.0" encoding="UTF-8"?> <svg xmlns="http://www.w3.org/2000/svg" xmlns:xlink="http://www.w3.org/1999/xlink" width="48px" height="48px" viewBox="0 0 48 48" version="1.1"><!-- Generator: Sketch 63.1 (92452) - https://sketch.com --><title>Icon/Ad-Mapper/2</title><desc>Created with Sketch.</desc><g id="UI" stroke="none" stroke-width="1" fill="none" fill-rule="evenodd"><g id="Products-Ad-Mapper" transform="translate(-238.000000, -1751.000000)"><g id="Icon/What-can-you-gain/2" transform="translate(230.000000, 1743.000000)"><g id="analytics" transform="translate(8.000000, 8.000000)"><path d="M31.2077636,0.5 C35.5595718,0.5 39.6509358,2.19482367 42.7282133,5.27174592 C45.8051734,8.34906126 47.5,12.4404202 47.5,16.7918701 C47.5,21.1440336 45.8051763,25.2350423 42.7282337,28.3123401 C39.6512792,31.3892948 35.5599242,33.0841065 31.2081299,33.0841065 C27.2994127,33.0841065 23.6007193,31.7169815 20.6583263,29.2085155 L20.3459888,28.9353942 L16.3515701,32.9302439 C16.7673339,33.5835774 16.989502,34.343159 16.989502,35.1364746 C16.989502,36.1600695 16.6194741,37.1265099 15.9425904,37.8831114 L15.780968,38.0539174 L7.54349107,46.2913943 C6.7389861,47.0955726 5.68259711,47.4978027 4.62597656,47.4978027 C3.56935602,47.4978027 2.51296702,47.0955726 1.70853386,46.2914661 C0.929199034,45.5121313 0.5,44.4760695 0.5,43.3740234 C0.5,42.350695 0.870074677,41.384261 1.54692787,40.6274347 L1.70854172,40.4565729 L9.94571645,32.219032 C10.5869676,31.5777808 11.3885561,31.1922147 12.2226175,31.062351 C13.1136853,30.9236114 14.0418731,31.0761717 14.8512787,31.5207595 L15.0689636,31.6492516 L19.0642203,27.6539949 C16.3824156,24.6635868 14.9158935,20.8405574 14.9158935,16.7922364 C14.9158935,12.4404391 16.6103471,8.34907913 19.6876395,5.27178673 C22.7649548,2.19482659 26.8559584,0.5 31.2077636,0.5 Z M12.8632049,32.8240051 C12.2706471,32.8240051 11.6782769,33.0498075 11.2274097,33.5009083 L11.2274097,33.5009083 L2.98996028,41.7379914 L2.8516466,41.8889561 C2.50253377,42.3048991 2.3125,42.8247092 2.3125,43.3740234 C2.3125,43.992002 2.55301149,44.5726393 2.98976347,45.0098585 C3.44107345,45.460935 4.03346687,45.6865845 4.62593078,45.6865845 C5.21846106,45.6865845 5.8107925,45.4608895 6.26163442,45.0100476 L6.26163442,45.0100476 L14.4991833,36.7724987 L14.6411926,36.6171051 C14.9976273,36.1898026 15.1759949,35.6632735 15.1759949,35.1366577 C15.1759949,34.544215 14.9502484,33.9518818 14.4991833,33.5008167 C14.0481286,33.049762 13.4556964,32.8240051 12.8632049,32.8240051 Z M31.2077636,2.3125 C27.3403271,2.3125 23.7042654,3.81873043 20.9694446,6.55355107 C18.2346275,9.28836832 16.7283935,12.9244239 16.7283935,16.7922364 C16.7283935,20.6596729 18.234624,24.2957346 20.9694446,27.0305554 C23.7042654,29.765376 27.3403271,31.2716065 31.2077636,31.2716065 C35.0755761,31.2716065 38.7116317,29.7653725 41.4464489,27.0305554 C44.1812661,24.2957381 45.6875,20.6596825 45.6875,16.7918701 C45.6875,12.9244335 44.1812696,9.28837182 41.4464489,6.55355108 C38.7116317,3.81873393 35.0755761,2.3125 31.2077636,2.3125 Z" id="Shape" fill="#06092B" fill-rule="nonzero"></path><path d="M24.0827636,17.2918701 C24.3589355,17.2918701 24.6089422,17.4037729 24.7899015,17.5847322 C24.9708609,17.7656915 25.0827636,18.0156982 25.0827636,18.2918701 L25.0827636,18.2918701 L25.0827636,22.7922364 C25.0827636,23.0684083 24.9708609,23.3184149 24.7899015,23.4993743 C24.6089422,23.6803336 24.3589355,23.7922364 24.0827636,23.7922364 C23.806686,23.7922364 23.5566665,23.6802777 23.375673,23.4992843 C23.1947254,23.3183366 23.0827636,23.0683723 23.0827636,22.7922364 L23.0827636,22.7922364 L23.0827636,18.2918701 C23.0827636,18.0157342 23.1947254,17.7657698 23.375673,17.5848222 C23.5566665,17.4038288 23.806686,17.2918701 24.0827636,17.2918701 Z" id="Path" fill="#59C9A5" fill-rule="nonzero"></path><path d="M28.7702636,12.6043701 C29.0464355,12.6043701 29.2964422,12.7162729 29.4774015,12.8972322 C29.6583609,13.0781915 29.7702636,13.3281982 29.7702636,13.6043701 L29.7702636,13.6043701 L29.7702636,22.7922364 C29.7702636,23.0684083 29.6583609,23.3184149 29.4774015,23.4993743 C29.2964422,23.6803336 29.0464355,23.7922364 28.7702636,23.7922364 C28.494186,23.7922364 28.2441665,23.6802777 28.063173,23.4992843 C27.8822254,23.3183366 27.7702636,23.0683723 27.7702636,22.7922364 L27.7702636,22.7922364 L27.7702636,13.6043701 C27.7702636,13.3282342 27.8822254,13.0782698 28.063173,12.8973222 C28.2441665,12.7163288 28.494186,12.6043701 28.7702636,12.6043701 Z" id="Path" fill="#59C9A5" fill-rule="nonzero"></path><path d="M33.4577636,14.4793701 C33.7339355,14.4793701 33.9839422,14.5912729 34.1649015,14.7722322 C34.3458609,14.9531915 34.4577636,15.2031982 34.4577636,15.4793701 L34.4577636,15.4793701 L34.4577636,22.7922364 C34.4577636,23.0684083 34.3458609,23.3184149 34.1649015,23.4993743 C33.9839422,23.6803336 33.7339355,23.7922364 33.4577636,23.7922364 C33.181686,23.7922364 32.9316665,23.6802777 32.750673,23.4992843 C32.5697254,23.3183366 32.4577636,23.0683723 32.4577636,22.7922364 L32.4577636,22.7922364 L32.4577636,15.4793701 C32.4577636,15.2032342 32.5697254,14.9532698 32.750673,14.7723222 C32.9316665,14.5913288 33.181686,14.4793701 33.4577636,14.4793701 Z" id="Path" fill="#59C9A5" fill-rule="nonzero"></path><path d="M38.1452636,9.79187009 C38.4214355,9.79187009 38.6714422,9.90377286 38.8524015,10.0847322 C39.0333609,10.2656915 39.1452636,10.5156982 39.1452636,10.7918701 L39.1452636,10.7918701 L39.1452636,22.7922364 C39.1452636,23.0684083 39.0333609,23.3184149 38.8524015,23.4993743 C38.6714422,23.6803336 38.4214355,23.7922364 38.1452636,23.7922364 C37.869186,23.7922364 37.6191665,23.6802777 37.438173,23.4992843 C37.2572254,23.3183366 37.1452636,23.0683723 37.1452636,22.7922364 L37.1452636,22.7922364 L37.1452636,10.7918701 C37.1452636,10.5157342 37.2572254,10.2657698 37.438173,10.0848222 C37.6191665,9.90382876 37.869186,9.79187009 38.1452636,9.79187009 Z" id="Path" fill="#59C9A5" fill-rule="nonzero"></path></g></g></g></g></svg> 