<?xml version="1.0" encoding="UTF-8"?> <svg xmlns="http://www.w3.org/2000/svg" xmlns:xlink="http://www.w3.org/1999/xlink" width="42px" height="48px" viewBox="0 0 42 48" version="1.1"><!-- Generator: Sketch 63.1 (92452) - https://sketch.com --><title>Icon/Ad-Mapper/3</title><desc>Created with Sketch.</desc><g id="UI" stroke="none" stroke-width="1" fill="none" fill-rule="evenodd"><g id="Products-Ad-Mapper" transform="translate(-241.000000, -1895.000000)"><g id="Icon/What-can-you-gain/3" transform="translate(230.000000, 1887.000000)"><g id="template" transform="translate(11.000000, 8.000000)"><path d="M40.78125,0.6 C41.0039136,0.6 41.2054859,0.690214049 41.3513859,0.836114053 C41.4729693,0.95769739 41.5558818,1.1179421 41.580142,1.29683591 L41.5875,1.40625 L41.5875,46.59375 C41.5875,46.8164136 41.497286,47.0179859 41.3513859,47.1638859 C41.2298026,47.2854693 41.0695579,47.3683818 40.8906641,47.392642 L40.78125,47.4 L1.40625,47.4 C1.18358643,47.4 0.982014057,47.309786 0.836114053,47.1638859 C0.714530716,47.0423026 0.631618182,46.8820579 0.607357985,46.7031641 L0.6,46.59375 L0.6,1.40625 C0.6,1.18358643 0.690214049,0.982014057 0.836114053,0.836114053 C0.95769739,0.714530716 1.1179421,0.631618182 1.29683591,0.607357985 L1.40625,0.6 L40.78125,0.6 Z M39.975,7.93125 L2.2125,7.93125 L2.2125,45.7875 L39.975,45.7875 L39.975,7.93125 Z M39.975,2.2125 L2.2125,2.2125 L2.2125,6.31875 L39.975,6.31875 L39.975,2.2125 Z" id="Shape" fill="#06092B" fill-rule="nonzero"></path><path d="M35.15625,11.94375 C35.3789136,11.94375 35.5804859,12.033964 35.7263859,12.1798641 C35.8479693,12.3014474 35.9308818,12.4616921 35.955142,12.6405859 L35.9625,12.75 L35.9625,18.46875 C35.9625,18.6914136 35.872286,18.8929859 35.7263859,19.0388859 C35.6048026,19.1604693 35.4445579,19.2433818 35.2656641,19.267642 L35.15625,19.275 L7.03125,19.275 C6.80858643,19.275 6.60701406,19.184786 6.46111405,19.0388859 C6.33953072,18.9173026 6.25661818,18.7570579 6.23235799,18.5781641 L6.225,18.46875 L6.225,12.75 C6.225,12.5273364 6.31521405,12.3257641 6.46111405,12.1798641 C6.58269739,12.0582807 6.7429421,11.9753682 6.92183591,11.951108 L7.03125,11.94375 L35.15625,11.94375 Z M34.35,13.55625 L7.8375,13.55625 L7.8375,17.6625 L34.35,17.6625 L34.35,13.55625 Z" id="Shape" fill="#59C9A5" fill-rule="nonzero"></path><path d="M21.09375,23.2875 C21.3164136,23.2875 21.5179859,23.377714 21.6638859,23.5236141 C21.7854693,23.6451974 21.8683818,23.8054421 21.892642,23.9843359 L21.9,24.09375 L21.9,40.96875 C21.9,41.1914136 21.809786,41.3929859 21.6638859,41.5388859 C21.5423026,41.6604693 21.3820579,41.7433818 21.2031641,41.767642 L21.09375,41.775 L7.03125,41.775 C6.80858643,41.775 6.60701406,41.684786 6.46111405,41.5388859 C6.33953072,41.4173026 6.25661818,41.2570579 6.23235799,41.0781641 L6.225,40.96875 L6.225,24.09375 C6.225,23.8710864 6.31521405,23.6695141 6.46111405,23.5236141 C6.58269739,23.4020307 6.7429421,23.3191182 6.92183591,23.294858 L7.03125,23.2875 L21.09375,23.2875 Z M20.2875,24.9 L7.8375,24.9 L7.8375,40.1625 L20.2875,40.1625 L20.2875,24.9 Z" id="Shape" fill="#06092B" fill-rule="nonzero"></path><path d="M35.15625,23.2875 C35.3789136,23.2875 35.5804859,23.377714 35.7263859,23.5236141 C35.8479693,23.6451974 35.9308818,23.8054421 35.955142,23.9843359 L35.9625,24.09375 L35.9625,29.71875 C35.9625,29.9414136 35.872286,30.1429859 35.7263859,30.2888859 C35.6048026,30.4104693 35.4445579,30.4933818 35.2656641,30.517642 L35.15625,30.525 L26.71875,30.525 C26.4960864,30.525 26.2945141,30.434786 26.1486141,30.2888859 C26.0270307,30.1673026 25.9441182,30.0070579 25.919858,29.8281641 L25.9125,29.71875 L25.9125,24.09375 C25.9125,23.8710864 26.002714,23.6695141 26.1486141,23.5236141 C26.2701974,23.4020307 26.4304421,23.3191182 26.6093359,23.294858 L26.71875,23.2875 L35.15625,23.2875 Z M34.35,24.9 L27.525,24.9 L27.525,28.9125 L34.35,28.9125 L34.35,24.9 Z" id="Shape" fill="#06092B" fill-rule="nonzero"></path><path d="M35.15625,34.5375 C35.3789136,34.5375 35.5804859,34.627714 35.7263859,34.7736141 C35.8479693,34.8951974 35.9308818,35.0554421 35.955142,35.2343359 L35.9625,35.34375 L35.9625,40.96875 C35.9625,41.1914136 35.872286,41.3929859 35.7263859,41.5388859 C35.6048026,41.6604693 35.4445579,41.7433818 35.2656641,41.767642 L35.15625,41.775 L26.71875,41.775 C26.4960864,41.775 26.2945141,41.684786 26.1486141,41.5388859 C26.0270307,41.4173026 25.9441182,41.2570579 25.919858,41.0781641 L25.9125,40.96875 L25.9125,35.34375 C25.9125,35.1210864 26.002714,34.9195141 26.1486141,34.7736141 C26.2701974,34.6520307 26.4304421,34.5691182 26.6093359,34.544858 L26.71875,34.5375 L35.15625,34.5375 Z M34.35,36.15 L27.525,36.15 L27.525,40.1625 L34.35,40.1625 L34.35,36.15 Z" id="Shape" fill="#06092B" fill-rule="nonzero"></path></g></g></g></g></svg> 