<?xml version="1.0" encoding="UTF-8"?> <svg xmlns="http://www.w3.org/2000/svg" xmlns:xlink="http://www.w3.org/1999/xlink" width="48px" height="40px" viewBox="0 0 48 40" version="1.1"><!-- Generator: Sketch 63.1 (92452) - https://sketch.com --><title>Icon/Ad-Mapper/4</title><desc>Created with Sketch.</desc><g id="UI" stroke="none" stroke-width="1" fill="none" fill-rule="evenodd"><g id="Services-Video-Monetization" transform="translate(-828.000000, -1572.000000)"><g id="What-you-can-gain?" transform="translate(222.000000, 1428.000000)"><g id="Icon/What-can-you-gain/14" transform="translate(598.000000, 132.000000)"><g id="Group-7" transform="translate(8.000000, 12.000000)"><path d="M46.272,35.424 C46.272,36.535584 45.367584,37.44 44.256,37.44 L3.744,37.44 C2.63232,37.44 1.728,36.535584 1.728,35.424 L1.728,3.744 C1.728,2.63232 2.63232,1.728 3.744,1.728 L44.256,1.728 C45.367584,1.728 46.272,2.63232 46.272,3.744 L46.272,35.424 Z M48,3.744 C48,1.67952 46.32048,0 44.256,0 L3.744,0 C1.67952,0 0,1.67952 0,3.744 L0,35.424 C0,37.48848 1.67952,39.168 3.744,39.168 L44.256,39.168 C46.32048,39.168 48,37.48848 48,35.424 L48,3.744 Z" id="Fill-1" fill="#06092B"></path><path d="M12.48,31.68 C11.36832,31.68 10.464,30.775584 10.464,29.664 C10.464,28.552416 11.36832,27.648 12.48,27.648 C13.59168,27.648 14.496,28.552416 14.496,29.664 C14.496,30.775584 13.59168,31.68 12.48,31.68 M41.376,28.8 L16.145472,28.8 L16.00944,28.416576 C15.479808,26.923296 14.061504,25.92 12.48,25.92 C10.898496,25.92 9.480192,26.923296 8.95056,28.416576 L8.814528,28.8 L6.624,28.8 C6.147648,28.8 5.76,29.187552 5.76,29.664 C5.76,30.140448 6.147648,30.528 6.624,30.528 L8.814528,30.528 L8.95056,30.911424 C9.480192,32.404704 10.898496,33.408 12.48,33.408 C14.061504,33.408 15.479808,32.404704 16.00944,30.911424 L16.145472,30.528 L41.376,30.528 C41.852448,30.528 42.24,30.140448 42.24,29.664 C42.24,29.187552 41.852448,28.8 41.376,28.8" id="Fill-3" fill="#06092B"></path><path d="M19.104,10.902048 L27.828096,15.264 L19.104,19.625952 L19.104,10.902048 Z M17.785728,21.75888 L17.785824,21.758976 C18.038496,21.915072 18.360576,21.929664 18.626304,21.796896 L30.146304,16.0368 C30.441024,15.889536 30.624,15.593376 30.624,15.264 C30.624,14.934624 30.441024,14.638464 30.146208,14.491104 L18.6264,8.7312 C18.503424,8.669664 18.371232,8.639136 18.23952,8.639136 C18.082176,8.639136 17.925504,8.682624 17.78592,8.768928 C17.529216,8.927616 17.376,9.202368 17.376,9.504 L17.376,21.024 C17.376,21.325728 17.529216,21.600384 17.785728,21.75888 L17.785728,21.75888 Z" id="Fill-5" fill="#59C9A5"></path></g></g></g></g></g></svg> 