<?xml version="1.0" encoding="UTF-8"?> <svg xmlns="http://www.w3.org/2000/svg" xmlns:xlink="http://www.w3.org/1999/xlink" width="48px" height="48px" viewBox="0 0 48 48" version="1.1"><!-- Generator: Sketch 63.1 (92452) - https://sketch.com --><title>Icon/Ad-Mapper/4</title><desc>Created with Sketch.</desc><g id="UI" stroke="none" stroke-width="1" fill="none" fill-rule="evenodd"><g id="Products-Ad-Mapper" transform="translate(-828.000000, -1606.000000)"><g id="Icon/What-can-you-gain/4" transform="translate(820.000000, 1598.000000)"><g id="magic-wand-(1)" transform="translate(8.000000, 8.000000)"><path d="M16.4689766,11.1439101 C16.6340103,11.1439101 16.7990852,11.1941886 16.9390985,11.2948984 L17.0390172,11.3798891 L47.1640584,41.5049303 C47.3213956,41.6622137 47.4,41.8686228 47.4,42.0749969 C47.4,42.2400322 47.3497209,42.4051085 47.2489934,42.545126 L47.1639859,42.6450484 L42.6452722,47.1637622 C42.4878202,47.3211872 42.2814503,47.3999531 42.0750618,47.3999531 C41.910036,47.3999531 41.7450091,47.3495823 41.6049848,47.2488194 L41.5050453,47.1637984 L11.3800766,17.0388297 C11.2226398,16.8813929 11.1439219,16.6750426 11.1439219,16.4686992 C11.1439219,16.3036455 11.1942899,16.138593 11.2950539,15.9985712 L11.3800766,15.8986391 L15.8988628,11.3798528 C16.0561642,11.2225245 16.2625845,11.1439101 16.4689766,11.1439101 Z M24.0001875,20.6214406 L20.6216281,24 L42.0751875,45.4535594 L45.4537469,42.075 L24.0001875,20.6214406 Z M16.4688671,13.090214 L13.0904208,16.4687855 L19.4813402,22.859813 L22.8599031,19.48125 L16.4688671,13.090214 Z" id="Shape" fill="#06092B" fill-rule="nonzero"></path><path d="M16.4687812,0.40625 C16.7449146,0.40625 16.9949125,0.518186793 17.1758785,0.699152755 C17.3568445,0.880118716 17.4687812,1.13011667 17.4687812,1.40625 L17.4687812,1.40625 L17.4687812,4.4188125 C17.4687812,4.69494583 17.3568445,4.94494378 17.1758785,5.12590975 C16.9949125,5.30687571 16.7449146,5.4188125 16.4687812,5.4188125 C16.1926238,5.4188125 15.9426291,5.30689001 15.7616719,5.12593278 C15.5807029,4.94496382 15.4687812,4.69495504 15.4687812,4.4188125 L15.4687812,4.4188125 L15.4687812,1.40625 C15.4687812,1.13011667 15.580718,0.880118716 15.761684,0.699152755 C15.94265,0.518186793 16.1926479,0.40625 16.4687812,0.40625 Z" id="Path" fill="#59C9A5" fill-rule="nonzero"></path><path d="M16.4687812,27.51875 C16.7449146,27.51875 16.9949125,27.6306868 17.1758785,27.8116528 C17.3568445,27.9926187 17.4687812,28.2426167 17.4687812,28.51875 L17.4687812,28.51875 L17.4687812,31.5312187 C17.4687812,31.8073521 17.3568445,32.05735 17.1758785,32.238316 C16.9949125,32.419282 16.7449146,32.5312187 16.4687812,32.5312187 C16.1926479,32.5312187 15.94265,32.419282 15.761684,32.238316 C15.580718,32.05735 15.4687812,31.8073521 15.4687812,31.5312187 L15.4687812,31.5312187 L15.4687812,28.51875 C15.4687812,28.2426167 15.580718,27.9926187 15.761684,27.8116528 C15.94265,27.6306868 16.1926479,27.51875 16.4687812,27.51875 Z" id="Path" fill="#59C9A5" fill-rule="nonzero"></path><path d="M31.5312188,15.4687812 C31.8073521,15.4687812 32.05735,15.580718 32.238316,15.761684 C32.419282,15.94265 32.5312188,16.1926479 32.5312188,16.4687812 C32.5312188,16.7449146 32.419282,16.9949125 32.238316,17.1758785 C32.05735,17.3568445 31.8073521,17.4687812 31.5312188,17.4687812 L31.5312188,17.4687812 L28.51875,17.4687812 C28.2426167,17.4687812 27.9926187,17.3568445 27.8116528,17.1758785 C27.6306868,16.9949125 27.51875,16.7449146 27.51875,16.4687812 C27.51875,16.1926479 27.6306868,15.94265 27.8116528,15.761684 C27.9926187,15.580718 28.2426167,15.4687812 28.51875,15.4687812 L28.51875,15.4687812 L31.5312188,15.4687812 Z" id="Path" fill="#59C9A5" fill-rule="nonzero"></path><path d="M4.41871875,15.4687812 C4.69485208,15.4687812 4.94485003,15.580718 5.125816,15.761684 C5.30678196,15.94265 5.41871875,16.1926479 5.41871875,16.4687812 C5.41871875,16.7449146 5.30678196,16.9949125 5.125816,17.1758785 C4.94485003,17.3568445 4.69485208,17.4687812 4.41871875,17.4687812 L4.41871875,17.4687812 L1.40625,17.4687812 C1.13011667,17.4687812 0.880118716,17.3568445 0.699152755,17.1758785 C0.518186793,16.9949125 0.40625,16.7449146 0.40625,16.4687812 C0.40625,16.1926479 0.518186793,15.94265 0.699152755,15.761684 C0.880118716,15.580718 1.13011667,15.4687812 1.40625,15.4687812 L1.40625,15.4687812 L4.41871875,15.4687812 Z" id="Path" fill="#59C9A5" fill-rule="nonzero"></path><path d="M27.1181256,5.01182802 C27.3244841,5.0119059 27.5308221,5.09071142 27.6882161,5.24821292 C27.8455693,5.4056736 27.9241833,5.61205318 27.9241056,5.81839431 C27.9240277,6.02471949 27.8452673,6.23102654 27.687751,6.38840844 L27.687751,6.38840844 L25.5565008,8.5182523 C25.3990786,8.67559391 25.1927674,8.75418333 24.986483,8.7541056 C24.780096,8.7540277 24.5737264,8.67521639 24.4163102,8.51771959 C24.2589378,8.36026655 24.1803069,8.15389938 24.1803749,7.94756679 C24.1804431,7.74124394 24.2592039,7.53493984 24.4167084,7.37756964 L24.4167084,7.37756964 L26.5480617,5.24771645 C26.705496,5.09036269 26.9118235,5.01175027 27.1181256,5.01182802 Z" id="Path" fill="#59C9A5" fill-rule="nonzero"></path><path d="M7.95099337,24.1833515 C8.15738896,24.1834196 8.36377097,24.2622141 8.52112236,24.4196192 C8.67851028,24.5771146 8.75716187,24.7834988 8.75709382,24.9898551 C8.75702569,25.1962016 8.67824419,25.4025227 8.52075097,25.5599084 L8.52075097,25.5599084 L6.38940711,27.689846 C6.23199337,27.8471792 6.02566645,27.925779 5.81935978,27.925711 C5.61298419,27.9256429 5.40661489,27.8468593 5.24925264,27.6894433 C5.09186472,27.5319479 5.01321313,27.3255637 5.01328118,27.1192074 C5.01334931,26.9128609 5.09213081,26.7065398 5.24962403,26.5491541 L5.24962403,26.5491541 L7.38096791,24.4192165 C7.5383925,24.2618725 7.7447067,24.1832834 7.95099337,24.1833515 Z" id="Path" fill="#59C9A5" fill-rule="nonzero"></path><path d="M5.8191347,5.01179291 C6.02553189,5.01171513 6.2319529,5.09042348 6.38944781,5.24775714 L6.38944781,5.24775714 L8.52075581,7.37756514 C8.67824281,7.53494464 8.75702569,7.74126344 8.75709382,7.94760196 C8.75716186,8.15392398 8.67852682,8.3602707 8.52108614,8.51779205 C8.36374142,8.67527114 8.15745901,8.75406287 7.95113726,8.75414073 C7.74479338,8.75421849 7.53841603,8.67556609 7.38092719,8.51821161 L7.38092719,8.51821161 L5.24961919,6.38840361 C5.09213219,6.23102411 5.01334931,6.02470531 5.01328118,5.81836679 C5.01321314,5.61204477 5.09184818,5.40569805 5.249325,5.24814053 C5.40665434,5.09064999 5.612872,5.01187075 5.8191347,5.01179291 Z" id="Path" fill="#59C9A5" fill-rule="nonzero"></path></g></g></g></g></svg> 