<?xml version="1.0" encoding="UTF-8"?> <svg xmlns="http://www.w3.org/2000/svg" xmlns:xlink="http://www.w3.org/1999/xlink" width="48px" height="45px" viewBox="0 0 48 45" version="1.1"><!-- Generator: Sketch 63.1 (92452) - https://sketch.com --><title>Icon/Ad-Mapper/5</title><desc>Created with Sketch.</desc><defs><polygon id="path-1" points="0 0.0934368 47.999904 0.0934368 47.999904 45.024 0 45.024"></polygon></defs><g id="UI" stroke="none" stroke-width="1" fill="none" fill-rule="evenodd"><g id="Services-Consulting" transform="translate(-828.000000, -1702.000000)"><g id="What-you-can-gain?" transform="translate(222.000000, 1415.000000)"><g id="Icon/What-can-you-gain/16" transform="translate(598.000000, 277.000000)"><g id="Group-10" transform="translate(8.000000, 10.000000)"><g id="Group-3" transform="translate(0.000000, 0.002592)"><mask id="mask-2" fill="white"><use xlink:href="#path-1"></use></mask><g id="Clip-2"></g><path d="M46.272,32.6374368 C46.272,33.7490208 45.367584,34.6534368 44.256,34.6534368 L38.496,34.6534368 C38.019552,34.6534368 37.632,35.0409888 37.632,35.5174368 L37.632,42.0715488 L30.466848,34.9064928 C30.303648,34.7433888 30.086688,34.6534368 29.856,34.6534368 L14.469888,34.6534368 L18.501888,30.6214368 L35.616,30.6214368 C37.68048,30.6214368 39.36,28.9419168 39.36,26.8774368 L39.36,7.5814368 L44.256,7.5814368 C45.367584,7.5814368 46.272,8.4857568 46.272,9.5974368 L46.272,32.6374368 Z M10.368,36.3115488 L10.368,29.7574368 C10.368,29.2809888 9.980352,28.8934368 9.504,28.8934368 L3.744,28.8934368 C2.63232,28.8934368 1.728,27.9890208 1.728,26.8774368 L1.728,3.8374368 C1.728,2.7257568 2.63232,1.8214368 3.744,1.8214368 L35.616,1.8214368 C36.727584,1.8214368 37.632,2.7257568 37.632,3.8374368 L37.632,26.8774368 C37.632,27.9890208 36.727584,28.8934368 35.616,28.8934368 L18.144,28.8934368 C17.913312,28.8934368 17.696352,28.9833888 17.533056,29.1465888 L10.368,36.3115488 Z M47.999904,9.5974368 C47.999904,8.5992288 47.610048,7.6594848 46.901952,6.9514848 C46.193952,6.2433888 45.254112,5.8534368 44.256,5.8534368 L39.36,5.8534368 L39.36,3.8374368 C39.36,1.7729568 37.68048,0.0934368 35.616,0.0934368 L3.744,0.0934368 C1.67952,0.0934368 0,1.7729568 0,3.8374368 L0,26.8774368 C0,28.9419168 1.67952,30.6214368 3.744,30.6214368 L8.64,30.6214368 L8.64,38.3974368 C8.64,38.7573408 8.839104,39.0547488 9.172608,39.1927968 C9.508224,39.3319008 9.860448,39.2628768 10.114848,39.0082848 L12.741888,36.3814368 L29.498112,36.3814368 L37.88496,44.7681888 C38.140032,45.0234528 38.492544,45.0923808 38.827872,44.9537568 C39.160992,44.8157088 39.359904,44.5181088 39.359904,44.1574368 L39.359904,36.3814368 L44.255904,36.3814368 C46.320384,36.3814368 47.999904,34.7019168 47.999904,32.6374368 L47.999904,9.5974368 Z" id="Fill-1" fill="#06092B" mask="url(#mask-2)"></path></g><path d="M26.976,8.7360288 L6.624,8.7360288 C6.147648,8.7360288 5.76,9.1236768 5.76,9.6000288 C5.76,10.0763808 6.147648,10.4640288 6.624,10.4640288 L26.976,10.4640288 C27.452448,10.4640288 27.84,10.0763808 27.84,9.6000288 C27.84,9.1236768 27.452448,8.7360288 26.976,8.7360288" id="Fill-4" fill="#59C9A5"></path><path d="M32.736,14.4960288 L6.624,14.4960288 C6.147648,14.4960288 5.76,14.8836768 5.76,15.3600288 C5.76,15.8363808 6.147648,16.2240288 6.624,16.2240288 L32.736,16.2240288 C33.212448,16.2240288 33.6,15.8363808 33.6,15.3600288 C33.6,14.8836768 33.212448,14.4960288 32.736,14.4960288" id="Fill-6" fill="#59C9A5"></path><path d="M21.216,20.2560288 L6.624,20.2560288 C6.147648,20.2560288 5.76,20.6436768 5.76,21.1200288 C5.76,21.5963808 6.147648,21.9840288 6.624,21.9840288 L21.216,21.9840288 C21.692352,21.9840288 22.08,21.5963808 22.08,21.1200288 C22.08,20.6436768 21.692352,20.2560288 21.216,20.2560288" id="Fill-8" fill="#59C9A5"></path></g></g></g></g></g></svg> 