<?xml version="1.0" encoding="UTF-8"?> <svg xmlns="http://www.w3.org/2000/svg" xmlns:xlink="http://www.w3.org/1999/xlink" width="48px" height="48px" viewBox="0 0 48 48" version="1.1"><!-- Generator: Sketch 63.1 (92452) - https://sketch.com --><title>Icon/Ad-Mapper/5</title><desc>Created with Sketch.</desc><g id="UI" stroke="none" stroke-width="1" fill="none" fill-rule="evenodd"><g id="Products-Ad-Mapper" transform="translate(-828.000000, -1751.000000)"><g id="Icon/What-can-you-gain/5" transform="translate(820.000000, 1743.000000)"><g id="diagram" transform="translate(8.000000, 8.000000)"><path d="M46.59375,46 C46.8698833,46 47.1198813,46.0839526 47.3008472,46.2196771 C47.4818132,46.3554015 47.59375,46.5429 47.59375,46.75 C47.59375,46.9571 47.4818132,47.1445985 47.3008472,47.2803229 C47.1198813,47.4160474 46.8698833,47.5 46.59375,47.5 L46.59375,47.5 L1.40625,47.5 C1.13011667,47.5 0.880118716,47.4160474 0.699152755,47.2803229 C0.518186793,47.1445985 0.40625,46.9571 0.40625,46.75 C0.40625,46.5429 0.518186793,46.3554015 0.699152755,46.2196771 C0.880118716,46.0839526 1.13011667,46 1.40625,46 L1.40625,46 L46.59375,46 Z" id="Path" fill="#06092B" fill-rule="nonzero"></path><path d="M9,34.437875 C9.50832188,34.437875 9.96913599,34.64486 10.3029505,34.9786745 C10.5996745,35.2753985 10.7961875,35.6724679 10.8361938,36.114053 L10.84375,36.281625 L10.84375,46.594125 C10.84375,46.8443708 10.7423062,47.0709308 10.578306,47.234931 C10.4416392,47.3715978 10.2615281,47.4648227 10.0604691,47.4921014 L9.9375,47.500375 L4.3125,47.500375 C4.06225417,47.500375 3.83569419,47.3989312 3.67169402,47.234931 C3.5350272,47.0982642 3.44180229,46.9181531 3.41452362,46.7170941 L3.40625,46.594125 L3.40625,36.281625 C3.40625,35.7733031 3.61323495,35.312489 3.94704948,34.9786745 C4.24377351,34.6819505 4.64084289,34.4854375 5.08242796,34.4454312 L5.25,34.437875 L9,34.437875 Z M9.03125,36.250375 L5.21875,36.250375 L5.21875,45.687875 L9.03125,45.687875 L9.03125,36.250375 Z" id="Shape" fill="#06092B" fill-rule="nonzero"></path><path d="M20.25,31.062875 C20.7583219,31.062875 21.219136,31.26986 21.5529505,31.6036745 C21.8496745,31.9003985 22.0461875,32.2974679 22.0861938,32.739053 L22.09375,32.906625 L22.09375,46.594125 C22.09375,46.8443708 21.9923062,47.0709308 21.828306,47.234931 C21.6916392,47.3715978 21.5115281,47.4648227 21.3104691,47.4921014 L21.1875,47.500375 L15.5625,47.500375 C15.3122542,47.500375 15.0856942,47.3989312 14.921694,47.234931 C14.7850272,47.0982642 14.6918023,46.9181531 14.6645236,46.7170941 L14.65625,46.594125 L14.65625,32.906625 C14.65625,32.3983031 14.863235,31.937489 15.1970495,31.6036745 C15.4937735,31.3069505 15.8908429,31.1104375 16.332428,31.0704312 L16.5,31.062875 L20.25,31.062875 Z M20.28125,32.875375 L16.46875,32.875375 L16.46875,45.687875 L20.28125,45.687875 L20.28125,32.875375 Z" id="Shape" fill="#06092B" fill-rule="nonzero"></path><path d="M31.5,25.906625 C32.0083219,25.906625 32.469136,26.11361 32.8029505,26.4474245 C33.0996745,26.7441485 33.2961875,27.1412179 33.3361938,27.582803 L33.34375,27.750375 L33.34375,46.594125 C33.34375,46.8443708 33.2423062,47.0709308 33.078306,47.234931 C32.9416392,47.3715978 32.7615281,47.4648227 32.5604691,47.4921014 L32.4375,47.500375 L26.8125,47.500375 C26.5622542,47.500375 26.3356942,47.3989312 26.171694,47.234931 C26.0350272,47.0982642 25.9418023,46.9181531 25.9145236,46.7170941 L25.90625,46.594125 L25.90625,27.750375 C25.90625,27.2420531 26.113235,26.781239 26.4470495,26.4474245 C26.7437735,26.1507005 27.1408429,25.9541875 27.582428,25.9141812 L27.75,25.906625 L31.5,25.906625 Z M31.53125,27.719125 L27.71875,27.719125 L27.71875,45.687875 L31.53125,45.687875 L31.53125,27.719125 Z" id="Shape" fill="#06092B" fill-rule="nonzero"></path><path d="M42.75,16.531625 C43.2583219,16.531625 43.719136,16.73861 44.0529505,17.0724245 C44.3496745,17.3691485 44.5461875,17.7662179 44.5861938,18.207803 L44.59375,18.375375 L44.59375,46.594125 C44.59375,46.8443708 44.4923062,47.0709308 44.328306,47.234931 C44.1916392,47.3715978 44.0115281,47.4648227 43.8104691,47.4921014 L43.6875,47.500375 L38.0625,47.500375 C37.8122542,47.500375 37.5856942,47.3989312 37.421694,47.234931 C37.2850272,47.0982642 37.1918023,46.9181531 37.1645236,46.7170941 L37.15625,46.594125 L37.15625,18.375375 C37.15625,17.8670531 37.363235,17.406239 37.6970495,17.0724245 C37.9937735,16.7757005 38.3908429,16.5791875 38.832428,16.5391812 L39,16.531625 L42.75,16.531625 Z M42.78125,18.344125 L38.96875,18.344125 L38.96875,45.687875 L42.78125,45.687875 L42.78125,18.344125 Z" id="Shape" fill="#06092B" fill-rule="nonzero"></path><path d="M43.9677222,0.560237982 C44.1843547,0.477544212 44.4325235,0.477495024 44.6610045,0.579784126 C44.8894238,0.681971723 45.0547879,0.867075134 45.1374928,1.08373666 C45.2202028,1.30041193 45.2202434,1.54864651 45.1180074,1.7771066 C42.0487872,8.63679419 35.8246425,15.5813119 28.0543831,20.8399798 C19.6036604,26.5592401 10.14108,29.716375 1.40625,29.716375 C1.15600417,29.716375 0.92944419,29.6149312 0.765444016,29.450931 C0.601443842,29.2869308 0.5,29.0603708 0.5,28.810125 C0.5,28.5598792 0.601443842,28.3333192 0.765444016,28.169319 C0.92944419,28.0053188 1.15600417,27.903875 1.40625,27.903875 C9.76556639,27.903875 18.870061,24.8671483 27.0384585,19.3389279 C34.5556553,14.2515148 40.537456,7.57674793 43.4636366,1.03682707 C43.5658716,0.808369368 43.7510199,0.642958374 43.9677222,0.560237982 Z" id="Path" fill="#59C9A5" fill-rule="nonzero"></path><path d="M44.0564445,0.531336907 C44.2982289,0.466548973 44.5432976,0.505850006 44.7441192,0.621788912 C44.9449901,0.737756291 45.1015773,0.930379147 45.1663497,1.1720975 L45.1663497,1.1720975 L47.4691289,9.76615223 C47.5338984,10.0078901 47.4945686,10.2529978 47.3786054,10.4538614 C47.2704051,10.6412787 47.0954872,10.7901739 46.8761163,10.8618601 C46.5452508,10.8713817 46.2757356,10.8192286 46.0726306,10.7019604 C45.8880158,10.5953679 45.7712294,10.43223 45.7184623,10.2352131 L45.7184623,10.2352131 L43.6502066,2.51653205 L35.9314679,4.58480318 C35.6897039,4.64961589 35.4446549,4.61033593 35.2438495,4.49440639 C35.042976,4.37843747 34.8863956,4.1857917 34.8216211,3.94403527 C34.7568516,3.70229743 34.7961814,3.45718975 34.9121446,3.25632606 C35.0280942,3.055486 35.2206603,2.89888338 35.4623788,2.83411903 L35.4623788,2.83411903 L44.0564445,0.531336907 Z" id="Path" fill="#59C9A5" fill-rule="nonzero"></path></g></g></g></g></svg> 