<?xml version="1.0" encoding="UTF-8"?> <svg xmlns="http://www.w3.org/2000/svg" xmlns:xlink="http://www.w3.org/1999/xlink" width="48px" height="48px" viewBox="0 0 48 48" version="1.1"><!-- Generator: Sketch 63.1 (92452) - https://sketch.com --><title>Icon/What-can-you-gain/7</title><desc>Created with Sketch.</desc><g id="UI" stroke="none" stroke-width="1" fill="none" fill-rule="evenodd"><g id="Products-Recovery-Tool" transform="translate(-863.000000, -2041.000000)"><g id="Icon/What-can-you-gain/7" transform="translate(855.000000, 2033.000000)"><g id="money-(2)" transform="translate(8.000000, 8.000000)"><path d="M24,0.5 C25.9109534,0.5 27.6436437,1.27753993 28.8986804,2.53254495 C30.1537255,3.78755844 30.9312812,5.52021417 30.9312812,7.43109375 C30.9312812,8.42994345 30.7171996,9.37922876 30.3350907,10.2379467 C30.7262164,11.5255075 30.9312812,12.4845621 30.9312812,13.456125 C30.9312812,14.4549747 30.7171996,15.40426 30.3350907,16.262978 C30.7262164,17.5505387 30.9312812,18.5095933 30.9312812,19.4811562 C30.9312812,21.3921182 30.153734,23.1248154 28.8986966,24.3798529 C27.6436592,25.6348903 25.9109619,26.4124375 24,26.4124375 C22.0890355,26.4124375 20.3563353,25.6349117 19.1012966,24.3799046 C17.8462638,23.1249036 17.0687187,21.3922559 17.0687187,19.4813437 C17.0687187,18.5097808 17.2737836,17.5507262 17.6650836,16.6693174 C17.2828004,15.4044475 17.0687187,14.4551622 17.0687187,13.4563125 C17.0687187,12.4847496 17.2737836,11.525695 17.6650836,10.6442862 C17.2828004,9.37941626 17.0687187,8.43013095 17.0687187,7.43128125 C17.0687187,5.52031931 17.846266,3.78762207 19.1013034,2.53258464 C20.3563408,1.27754721 22.0890381,0.5 24,0.5 Z M29.0182624,18.2293753 C28.7947984,18.4641747 28.5556599,18.6826849 28.3030144,18.8834607 C27.1200068,19.8235894 25.6250883,20.3874063 24,20.3874062 C22.3571452,20.3874062 20.8474244,19.8136489 19.6475622,19.0580591 C19.4163632,18.912466 19.1862815,18.7535805 18.9603923,18.5813314 C18.9082794,18.8733963 18.881125,19.1741665 18.881125,19.4811563 C18.881125,20.8924134 19.4549842,22.1722316 20.3819075,23.099155 C21.3088309,24.0260783 22.5886491,24.5999375 23.9999063,24.5999375 C25.4256524,24.5999375 26.7172523,24.0148131 27.6467796,23.0430955 C28.553125,22.0956121 29.1166545,20.7786792 29.1141017,19.274055 C29.1134803,18.9141538 29.0805154,18.5651015 29.0182624,18.2293753 Z M29.0182624,12.2044378 C28.7947984,12.4392372 28.5556599,12.6577474 28.3030144,12.8585232 C27.1200068,13.7986519 25.6250883,14.3624688 24,14.3624688 C22.3571452,14.3624687 20.8474244,13.7887114 19.6475622,13.0331216 C19.4163632,12.8875285 19.1862815,12.728643 18.9603923,12.5563939 C18.9082794,12.8484588 18.881125,13.149229 18.881125,13.4562188 C18.881125,14.8674759 19.4549842,16.1472941 20.3819075,17.0742175 C21.3088309,18.0011408 22.5886491,18.575 23.9999062,18.575 C25.4256524,18.575 26.7172523,17.9898756 27.6467796,17.018158 C28.553125,16.0706746 29.1166545,14.7537417 29.1141017,13.2491175 C29.1134803,12.8892163 29.0805154,12.540164 29.0182624,12.2044378 Z M24,2.3125 C22.588737,2.3125 21.3089154,2.88634042 20.3819922,3.81324482 C19.4550745,4.74014365 18.8812187,6.01993338 18.8812187,7.4311875 C18.8812187,8.84244464 19.4550779,10.1222628 20.3820013,11.0491862 C21.3089247,11.9761096 22.5887429,12.5499688 24,12.5499688 C25.411263,12.5499688 26.6910846,11.9761283 27.6180078,11.0492239 C28.5449255,10.1223251 29.1187812,8.84253537 29.1187812,7.43128125 C29.1187812,6.02002411 28.5449221,4.7402059 27.6179987,3.81328255 C26.6910753,2.88635919 25.4112571,2.3125 24,2.3125 Z" id="Shape" fill="#59C9A5" fill-rule="nonzero"></path><path d="M42.075,27.2465 C44.0225956,27.2465 45.8537578,28.0046493 47.2325714,29.3821431 C47.501134,29.847484 47.5168194,30.0295814 47.4825598,30.2017429 C47.4551497,30.3394846 47.3957703,30.4708623 47.3067253,30.5842779 L47.2344154,30.6657904 L30.6656338,47.2345719 C30.5240254,47.3762307 30.3403809,47.4661166 30.1440347,47.4921436 L30.0249375,47.5 L4.41871875,47.5 C3.33042318,47.5 2.35554054,47.0608522 1.65046485,46.3557615 C0.988330457,45.6936131 0.563891775,44.7972648 0.506635915,43.8104536 L0.5,43.5811875 L0.5,34.5437812 C0.5,33.4564832 0.939015073,32.4807257 1.64480082,31.7749249 C2.30626721,31.1134445 3.20177285,30.6888839 4.18926717,30.6316073 L4.41871875,30.6249687 L7.43128125,30.6249687 C8.94212866,30.6249687 10.1579935,31.4611351 10.8032905,32.5443359 C10.9208965,32.7417503 11.0222635,32.9519236 11.1052429,33.1716163 C11.2562337,32.9872922 11.4165066,32.8108657 11.5853322,32.6430526 C12.7732094,31.4622994 14.3849537,30.7075186 16.169755,30.6313387 L16.4687813,30.6249687 L27.0124688,30.6249687 C28.0378587,30.6249687 28.9683757,31.0170961 29.665056,31.6579963 C30.6042701,32.5220116 31.1190493,33.8377504 30.867624,35.2537128 L30.8215081,35.4780674 L36.9161471,29.3834284 C38.2942335,28.005342 40.1263583,27.2465 42.075,27.2465 Z M7.4311875,32.4374687 L4.41871875,32.4374687 L4.22667494,32.4460808 C3.72083185,32.4916782 3.26776395,32.7156588 2.92951527,33.0539272 C2.54792625,33.4355385 2.3125,33.9627475 2.3125,34.5437812 L2.3125,34.5437812 L2.3125,43.5811875 L2.3211063,43.7730785 C2.36667528,44.2786085 2.59054437,44.7320846 2.92910099,45.070661 C3.31032372,45.451906 3.83705014,45.6875 4.41871875,45.6875 L4.41871875,45.6875 L9.53740625,45.6875 L9.53740625,34.5437812 L9.5288002,34.3518991 C9.48323248,33.8463874 9.25936808,33.3928903 8.92079436,33.0542969 C8.53959091,32.6730712 8.01288876,32.4374687 7.4311875,32.4374687 L7.4311875,32.4374687 Z M42.0749062,29.059 C40.6104035,29.059 39.2334729,29.629336 38.197683,30.6650228 L38.197683,30.6650228 L30.6656966,38.1970091 L30.5758954,38.2757214 C30.4186096,38.3962239 30.225191,38.4625 30.0249375,38.4625 L30.0249375,38.4625 L19.48125,38.4625 L19.3582809,38.4542264 C19.1572219,38.4269477 18.9771108,38.3337228 18.840444,38.197056 C18.6764438,38.0330558 18.575,37.8064958 18.575,37.55625 C18.575,37.3060042 18.6764438,37.0794442 18.840444,36.915444 C19.0044442,36.7514438 19.2310042,36.65 19.48125,36.65 L19.48125,36.65 L27.0124688,36.65 L27.2039024,36.6413833 C27.7083915,36.5957588 28.162205,36.3716127 28.5012526,36.0325651 C28.8826811,35.6511366 29.1186875,35.1244574 29.1186875,34.5437812 C29.1186875,33.9615571 28.882971,33.4352145 28.5020756,33.0542969 C28.1208722,32.6730712 27.59417,32.4374688 27.0124688,32.4374687 L27.0124688,32.4374687 L16.4687813,32.4374687 L16.2057649,32.4441398 C14.8989253,32.5105803 13.7197732,33.0692607 12.8507825,33.9382513 C11.9238592,34.8651747 11.35,36.1449929 11.35,37.55625 L11.35,37.55625 L11.35,45.6875 L29.6495755,45.6875 L45.2597333,30.0773422 L45.0252035,29.9184244 C44.1520621,29.3591664 43.1366441,29.059 42.0749062,29.059 L42.0749062,29.059 Z" id="Shape" fill="#06092B" fill-rule="nonzero"></path></g></g></g></g></svg> 