<?xml version="1.0" encoding="UTF-8"?> <svg xmlns="http://www.w3.org/2000/svg" xmlns:xlink="http://www.w3.org/1999/xlink" width="48px" height="48px" viewBox="0 0 48 48" version="1.1"><!-- Generator: Sketch 63.1 (92452) - https://sketch.com --><title>Icon/What-can-you-gain/8</title><desc>Created with Sketch.</desc><g id="UI" stroke="none" stroke-width="1" fill="none" fill-rule="evenodd"><g id="Products-CMP" transform="translate(-828.000000, -1713.000000)"><g id="Icon/What-can-you-gain/8" transform="translate(820.000000, 1705.000000)"><g id="location-(4)" transform="translate(8.000000, 8.000000)"><path d="M24,0.5 C27.4662689,0.5 30.6092675,1.91019136 32.8857813,4.18668883 C35.1623005,6.4631917 36.5725,9.60617403 36.5725,13.0724062 C36.5725,16.035463 34.1373559,21.3656084 31.1871837,26.7782303 L30.7410352,27.5904566 L30.2886014,28.4022066 L30.2886014,28.4022066 L29.8313223,29.2117668 L29.3639461,30.0287231 C29.1298182,30.4353996 28.8947661,30.8399311 28.6595894,31.2413391 C28.5275322,31.4667391 28.3945966,31.6925864 28.2612094,31.918685 C28.5183702,31.9403258 28.7780402,31.9646014 29.0399538,31.9914812 C31.0555445,32.1983386 32.909704,32.529226 34.4810816,32.9731404 C36.1457654,33.4433701 37.4054893,34.0105695 38.2444788,34.687147 C38.9833966,35.2830246 39.3803125,35.9605761 39.3803125,36.7364063 C39.3803125,37.5122193 38.9833721,38.1898062 38.2444184,38.785726 C37.4054305,39.4623171 36.1457272,40.0295469 34.4810571,40.4997727 C31.6629218,41.2959769 27.9403793,41.7315625 24,41.7315625 C20.0596149,41.7315625 16.3370675,41.2958814 13.5189304,40.4997692 C11.8542718,40.0295019 10.5945833,39.4622673 9.75561614,38.7856809 C9.01669271,38.1897749 8.61978125,37.5122119 8.61978125,36.7364063 C8.61978125,35.9606048 9.01671253,35.2830474 9.75564871,34.6871549 C10.5946379,34.0105777 11.8543501,33.443364 13.5190427,32.9731318 C15.0904947,32.5291302 16.9443695,32.1980566 18.9599525,31.9912 C19.2219881,31.9643076 19.4817741,31.940026 19.73883,31.918237 C19.6051856,31.6921647 19.4723206,31.4663667 19.3403168,31.2410579 C15.3864772,24.4925034 11.4275,16.8553741 11.4275,13.0724062 C11.4275,9.60617403 12.8376995,6.4631917 15.1142187,4.18668883 C17.3907325,1.91019136 20.5337311,0.5 24,0.5 Z M20.4735957,33.6800095 C18.2755929,33.8382536 16.2366911,34.1434203 14.5348792,34.5768423 C11.7195009,35.2940367 10.7519508,36.1479485 10.5427938,37.0178451 C10.7517916,37.3245918 11.7193211,38.1787717 14.5347917,38.8957843 C17.1195911,39.5542375 20.4809465,39.9189688 23.9999063,39.9189688 C27.5188639,39.9189688 30.8802174,39.5542382 33.4651429,38.8957771 C36.2805544,38.1787796 37.2479942,37.3247211 37.4571125,36.4547799 C37.2481157,36.1480348 36.2804948,35.2939568 33.4650374,34.5768449 C31.7631154,34.1434191 29.7243108,33.8381596 27.0628486,33.9194061 C26.9128691,34.1667834 26.7635445,34.4121024 26.6152491,34.6548016 C26.0538102,35.5733659 25.0762081,36.1218438 23.9999063,36.1218438 C22.923693,36.1218438 21.9460103,35.5734596 21.3845379,34.6547599 C21.2362381,34.412147 21.0870222,34.1668524 20.4735957,33.6800095 Z M24,2.3125 C21.0334256,2.3125 18.3432509,3.51901216 16.3948035,5.46740609 C14.4463617,7.41579451 13.2398125,10.10589 13.2398125,13.0724062 C13.2398125,16.0121995 16.8316225,23.7303185 22.9310003,33.7097204 C23.2620759,34.2514237 23.7890051,34.3095312 23.9999062,34.3095312 C24.2109634,34.3095312 24.7377366,34.2514237 25.0688163,33.7097136 C31.16819,23.7303185 34.76,16.0121046 34.76,13.0724062 C34.76,10.1058776 33.5534877,7.41577326 31.6050805,5.46738386 C29.6566821,3.51900329 26.9665646,2.3125 24,2.3125 Z" id="Shape" fill="#06092B" fill-rule="nonzero"></path><path d="M4.33485384,34.0917831 C4.55425965,33.9712806 4.80166812,33.9510686 5.02436086,34.0158353 C5.24706407,34.080605 5.44503047,34.230352 5.56552614,34.4496548 C5.68603281,34.6690077 5.70623081,34.9164412 5.64145798,35.1391552 C5.57669645,35.3618304 5.42698981,35.559794 5.20761147,35.6802844 C4.31562136,36.1703598 3.61676991,36.690292 3.13823746,37.1984562 C2.57670909,37.7947555 2.3125,38.3885496 2.3125,38.9175937 C2.3125,39.5890657 2.76045197,40.5019437 4.07183581,41.4504086 C5.00091378,42.1223688 6.37636006,42.8286135 8.31536093,43.4873244 C12.4835779,44.9035994 18.0533625,45.6875 24,45.6875 C29.9466375,45.6875 35.5164221,44.9035994 39.6846219,43.4873302 C41.623672,42.8285591 42.9991265,42.1223014 43.9282025,41.4503425 C45.2395597,40.501897 45.6875,39.5890605 45.6875,38.9175937 C45.6875,38.3885428 45.4232843,37.7947403 44.8617434,37.1984476 C44.3832081,36.6902974 43.684357,36.1703917 42.7923272,35.6803444 C42.5730102,35.5598877 42.4233036,35.3619242 42.358542,35.139249 C42.2937692,34.916535 42.3139672,34.6691015 42.4345108,34.4496812 C42.5549369,34.2303952 42.7528755,34.0806959 42.9755441,34.0159362 C43.198266,33.9511611 43.4457238,33.9713652 43.6651056,34.0918546 C44.6710758,34.6444767 45.79127,35.4129526 46.5678715,36.4114504 C47.1222051,37.1241723 47.5,37.9571228 47.5,38.9175937 C47.5,39.9007404 47.0937717,41.1107189 45.7290719,42.32905 C44.6140875,43.3244486 42.884788,44.3144088 40.2677183,45.2035459 C35.9016372,46.6869107 30.123854,47.5 24,47.5 C17.876146,47.5 12.0983628,46.6869107 7.73228078,45.2035456 C5.11521199,44.3144088 3.38591252,43.3244486 2.27092811,42.32905 C0.906228297,41.1107189 0.5,39.9007404 0.5,38.9175937 C0.5,37.95713 0.877789278,37.1241847 1.43211565,36.4114594 C2.20872166,35.412938 3.32892973,34.6444304 4.33485384,34.0917831 Z" id="Path" fill="#06092B" fill-rule="nonzero"></path><path d="M24,7.420625 C25.3107796,7.420625 26.4992606,7.95402704 27.3601272,8.81486285 C28.2209858,9.67569074 28.7544063,10.8641178 28.7544063,12.1748437 C28.7544063,13.4856422 28.2210012,14.6740832 27.3601575,15.5349115 C26.4992885,16.3957651 25.3107943,16.9291563 24,16.9291563 C22.6892166,16.9291563 21.5007324,16.3957508 20.6398656,15.5348995 C19.77901,14.6740592 19.2455938,13.4856107 19.2455938,12.1748437 C19.2455938,10.8641178 19.7790142,9.67569074 20.6398728,8.81486285 C21.5007394,7.95402704 22.6892204,7.420625 24,7.420625 Z M24,9.233125 C23.1889373,9.233125 22.4533405,9.56283194 21.9205906,10.0955409 C21.3878287,10.6282619 21.0580938,11.3638209 21.0580938,12.1748437 C21.0580938,12.9859095 21.3878244,13.7214829 21.9205735,14.2542115 C22.4533255,14.7869431 23.188929,15.1166563 24,15.1166563 C24.8110575,15.1166563 25.5466524,14.78693 26.0794034,14.2541994 C26.6121695,13.7214539 26.9419062,12.9858665 26.9419062,12.1748437 C26.9419062,11.3638209 26.6121713,10.6282619 26.0794094,10.0955409 C25.5466595,9.56283194 24.8110627,9.233125 24,9.233125 Z" id="Shape" fill="#59C9A5" fill-rule="nonzero"></path></g></g></g></g></svg> 