<?xml version="1.0" encoding="UTF-8"?> <svg xmlns="http://www.w3.org/2000/svg" xmlns:xlink="http://www.w3.org/1999/xlink" width="48px" height="48px" viewBox="0 0 48 48" version="1.1"><!-- Generator: Sketch 63.1 (92452) - https://sketch.com --><title>Icon/What-can-you-gain/9</title><desc>Created with Sketch.</desc><g id="UI" stroke="none" stroke-width="1" fill="none" fill-rule="evenodd"><g id="Products-CMP" transform="translate(-238.000000, -1713.000000)"><g id="Icon/What-can-you-gain/9" transform="translate(230.000000, 1705.000000)"><g id="check-box" transform="translate(8.000000, 8.000000)"><path d="M16,0.546783626 C16.2494889,0.546783626 16.4753636,0.647920633 16.6388677,0.811424736 C16.7751211,0.947678155 16.868064,1.12724447 16.8952602,1.32769523 L16.9035088,1.4502924 L16.9035088,16.0467836 C16.9035088,16.2962811 16.8023871,16.5221669 16.6388798,16.6856743 C16.5026327,16.8219214 16.3230687,16.9148526 16.1226061,16.942045 L16,16.9502924 L1.40350877,16.9502924 C1.15401988,16.9502924 0.928145213,16.8491554 0.76464111,16.6856513 C0.628387691,16.5493979 0.535444755,16.3698316 0.508248594,16.1693808 L0.5,16.0467836 L0.5,1.4502924 C0.5,1.20080351 0.601137007,0.974928839 0.76464111,0.811424736 C0.900894529,0.675171316 1.08046084,0.582228381 1.28091161,0.555032219 L1.40350877,0.546783626 L16,0.546783626 Z M15.02,2.35380117 L2.30701754,2.35380117 L2.30701754,15.1432749 L15.0964912,15.1432749 L15.0964912,5.60762909 L9.33025524,11.1208042 L9.2389083,11.1973813 C9.08049085,11.3133806 8.89314939,11.3712515 8.70596491,11.3712515 C8.47446889,11.3712515 8.2432142,11.2828209 8.0669569,11.1065636 L5.42032612,8.45974566 L5.33946419,8.36720598 C5.21694382,8.20620748 5.15567251,8.01349478 5.15567251,7.82078363 C5.15567251,7.58955208 5.24388826,7.35832963 5.42031362,7.18190427 C5.59668097,7.00559715 5.82790932,6.91743939 6.05913231,6.91745029 C6.29039143,6.91746119 6.52165527,7.00566439 6.69810932,7.18205819 L8.72122628,9.20540104 L15.0187743,3.14129638 L15.02,2.35380117 Z" id="Shape" fill="#59C9A5" fill-rule="nonzero"></path><path d="M20.4800568,35.6670144 L18.6491016,34.6129892 C17.6037544,34.0700374 16.4839287,33.8272293 15.3806253,33.8711322 C13.8422143,33.932349 12.3225254,34.5369306 10.6094333,36.116857 L20.8200861,45.8978151 C21.2681756,46.2763302 21.7313186,46.498106 22.5860496,46.5456065 L35.1136322,46.5187062 C35.7102849,46.4344045 36.2645879,46.1609719 36.7020431,45.7235167 C37.1560773,45.2694825 37.4568869,44.6966626 37.5248601,43.7814136 L37.5158959,35.2824013 C37.4768506,34.7818559 37.3134388,34.3271726 37.0525794,33.9405125 C36.8131412,33.5856039 36.4999894,33.2709133 35.831455,32.9404474 L26.2160974,28.4180818 L26.209241,20.6145734 C26.1589314,19.9231064 25.8576521,19.2998583 25.3950606,18.8372669 C24.8872963,18.3295025 24.1860736,18.0156725 23.4131462,18.0156725 C22.6402188,18.0156725 21.9389961,18.3295025 21.4312318,18.8372669 C20.9912327,19.277266 20.6743295,19.8572302 20.6099583,20.7780446 L20.4800568,35.6670144 Z" id="Path" stroke="#06092B" stroke-width="2" stroke-linejoin="round" fill-rule="nonzero"></path><path d="M46.5964912,0.546783626 C46.8459801,0.546783626 47.0718548,0.647920633 47.2353589,0.811424736 C47.3716123,0.947678155 47.4645552,1.12724447 47.4917514,1.32769523 L47.5,1.4502924 L47.5,16.0467836 C47.5,16.2962725 47.398863,16.5221472 47.2353589,16.6856513 C47.0991055,16.8219047 46.9195392,16.9148476 46.7190884,16.9420438 L46.5964912,16.9502924 L32,16.9502924 C31.7505111,16.9502924 31.5246364,16.8491554 31.3611323,16.6856513 C31.2248789,16.5493979 31.131936,16.3698316 31.1047398,16.1693808 L31.0964912,16.0467836 L31.0964912,1.4502924 C31.0964912,1.20080351 31.1976282,0.974928839 31.3611323,0.811424736 C31.4973858,0.675171316 31.6769521,0.582228381 31.8774028,0.555032219 L32,0.546783626 L46.5964912,0.546783626 Z M45.6929825,2.35380117 L32.9035088,2.35380117 L32.9035088,15.1432749 L45.6929825,15.1432749 L45.6929825,2.35380117 Z" id="Shape" fill="#06092B" fill-rule="nonzero"></path></g></g></g></g></svg> 