<?xml version="1.0" encoding="UTF-8"?> <svg xmlns="http://www.w3.org/2000/svg" xmlns:xlink="http://www.w3.org/1999/xlink" width="66px" height="66px" viewBox="0 0 66 66" version="1.1"><!-- Generator: Sketch 63.1 (92452) - https://sketch.com --><title>Icon/Ad-mapper</title><desc>Created with Sketch.</desc><defs><polygon id="path-1" points="0 0 64.9999871 0 64.9999871 64.9919721 0 64.9919721"></polygon></defs><g id="UI" stroke="none" stroke-width="1" fill="none" fill-rule="evenodd"><g id="Products" transform="translate(-277.000000, -520.000000)"><g id="Post" transform="translate(222.000000, 490.000000)"><g id="Icon/Ad-mapper-2" transform="translate(48.000000, 23.000000)"><g id="Ad-mapper-icon"><rect id="Background" x="0" y="0" width="80" height="80"></rect><g id="Icon" transform="translate(7.500000, 7.500000)"><mask id="mask-2" fill="white"><use xlink:href="#path-1"></use></mask><g id="Clip-2"></g><path d="M46.207749,36.0105179 L58.4647809,36.0105179 L58.4647809,27.1465637 L46.207749,27.1465637 L46.207749,36.0105179 Z M45.550239,37.3256673 L59.1222908,37.3256673 C59.4849701,37.3256673 59.7799303,37.0307072 59.7799303,36.6680279 L59.7799303,26.4889243 C59.7799303,26.1263745 59.4849701,25.8314143 59.1222908,25.8314143 L45.550239,25.8314143 C45.1875598,25.8314143 44.8924701,26.1263745 44.8924701,26.4889243 L44.8924701,36.6680279 C44.8924701,37.0307072 45.1875598,37.3256673 45.550239,37.3256673 L45.550239,37.3256673 Z" id="Fill-1" fill="#A6E1FA" mask="url(#mask-2)"></path><path d="M6.53521912,41.2304582 L29.2323904,41.2304582 L29.2323904,15.9234462 L6.53521912,15.9234462 L6.53521912,41.2304582 Z M5.22006972,15.2658068 L5.22006972,41.8880976 C5.22006972,42.2506474 5.51502988,42.5457371 5.87770916,42.5457371 L29.8899004,42.5457371 C30.2525797,42.5457371 30.5475398,42.2506474 30.5475398,41.8880976 L30.5475398,15.2658068 C30.5475398,14.9031275 30.2525797,14.6081673 29.8899004,14.6081673 L5.87770916,14.6081673 C5.51502988,14.6081673 5.22006972,14.9031275 5.22006972,15.2658068 L5.22006972,15.2658068 Z" id="Fill-3" fill="#59C9A5" mask="url(#mask-2)"></path><path d="M46.207749,20.6112151 L58.4647809,20.6112151 L58.4647809,11.7473904 L46.207749,11.7473904 L46.207749,20.6112151 Z M59.1222908,10.4321116 L45.550239,10.4321116 C45.1875598,10.4321116 44.8924701,10.7270717 44.8924701,11.089751 L44.8924701,21.2688546 C44.8924701,21.6314044 45.1875598,21.9263645 45.550239,21.9263645 L59.1222908,21.9263645 C59.4849701,21.9263645 59.7799303,21.6314044 59.7799303,21.2688546 L59.7799303,11.089751 C59.7799303,10.7270717 59.4849701,10.4321116 59.1222908,10.4321116 L59.1222908,10.4321116 Z" id="Fill-4" fill="#06092B" mask="url(#mask-2)"></path><path d="M33.1549333,64.3344492 C33.1549333,63.9717699 32.8599731,63.6768098 32.4974233,63.6768098 C32.134744,63.6768098 31.8397839,63.9717699 31.8397839,64.3344492 C31.8397839,64.696999 32.134744,64.9919592 32.4974233,64.9919592 C32.8599731,64.9919592 33.1549333,64.696999 33.1549333,64.3344492" id="Fill-5" fill="#A6E1FA" mask="url(#mask-2)"></path><path d="M4.57264641,51.6706235 C2.77647112,51.6706235 1.31513645,50.2094183 1.31513645,48.413243 L1.31513645,47.7658327 L63.6847082,47.7658327 L63.6847082,48.413243 C63.6847082,50.2094183 62.223503,51.6706235 60.4273277,51.6706235 L4.57264641,51.6706235 Z M1.31513645,13.9607829 C1.31513645,12.1646076 2.77647112,10.7032729 4.57264641,10.7032729 L39.6725169,10.7032729 L39.6725169,14.6081932 L35.1100867,14.6081932 C34.7474074,14.6081932 34.4524472,14.9031534 34.4524472,15.2658327 L34.4524472,41.8881235 C34.4524472,42.2506733 34.7474074,42.5456335 35.1100867,42.5456335 L60.4273277,42.5456335 C61.2288217,42.5456335 62.0189213,42.3331534 62.7126863,41.9308526 L63.6847082,41.3670876 L63.6847082,46.4506833 L1.31513645,46.4506833 L1.31513645,13.9607829 Z M40.2872978,40.2583327 L40.8511922,41.2304841 L35.7675966,41.2304841 L35.7675966,15.9234721 L39.6725169,15.9234721 L39.6725169,37.9731036 C39.6725169,38.7744681 39.8851265,39.5646972 40.2872978,40.2583327 L40.2872978,40.2583327 Z M40.9876663,4.56465737 C40.9876663,2.82364143 42.351242,1.39597211 44.0918695,1.31426892 L44.1295488,1.31245618 L44.1670986,1.31504582 C45.3874671,1.39998606 46.4058436,2.2453745 46.7010627,3.41861155 C47.1618894,5.24884064 48.8094193,6.52721713 50.7076265,6.52721713 L53.965007,6.52721713 C55.8632141,6.52721713 57.510744,5.24884064 57.9714412,3.41861155 C58.2669193,2.2453745 59.2851663,1.39998606 60.5054054,1.31504582 L60.5430847,1.31245618 L60.5807639,1.31426892 C62.321262,1.39597211 63.6847082,2.82364143 63.6847082,4.56465737 L63.6847082,37.9731036 C63.6847082,39.7692789 62.223503,41.2304841 60.4273277,41.2304841 L44.2451763,41.2304841 C42.4488715,41.2304841 40.9876663,39.7692789 40.9876663,37.9731036 L40.9876663,4.56465737 Z M57.4944293,1.30714741 L57.0154751,2.24835259 C56.8767998,2.52039442 56.7694592,2.80616135 56.6961723,3.09723705 C56.3826962,4.34246614 55.2596982,5.21206773 53.965007,5.21206773 L50.7076265,5.21206773 C49.4129353,5.21206773 48.2898078,4.34246614 47.9764612,3.09736653 C47.9031743,2.80616135 47.7957042,2.52039442 47.6571584,2.24835259 L47.1782042,1.30714741 L57.4944293,1.30714741 Z M64.9999871,48.413243 L64.9999871,4.56465737 C64.9999871,2.18736653 63.1470986,0.188033865 60.7791305,0.00701792829 C60.1817002,-0.00256374502 44.4843297,-0.00230478088 43.8903954,0.00727689243 C41.5241106,0.189717131 39.6725169,2.1890498 39.6725169,4.56465737 L39.6725169,9.38812351 L4.57264641,9.38812351 C2.05124203,9.38812351 -1.29482072e-05,11.4393785 -1.29482072e-05,13.9607829 L-1.29482072e-05,48.413243 C-1.29482072e-05,50.9345179 2.05124203,52.9857729 4.57264641,52.9857729 L24.7973576,52.9857729 L24.0673376,58.8267092 C23.9953456,59.3438606 23.6625767,59.756261 23.2184532,59.8867789 C22.6776066,60.0456534 21.6496484,60.4711315 20.8411624,61.536251 C20.226511,62.3465498 19.901511,63.3141693 19.901511,64.334488 C19.901511,64.6970378 20.1964711,64.991998 20.5591504,64.991998 L26.6248675,64.991998 C26.9874173,64.991998 27.282507,64.6970378 27.282507,64.334488 C27.282507,63.9718088 26.9874173,63.6768486 26.6248675,63.6768486 L21.0975369,63.6768486 L21.6389014,62.7124661 C22.0522082,61.9763606 22.7613815,61.4070279 23.5846285,61.1506534 C24.5583337,60.8474064 25.227238,60.0362012 25.3740707,58.9806633 L26.123254,52.9857729 L38.8765906,52.9857729 L39.6270687,58.9895976 C39.696989,59.4874562 40.0135727,60.7146873 41.4150867,61.1505239 C42.2384631,61.4066394 42.9476365,61.9761016 43.3610727,62.7124661 L43.9024373,63.6768486 L38.3700568,63.6768486 C38.0073775,63.6768486 37.7122878,63.9718088 37.7122878,64.334488 C37.7122878,64.6970378 38.0073775,64.991998 38.3700568,64.991998 L44.4408237,64.991998 C44.7571484,64.991998 45.0984631,64.7405438 45.0984631,64.334488 C45.0984631,63.3214203 44.7730747,62.3530239 44.1571285,61.5340498 C43.5748476,60.759747 42.7088715,60.1594681 41.7813914,59.8867789 C41.3340309,59.7552251 41.001262,59.340494 40.9332839,58.8303347 L40.2026165,52.9857729 L60.4273277,52.9857729 C62.9487321,52.9857729 64.9999871,50.9345179 64.9999871,48.413243 L64.9999871,48.413243 Z" id="Fill-6" fill="#06092B" mask="url(#mask-2)"></path></g></g></g></g></g></g></svg> 