<?xml version="1.0" encoding="UTF-8"?> <svg xmlns="http://www.w3.org/2000/svg" xmlns:xlink="http://www.w3.org/1999/xlink" width="66px" height="66px" viewBox="0 0 66 66" version="1.1"><!-- Generator: Sketch 63.1 (92452) - https://sketch.com --><title>Icon/Ad-mapper</title><desc>Created with Sketch.</desc><defs><polygon id="path-1" points="0 65 65 65 65 0 0 0"></polygon></defs><g id="UI" stroke="none" stroke-width="1" fill="none" fill-rule="evenodd"><g id="Products" transform="translate(-865.000000, -520.000000)"><g id="Post" transform="translate(810.000000, 490.000000)"><g id="Icon/Ad-revenue-index-2" transform="translate(48.000000, 23.000000)"><g id="Ad-revenue-index-icon"><rect id="Background" x="0" y="0" width="80" height="80"></rect><g id="Icon" transform="translate(7.500000, 7.500000)"><path d="M53.2171315,40.9163347 C53.5741135,40.9163347 53.8645418,40.6259064 53.8645418,40.2689243 C53.8645418,39.9119422 53.5741135,39.6215139 53.2171315,39.6215139 C52.8601494,39.6215139 52.5697211,39.9119422 52.5697211,40.2689243 C52.5697211,40.6259064 52.8601494,40.9163347 53.2171315,40.9163347" id="Fill-1" fill="#FFFFFF"></path><mask id="mask-2" fill="white"><use xlink:href="#path-1"></use></mask><g id="Clip-4"></g><path d="M7.25099602,63.7051793 L13.7250996,63.7051793 L13.7250996,51.2749004 L7.25099602,51.2749004 L7.25099602,63.7051793 Z M22.7888446,63.7051793 L29.2629482,63.7051793 L29.2629482,46.0956175 L22.7888446,46.0956175 L22.7888446,63.7051793 Z M38.3266932,63.7051793 L44.8007968,63.7051793 L44.8007968,38.3266932 L38.3266932,38.3266932 L38.3266932,63.7051793 Z M0.647410359,65 L64.3525896,65 C64.7095717,65 65,64.7095717 65,64.3525896 C65,63.9956076 64.7095717,63.7051793 64.3525896,63.7051793 L61.6334661,63.7051793 L61.6334661,27.3207171 C61.6334661,26.9637351 61.3430378,26.6733068 60.9860558,26.6733068 L53.2171315,26.6733068 C52.8601494,26.6733068 52.5697211,26.9637351 52.5697211,27.3207171 L52.5697211,35.0896414 C52.5697211,35.4466235 52.8601494,35.7370518 53.2171315,35.7370518 C53.5741135,35.7370518 53.8645418,35.4466235 53.8645418,35.0896414 L53.8645418,27.9681275 L60.3386454,27.9681275 L60.3386454,63.7051793 L53.8645418,63.7051793 L53.8645418,45.4482072 C53.8645418,45.0912251 53.5741135,44.8007968 53.2171315,44.8007968 C52.8601494,44.8007968 52.5697211,45.0912251 52.5697211,45.4482072 L52.5697211,63.7051793 L46.0956175,63.7051793 L46.0956175,37.6792829 C46.0956175,37.3223008 45.8051892,37.0318725 45.4482072,37.0318725 L37.6792829,37.0318725 C37.3223008,37.0318725 37.0318725,37.3223008 37.0318725,37.6792829 L37.0318725,63.7051793 L30.5577689,63.7051793 L30.5577689,45.4482072 C30.5577689,45.0912251 30.2673406,44.8007968 29.9103586,44.8007968 L22.1414343,44.8007968 C21.7844522,44.8007968 21.4940239,45.0912251 21.4940239,45.4482072 L21.4940239,63.7051793 L15.0199203,63.7051793 L15.0199203,50.62749 C15.0199203,50.270508 14.729492,49.9800797 14.37251,49.9800797 L6.60358566,49.9800797 C6.24660359,49.9800797 5.9561753,50.270508 5.9561753,50.62749 L5.9561753,63.7051793 L1.29482072,63.7051793 L1.29482072,0.647410359 C1.29482072,0.290428287 1.00439243,0 0.647410359,0 C0.290428287,0 0,0.290428287 0,0.647410359 L0,64.3525896 C0,64.7095717 0.290428287,65 0.647410359,65 L0.647410359,65 Z" id="Fill-3" fill="#06092B" mask="url(#mask-2)"></path><path d="M49.6848865,11.5125229 L55.2623267,8.49248307 L54.3321275,14.7667958 L49.6848865,11.5125229 Z M11.1497271,41.6426125 C11.1854641,41.8114572 11.2849064,41.9563476 11.4296673,42.0506106 C11.5746873,42.1451325 11.7475458,42.177244 11.9170378,42.141248 C20.0785518,40.4116265 27.6993486,37.1207102 34.5679841,32.3600428 C41.2654442,27.7178516 46.9239402,21.9107102 51.3864104,15.0995647 L51.7521972,14.5411086 L54.4473665,16.4283098 C54.7138406,16.6146345 54.975006,16.534744 55.0748367,16.491756 C55.1745378,16.4487679 55.4116195,16.3142361 55.4592689,15.9927321 L56.7333725,7.40133765 C56.769498,7.15713446 56.6664303,6.91785159 56.4644382,6.77658665 C56.2619283,6.6346743 56.0015398,6.61991335 55.7847869,6.73735359 L48.1467689,10.872752 C47.8608725,11.0274831 47.8154243,11.2966763 47.8092092,11.4053118 C47.802994,11.5138177 47.8172371,11.786248 48.0834522,11.9728317 L50.6903147,13.797752 L50.3467988,14.3228018 C41.487247,27.8628715 27.382247,37.5406205 11.648492,40.8745249 L11.6488805,40.8743954 C11.2996673,40.9485886 11.0757928,41.2932699 11.1497271,41.6426125 L11.1497271,41.6426125 Z" id="Fill-5" fill="#59C9A5" mask="url(#mask-2)"></path></g></g></g></g></g></g></svg> 