<?xml version="1.0" encoding="UTF-8"?> <svg xmlns="http://www.w3.org/2000/svg" xmlns:xlink="http://www.w3.org/1999/xlink" width="48px" height="48px" viewBox="0 0 48 48" version="1.1"><!-- Generator: Sketch 63.1 (92452) - https://sketch.com --><title>Icon/What-can-you-gain/13</title><desc>Created with Sketch.</desc><g id="UI" stroke="none" stroke-width="1" fill="none" fill-rule="evenodd"><g id="Products-Recovery-Tool" transform="translate(-273.000000, -2041.000000)"><g id="Icon/What-can-you-gain/13" transform="translate(265.000000, 2033.000000)"><g id="ads-(1)" transform="translate(8.000000, 8.000000)"><path d="M46.59375,0.5 C46.8439958,0.5 47.0705558,0.601443842 47.234556,0.765444016 C47.3712228,0.902110827 47.4644477,1.08222195 47.4917264,1.28328088 L47.5,1.40625 L47.5,37.03125 C47.5,37.2814958 47.3985562,37.5080558 47.234556,37.672056 C47.0978892,37.8087228 46.9177781,37.9019477 46.7167191,37.9292264 L46.59375,37.9375 L29.7929418,37.9375 L30.5467713,41.7066473 C30.7665601,42.8056438 31.3626383,43.75423 32.1843456,44.4278751 C32.942846,45.0497024 33.8933647,45.4370674 34.916616,45.4929825 L35.173875,45.5 L39,45.5 C39.2502458,45.5 39.4768058,45.6014438 39.640806,45.765444 C39.8048062,45.9294442 39.90625,46.1560042 39.90625,46.40625 C39.90625,46.6564958 39.8048062,46.8830558 39.640806,47.047056 C39.5041392,47.1837228 39.3240281,47.2769477 39.1229691,47.3042264 L39,47.3125 L9,47.3125 C8.74975417,47.3125 8.52319419,47.2110562 8.35919402,47.047056 C8.19519384,46.8830558 8.09375,46.6564958 8.09375,46.40625 C8.09375,46.1560042 8.19519384,45.9294442 8.35919402,45.765444 C8.49586083,45.6287772 8.67597195,45.5355523 8.87703088,45.5082736 L9,45.5 L12.826125,45.5 C13.9468716,45.5 14.9939002,45.1015297 15.8155934,44.4278962 C16.5740873,43.8060743 17.1403415,42.9499794 17.395884,41.9575443 L17.4532278,41.7066518 L18.2070582,37.9375 L1.40625,37.9375 C1.15600417,37.9375 0.92944419,37.8360562 0.765444016,37.672056 C0.628777204,37.5353892 0.53555229,37.3552781 0.508273619,37.1542191 L0.5,37.03125 L0.5,1.40625 C0.5,1.15600417 0.601443842,0.92944419 0.765444016,0.765444016 C0.902110827,0.628777204 1.08222195,0.53555229 1.28328088,0.508273619 L1.40625,0.5 L46.59375,0.5 Z M27.9445643,37.9375 L20.0554458,37.9375 L19.2304919,42.0620622 L19.1663336,42.3489227 C18.861389,43.5805987 18.209544,44.6618762 17.33285,45.5 L17.33285,45.5 L30.6670564,45.5 L30.4687894,45.3023128 C29.6274097,44.42733 29.0202672,43.3163264 28.7694153,42.0620669 L28.7694153,42.0620669 L27.9445643,37.9375 Z M45.6875,32.3125 L2.3125,32.3125 L2.3125,36.125 L45.6875,36.125 L45.6875,32.3125 Z M45.6875,2.3125 L2.3125,2.3125 L2.3125,30.5 L45.6875,30.5 L45.6875,2.3125 Z" id="Shape" fill="#06092B" fill-rule="nonzero"></path><path d="M31.0446563,8.93740625 C32.8907818,8.93740625 34.4369662,9.66993266 35.5196166,10.9563519 C36.6292683,12.2748543 37.2511563,14.1598343 37.2511563,16.4061563 C37.2511563,18.382871 36.6927318,20.2150703 35.6626188,21.5594581 C34.557776,23.0016304 32.962323,23.8145865 31.169192,23.8459208 C30.8320469,23.8518398 30.332479,23.85689 29.8056853,23.8610445 C28.6716662,23.86911 27.9488101,23.8724919 27.5903392,23.8740434 C27.1673862,23.8747077 26.9033387,23.7983029 26.7155508,23.6119179 C26.5901371,23.4874539 26.5059517,23.3299127 26.469677,23.1597746 L26.4515588,23.030129 L26.4212131,9.84528078 C26.4207334,9.60466 26.5160927,9.37372207 26.6861486,9.20336404 C26.8277614,9.0614492 27.0116254,8.97136618 27.2082203,8.94528059 L27.3274688,8.93740625 L31.0446563,8.93740625 Z M28.2355535,10.75 C28.2374616,11.8177674 28.2405319,13.6169417 28.2422018,14.9774678 L28.2422018,14.9774678 L28.2430567,15.779706 L28.2437379,16.9253291 L28.2443236,17.3294655 C28.2464478,18.5990824 28.2517093,20.3460456 28.2556589,21.557193 C28.2561759,21.7157159 28.2567302,21.8834179 28.2573171,22.0580273 C28.4274433,22.057387 28.5960669,22.0564852 28.7585214,22.0555543 C28.9258158,22.0545956 29.0996516,22.0535311 29.2750626,22.0523647 L29.2750626,22.0523647 L29.801055,22.048564 C30.3218406,22.0444656 30.8121071,22.0394864 31.1377673,22.0337345 C32.7083442,22.0063028 33.6837171,21.1625203 34.2240798,20.4571212 C34.9990491,19.4455866 35.43875,18.0101824 35.43875,16.40625 C35.43875,14.9217311 35.0879441,13.3887127 34.2704805,12.3062661 C33.5644935,11.3714316 32.5203829,10.75 31.04475,10.75 L31.04475,10.75 L28.2355535,10.75 Z" id="Shape" fill="#59C9A5" fill-rule="nonzero"></path><path d="M16.8570938,8.9375 C17.1034404,8.9375 17.3354751,9.01022181 17.5294215,9.14016943 C17.6830633,9.24311229 17.8126566,9.38180094 17.9062255,9.54776966 L17.9694604,9.67722892 L22.8653648,22.6488035 C22.9537189,22.8829041 22.9388067,23.130657 22.8432792,23.3419806 C22.747735,23.5533414 22.5715507,23.72826 22.3373781,23.8166601 C21.8318199,23.8753828 21.651493,23.817762 21.5009657,23.7136399 C21.3840719,23.6327826 21.2853058,23.5237424 21.215926,23.3918391 L21.169577,23.2887079 L20.1746006,20.65225 L13.506957,20.65225 L12.5018308,23.2913338 C12.4127501,23.5252459 12.23734,23.7009881 12.0256579,23.7959039 C11.8141343,23.8907485 11.5664146,23.9048513 11.3324689,23.8156946 C11.0986082,23.7266034 10.9229828,23.551151 10.8280869,23.3395022 C10.7490105,23.163136 10.7259914,22.9616331 10.7720457,22.7640354 L10.8080711,22.6461777 L15.7341937,9.71188476 C15.8371244,9.4619912 15.9914257,9.27228155 16.1865589,9.14114764 C16.3803595,9.01090914 16.6123435,8.93773162 16.8570938,8.9375 Z M16.8560495,11.8588547 L14.1972816,18.83975 L19.4905518,18.83975 L16.8560495,11.8588547 Z" id="Shape" fill="#59C9A5" fill-rule="nonzero"></path></g></g></g></g></svg> 