<?xml version="1.0" encoding="UTF-8"?> <svg xmlns="http://www.w3.org/2000/svg" xmlns:xlink="http://www.w3.org/1999/xlink" width="47px" height="48px" viewBox="0 0 47 48" version="1.1"><!-- Generator: Sketch 63.1 (92452) - https://sketch.com --><title>Icon/Revenue-booster Copy 2</title><desc>Created with Sketch.</desc><defs><polygon id="path-1" points="0 0.0932104208 46.1660537 0.0932104208 46.1660537 47.8076152 0 47.8076152"></polygon></defs><g id="UI" stroke="none" stroke-width="1" fill="none" fill-rule="evenodd"><g id="About-us" transform="translate(-629.000000, -3651.000000)"><g id="Icon/Why-us-3" transform="translate(620.000000, 3643.000000)"><g id="Group-3" transform="translate(9.000000, 8.002982)"><mask id="mask-2" fill="white"><use xlink:href="#path-1"></use></mask><g id="Clip-2"></g><path d="M34.2340617,41.3077707 L33.785709,40.9829291 C33.4786629,40.7605323 33.1415086,40.586424 32.7832882,40.465414 L32.2600978,40.2887086 L32.2600978,32.3335984 L32.7832882,32.156893 C33.1415086,32.035883 33.4786629,31.8618709 33.785709,31.639378 L34.2340617,31.3145363 L38.9520096,34.6855984 L38.7907912,35.2145603 C38.5721459,35.9320593 38.5721459,36.6904401 38.7907912,37.4076505 L38.9521058,37.9367086 L34.2340617,41.3077707 Z M31.5809796,46.4480994 C30.2514084,46.4480994 29.1697251,45.3663198 29.1697251,44.0367487 C29.1697251,42.7072737 30.2514084,41.6255904 31.5809796,41.6255904 C32.9104545,41.6255904 33.9921379,42.7072737 33.9921379,44.0367487 C33.9921379,45.3663198 32.9104545,46.4480994 31.5809796,46.4480994 L31.5809796,46.4480994 Z M29.1697251,28.5856545 C29.1697251,27.2561796 30.2514084,26.1744962 31.5809796,26.1744962 C32.9104545,26.1744962 33.9921379,27.2561796 33.9921379,28.5856545 C33.9921379,29.9151295 32.9104545,30.996909 31.5809796,30.996909 C30.2514084,30.996909 29.1697251,29.9151295 29.1697251,28.5856545 L29.1697251,28.5856545 Z M28.0096449,27.3834421 L27.8329395,27.9067287 L22.9893643,27.9067287 L22.9893643,5.31354228 L28.2681138,9.71203527 L28.0673603,10.227915 C27.6923062,11.1917627 27.7276088,12.2404521 28.1669194,13.1809251 C28.6077691,14.1246685 29.39318,14.8277387 30.3786709,15.1605643 L30.9018613,15.3373659 L30.9018613,24.837422 L30.3786709,25.0142236 C29.2698613,25.388893 28.3843142,26.2745363 28.0096449,27.3834421 L28.0096449,27.3834421 Z M31.5809796,9.17826373 C32.9104545,9.17826373 33.9921379,10.2599471 33.9921379,11.5895182 C33.9921379,12.9189932 32.9104545,14.0006766 31.5809796,14.0006766 C30.2514084,14.0006766 29.1697251,12.9189932 29.1697251,11.5895182 C29.1697251,10.2599471 30.2514084,9.17826373 31.5809796,9.17826373 L31.5809796,9.17826373 Z M35.1869435,10.4928289 L35.0256289,9.96386693 L39.7436729,6.592901 L40.1920257,6.91764649 C40.4991679,7.14013948 40.8364184,7.3142477 41.1943503,7.43516152 L41.7177331,7.61186693 L41.7177331,15.5670733 L41.1943503,15.7437788 C40.199721,16.0796826 39.4104625,16.7910253 38.9721138,17.7466966 C38.5350156,18.6995784 38.5102942,19.7572136 38.9022782,20.7247166 L39.1102461,21.2378068 L33.9830958,25.6321635 L33.5078092,25.3480112 C33.280699,25.2122838 33.0369475,25.1000273 32.7833844,25.014416 L32.2600016,24.8377106 L32.2600016,15.3375583 L32.7832882,15.1607567 C34.728683,14.5036665 35.7844906,12.4533259 35.1869435,10.4928289 L35.1869435,10.4928289 Z M42.3966589,1.45266854 C43.7262301,1.45266854 44.8079134,2.5343519 44.8079134,3.86392305 C44.8079134,5.19349419 43.7262301,6.27517756 42.3966589,6.27517756 C41.067184,6.27517756 39.9855006,5.19349419 39.9855006,3.86392305 C39.9855006,2.5343519 41.067184,1.45266854 42.3966589,1.45266854 L42.3966589,1.45266854 Z M44.8079134,19.3150172 C44.8079134,20.6445884 43.7262301,21.7262717 42.3966589,21.7262717 C41.067184,21.7262717 39.9855006,20.6445884 39.9855006,19.3150172 C39.9855006,17.9854461 41.067184,16.9037627 42.3966589,16.9037627 C43.7262301,16.9037627 44.8079134,17.9854461 44.8079134,19.3150172 L44.8079134,19.3150172 Z M21.631224,15.4338469 L20.3569635,14.3262878 C18.9689074,13.1199391 17.1932922,12.4556345 15.3572681,12.4556345 C14.9828874,12.4556345 14.6782461,12.7601796 14.6782461,13.1345603 C14.6782461,13.5089411 14.9828874,13.8135824 15.3572681,13.8135824 C18.8168273,13.8135824 21.631224,16.6280754 21.631224,20.0875383 L21.631224,22.4681074 L20.4573884,21.7431054 C19.621188,21.2266485 18.6589756,20.9536545 17.6749275,20.9536545 C17.3005467,20.9536545 16.9959054,21.2582958 16.9959054,21.6326766 C16.9959054,22.0071535 17.3005467,22.3116986 17.6749275,22.3116986 C19.8564745,22.3116986 21.631224,24.0865443 21.631224,26.2679952 C21.631224,28.4495423 19.8564745,30.2242918 17.6749275,30.2242918 C17.3005467,30.2242918 16.9959054,30.5289331 16.9959054,30.90341 C16.9959054,31.2777908 17.3005467,31.5823359 17.6749275,31.5823359 C18.6589756,31.5823359 19.621188,31.3094381 20.4572922,30.792885 L21.631224,30.067883 L21.631224,45.8174621 L21.1814285,46.0230253 C20.5546389,46.3091976 19.8903343,46.4517547 19.2270878,46.4517547 C18.4484104,46.4517547 17.6710798,46.2554261 16.9573323,45.8650774 C15.631705,45.1402677 14.7504866,43.8754341 14.5394405,42.3950333 C14.4913443,42.0547046 14.1875687,41.7967166 13.8446429,41.8121074 L13.8150156,41.8126846 C12.4403303,41.8126846 11.1353844,41.2157146 10.2347351,40.1748168 C9.32302365,39.1210293 8.93344449,37.7658709 9.13785331,36.3587687 C9.18893146,35.9904481 8.93103968,35.6448289 8.56223808,35.5934621 C6.1771479,35.2526525 4.44799359,33.28042 4.44799359,30.90341 C4.44799359,30.1594581 4.59593747,29.7092778 4.70396152,29.3804922 C4.79101563,29.1154822 4.81487134,29.031891 4.78562886,28.869903 C4.74388136,28.637887 4.5829515,28.440885 4.36555671,28.3558509 C2.55396553,27.6477788 1.37320401,25.9325723 1.35746159,23.9863118 C1.34184529,22.0125403 2.49913587,20.308396 4.37786934,19.5391455 C4.71906373,19.3985122 4.88461082,19.0163399 4.75311583,18.6697587 C4.23925611,17.3172938 4.37296353,15.8240032 5.12028216,14.5732136 C5.8676008,13.3225202 7.11925611,12.4972858 8.5543503,12.3090373 C8.73615391,12.2847968 8.89804569,12.1900473 9.00866693,12.0425844 C9.11919198,11.8951214 9.16497956,11.7147607 9.13746854,11.5347848 C8.93036633,10.1663519 9.32821804,8.78147014 10.2288673,7.73431984 C11.1287471,6.68803527 12.4347511,6.08789098 13.8121299,6.08789098 C14.2662541,6.08789098 14.4821098,5.80325772 14.532707,5.53680481 C14.8405226,3.92500521 15.7441539,2.65853627 17.0770918,1.97008737 C18.342695,1.31636393 19.8770597,1.28183086 21.1814285,1.87764649 L21.631224,2.08311343 L21.631224,15.4338469 Z M42.3966589,33.8999952 C43.7262301,33.8999952 44.8079134,34.9816786 44.8079134,36.3112497 C44.8079134,37.6408208 43.7262301,38.7225042 42.3966589,38.7225042 C41.067184,38.7225042 39.9855006,37.6408208 39.9855006,36.3112497 C39.9855006,34.9816786 41.067184,33.8999952 42.3966589,33.8999952 L42.3966589,33.8999952 Z M40.1921218,39.3651655 C41.3557611,40.207907 42.8212521,40.3176625 44.1121539,39.6589371 C45.3982461,39.0025202 46.1660537,37.7510573 46.1660537,36.3113459 C46.1660537,34.8718269 45.3984385,33.6205563 44.1128273,32.9644281 C42.8212521,32.3051255 41.3555687,32.4147848 40.1921218,33.2576224 L39.7437691,33.5823679 L35.0257251,30.211402 L35.1870397,29.6823439 C35.4373323,28.8612457 35.397701,27.9710814 35.0754565,27.1759551 L34.8674886,26.6628649 L39.9947351,22.2685082 L40.4699255,22.5525643 C41.642703,23.2537106 43.0577892,23.266408 44.2554806,22.5870012 C45.4517291,21.9083639 46.1660537,20.6851816 46.1660537,19.3150172 C46.1660537,17.6975423 45.1342942,16.2623519 43.5989675,15.7437788 L43.075681,15.5669772 L43.075681,7.61196313 L43.5989675,7.43516152 C45.1342942,6.91658838 46.1660537,5.481398 46.1660537,3.86392305 C46.1660537,1.78559038 44.4750878,0.0947206413 42.3966589,0.0947206413 C41.1923303,0.0947206413 40.0883303,0.652540281 39.3679455,1.62523768 C38.6503503,2.59418357 38.4400737,3.80976673 38.790695,4.96051623 L38.9519134,5.48957435 L34.2339655,8.86054028 L33.7856128,8.5356986 C32.5478092,7.63899319 30.908691,7.57743006 29.609709,8.37890501 L29.1383663,8.6695022 L22.9893643,3.54591102 L22.9893643,3.18547816 C22.9893643,2.98472465 22.9935968,2.79849619 22.9977331,2.61842405 C23.0199535,1.6501515 22.9922501,1.38215952 22.6863583,1.17813547 L22.675681,1.17092104 C21.6453643,0.45890501 20.4565226,0.0931815631 19.2470958,0.0931815631 C18.5936609,0.0931815631 17.9345507,0.199858918 17.2907351,0.416291784 C15.445188,1.03702124 14.0398172,2.44941403 13.4349595,4.2914982 L13.2891319,4.73561844 L12.8277932,4.81093707 C10.0028152,5.27217956 7.85984128,7.68266453 7.73238637,10.5425603 L7.70901162,11.0668088 L7.21227415,11.2364922 C5.86596553,11.696388 4.71463888,12.6257026 3.9703022,13.8531174 C3.21307575,15.1017908 2.93152064,16.5833459 3.17738838,18.024885 L3.26386533,18.5320112 L2.82830621,18.8057747 C1.05721202,19.918913 -3.84769539e-05,21.8426645 -3.84769539e-05,23.9517788 C-3.84769539e-05,26.0597387 1.05740441,27.9828168 2.8284986,29.0957627 L3.26396152,29.3694301 L3.17767695,29.8764601 C2.93190541,31.3195383 3.21403768,32.8018629 3.97184128,34.0502477 C4.71617796,35.2763158 5.86702365,36.2046685 7.21237034,36.6643719 L7.70901162,36.8339591 L7.73248257,37.3582076 C7.85993747,40.2180072 10.0029114,42.6284922 12.8279856,43.0898309 L13.2892281,43.1652457 L13.4350557,43.6092697 C14.0399134,45.4514501 15.4450918,46.8639391 17.2902541,47.4844762 C19.125701,48.1015503 21.088699,47.8267287 22.6757772,46.7298469 L22.6862621,46.7227287 C22.8556569,46.6097026 22.967721,46.4219351 22.9858052,46.220412 C22.9862862,46.2156024 22.9867671,46.2110814 22.9871519,46.2069451 C22.9903263,46.0413018 22.9902301,45.0012697 22.9898453,40.1598108 L22.9894605,29.2647727 L27.8330357,29.2647727 L28.0097411,29.7879631 C28.3843142,30.8969651 29.2699575,31.7826084 30.3787671,32.1570854 L30.9019575,32.3337908 L30.9019575,40.288901 L30.3787671,40.4656064 C28.8433443,40.9842758 27.8117772,42.4194661 27.8117772,44.0368449 C27.8117772,46.1152737 29.5026469,47.8061435 31.5810758,47.8061435 C32.7854044,47.8061435 33.8894044,47.2482277 34.6097892,46.2756265 C35.3273844,45.3065844 35.5378533,44.0910012 35.1870397,42.9402517 L35.0258212,42.4112898 L39.7437691,39.0403238 L40.1921218,39.3651655 Z" id="Fill-1" fill="#06092B" mask="url(#mask-2)"></path></g></g></g></g></svg> 