<?xml version="1.0" encoding="UTF-8"?> <svg xmlns="http://www.w3.org/2000/svg" xmlns:xlink="http://www.w3.org/1999/xlink" width="66px" height="66px" viewBox="0 0 66 66" version="1.1"><!-- Generator: Sketch 63.1 (92452) - https://sketch.com --><title>Icon/Ad-mapper</title><desc>Created with Sketch.</desc><defs><polygon id="path-1" points="9.10460062e-06 0.00762425447 64.8707753 0.00762425447 64.8707753 42.5568181 9.10460062e-06 42.5568181"></polygon></defs><g id="UI" stroke="none" stroke-width="1" fill="none" fill-rule="evenodd"><g id="Products" transform="translate(-277.000000, -1082.000000)"><g id="Post" transform="translate(222.000000, 1052.000000)"><g id="Icon/CMP-2" transform="translate(48.000000, 23.000000)"><g id="CMP-icon"><rect id="Background" x="0" y="0" width="80" height="80"></rect><g id="Icon" transform="translate(7.500000, 7.500000)"><g id="Group-3" transform="translate(0.000000, 0.121600)"><mask id="mask-2" fill="white"><use xlink:href="#path-1"></use></mask><g id="Clip-2"></g><path d="M38.6365298,30.7699791 C41.1332793,30.7699791 43.1644324,28.738826 43.1644324,26.2420765 C43.1644324,23.7454563 41.1332793,21.714174 38.6365298,21.714174 C36.5707445,21.714174 34.7675437,23.1112217 34.2514205,25.1114901 L34.1264602,25.5962117 L28.1615795,25.5962117 L28.2581103,24.8655755 C28.9424841,19.6806948 33.4043529,15.7706153 38.6365298,15.7706153 C44.4105457,15.7706153 49.1081203,20.4681899 49.1081203,26.2422058 C49.1081203,32.0163509 44.4105457,36.7137962 38.6365298,36.7137962 C33.4043529,36.7137962 28.9426133,32.8038459 28.2581103,27.6189652 L28.1615795,26.8881998 L34.1264602,26.8881998 L34.2514205,27.3729215 C34.7675437,29.3730606 36.5707445,30.7699791 38.6365298,30.7699791 L38.6365298,30.7699791 Z M38.6365298,25.5960825 L35.2746213,25.5960825 L35.8361024,24.6263807 C36.4146412,23.626828 37.4877227,23.0059036 38.6365298,23.0059036 C40.4208638,23.0059036 41.8725736,24.4576133 41.8725736,26.2419473 C41.8725736,28.0264105 40.4208638,29.4779911 38.6365298,29.4779911 C37.4875934,29.4779911 36.4145119,28.8570666 35.8359732,27.8575139 L35.2747505,26.8878121 L38.6365298,26.8878121 C38.992673,26.8878121 39.2825239,26.5979612 39.2825239,26.2418181 C39.2825239,25.8858042 38.992673,25.5960825 38.6365298,25.5960825 L38.6365298,25.5960825 Z M8.7988161,29.6015298 L2.20577435,29.6015298 L5.10841849,26.6988857 C5.36040656,26.4470268 5.36027734,26.0371262 5.10841849,25.7851382 L2.20577435,22.882494 L8.7988161,22.882494 L12.1582694,26.2419473 L8.7988161,29.6015298 Z M57.1781998,7.70040656 C52.2175239,2.73960139 45.6326233,0.00753379722 38.6365298,0.00753379722 C32.1480308,0.00753379722 25.9159135,2.40503877 21.0882097,6.75822962 C16.2963012,11.0792435 13.2689553,16.9665895 12.5639056,23.3358141 L12.4158141,24.6726431 L9.52312028,21.7799493 C9.40113221,21.6579612 9.23882604,21.5906352 9.06644036,21.5906352 L0.646420477,21.5906352 C0.384223658,21.5906352 0.149939364,21.7472555 0.0495318091,21.9894225 C-0.0507465209,22.2315895 0.00417395626,22.5077425 0.189611332,22.6933091 L3.73837873,26.2419473 L0.189482107,29.7907147 C0.00417395626,29.9760229 -0.0508757455,30.2524344 0.0495318091,30.4946014 C0.149810139,30.7367684 0.384094433,30.8932594 0.646291252,30.8932594 L9.06644036,30.8932594 C9.23882604,30.8932594 9.40113221,30.8260626 9.5232495,30.7039453 L12.4154264,27.8117684 L12.5637763,29.1482097 C12.9766491,32.8691044 14.2073847,36.523836 16.1230109,39.717494 C16.3062515,40.0228519 16.7036173,40.1222256 17.0093628,39.9392435 C17.3145915,39.7561322 17.4140944,39.3583787 17.2309831,39.0528917 C15.1571859,35.5957445 13.9475139,31.6244125 13.7326133,27.5681799 L13.6965596,26.8878121 L19.6414105,26.8878121 L19.6806948,27.4920666 C19.898826,30.8455755 21.0060229,34.0867883 22.8827525,36.8648598 C23.0821461,37.1601382 23.4848101,37.2379314 23.7797008,37.0385378 C23.922494,36.942007 24.0192833,36.7954662 24.0521064,36.6260527 C24.0849294,36.4566392 24.0497803,36.2846412 23.9532495,36.1417187 C22.2371461,33.6016789 21.2090348,30.6419175 20.9799195,27.5823946 L20.9279712,26.8879414 L26.8766988,26.8879414 L26.9369175,27.4672555 C27.4079414,31.9996809 30.5044225,35.8872753 34.8256948,37.3715497 L35.4621262,37.5900686 L36.1256948,37.7349294 C36.9484682,37.9145517 37.793339,38.0056551 38.636659,38.0056551 C45.1229612,38.0056551 50.4001083,32.7286372 50.4001083,26.2422058 C50.4001083,19.7559036 45.1229612,14.4787565 38.636659,14.4787565 C35.7135974,14.4787565 32.9092932,15.5626928 30.7402575,17.5307843 C28.5862117,19.4854364 27.2354264,22.1441044 26.9367883,25.0170268 L26.8765696,25.596341 L20.9277127,25.596341 L20.9799195,24.9017584 C21.3137068,20.4650885 23.3002773,16.341659 26.5735378,13.2907942 C29.8638559,10.2240348 34.1479115,8.53519781 38.6365298,8.53519781 C48.4002276,8.53519781 56.343667,16.4786372 56.343667,26.242335 C56.343667,30.9720865 54.501828,35.418836 51.157494,38.7630408 C50.905506,39.0150288 50.905506,39.4249294 51.157494,39.6767883 C51.2794821,39.7987763 51.441659,39.8661024 51.614174,39.8661024 C51.7865596,39.8661024 51.9488658,39.7987763 52.0708539,39.6767883 C55.6592932,36.0883489 57.6355258,31.3172455 57.6355258,26.2424642 C57.6355258,15.7664801 49.1126431,7.24346819 38.6365298,7.24346819 C28.655993,7.24346819 20.3291441,15.0397207 19.679661,24.9924742 L19.6403767,25.5964702 L13.693329,25.5964702 L13.7291243,24.9164901 C14.0645915,18.5450686 16.806997,12.6016392 21.4512018,8.18060537 C26.112335,3.74341849 32.2154861,1.29978032 38.6364006,1.29978032 C45.2883688,1.29978032 51.5490447,3.8970666 56.2652276,8.61337873 C60.9814105,13.3295616 63.578826,19.5903668 63.578826,26.242335 C63.578826,31.8297505 61.7734284,37.1107744 58.3578917,41.5148797 C58.2520567,41.6512117 58.2057942,41.8206252 58.227504,41.9917187 C58.2490845,42.1629414 58.3360527,42.3154264 58.4723847,42.4211322 C58.5868777,42.5100388 58.723339,42.5568181 58.8674245,42.5568181 C59.0690149,42.5568181 59.2554861,42.4655855 59.3788956,42.3065099 C62.9715994,37.6740646 64.8708141,32.1190845 64.8708141,26.2424642 C64.8708141,19.2462416 62.139005,12.6612117 57.1781998,7.70040656 L57.1781998,7.70040656 Z" id="Fill-1" fill="#06092B" mask="url(#mask-2)"></path></g><path d="M34.3695318,63.5114612 L12.7917286,57.9036282 L12.7917286,45.7248509 L28.6859732,41.6323062 L28.6859732,52.5029423 C28.6859732,52.8590855 28.9758241,53.1489364 29.3319672,53.1489364 C29.6881103,53.1489364 29.9779612,52.8590855 29.9779612,52.5029423 L29.9779612,41.2995527 L34.3695318,40.168837 L34.3695318,63.5114612 Z M13.5360626,63.7007753 L9.50632107,63.7007753 L7.67624155,59.0492048 L11.7057247,59.0492048 L13.5360626,63.7007753 Z M5.19060529,56.2202187 L5.19060529,47.4074851 C5.19047614,46.997326 5.35045626,46.611332 5.6410825,46.320835 C5.93157952,46.030338 6.31744433,45.8702286 6.72760338,45.8702286 L11.4996113,45.8702286 L11.4996113,57.7574751 L6.7277326,57.7574751 C5.88014811,57.7574751 5.19060529,57.0679324 5.19060529,56.2202187 L5.19060529,56.2202187 Z M3.89874652,55.2286779 L2.9309831,54.6732704 C1.92018787,54.0931809 1.29228529,53.0123459 1.29228529,51.8525547 C1.29228529,50.6927634 1.92018787,49.6117992 2.93111233,49.031839 L3.89874652,48.4765606 L3.89874652,55.2286779 Z M35.6612614,64.3466402 L35.6612614,39.3354672 C35.6612614,39.1813022 35.6044026,39.0310139 35.5008936,38.9125149 L35.2381799,38.611163 L12.0638062,44.5782406 L6.7277326,44.5782406 C5.34825944,44.5782406 4.17632107,45.5644831 3.94113221,46.9232803 L3.86902485,47.3395129 L3.45886581,47.4405666 C1.42267296,47.941829 0.000426441352,49.7561431 0.000426441352,51.8524254 C0.000426441352,53.955169 1.42784195,55.7706461 3.47165905,56.2673857 L3.87264314,56.3648211 L3.95289165,56.7698111 C4.1581004,57.8072266 4.95024751,58.6611431 5.97073459,58.9450497 L6.28100298,59.0313718 L8.4654165,64.5828628 C8.56336879,64.8316203 8.799333,64.9923757 9.06669881,64.9923757 L14.4847008,64.9923757 C14.6984384,64.9923757 14.8980905,64.8867992 15.0186571,64.7098907 C15.1389652,64.5332406 15.1640348,64.3089066 15.0857247,64.1097714 L13.2115795,59.3475845 L34.852832,64.9719583 C35.0434384,65.0210636 35.2545915,64.978161 35.4103072,64.8577237 C35.5698996,64.7343141 35.6612614,64.5479722 35.6612614,64.3466402 L35.6612614,64.3466402 Z" id="Fill-4" fill="#59C9A5"></path><path d="M56.0407127,45.7681928 C56.2057326,45.7681928 56.3627406,45.7060358 56.4827903,45.5932227 L56.491836,45.5846938 C56.7493807,45.3429145 56.7625616,44.9352107 56.52117,44.6757276 L56.5209115,44.6754692 C56.3944006,44.5392664 56.2217565,44.4703897 56.0484662,44.4703897 C55.8909414,44.4703897 55.7330288,44.5272485 55.608327,44.6421292 L55.5910109,44.6584115 C55.3365676,44.9022584 55.3277803,45.3120298 55.574341,45.5691869 C55.6972336,45.697507 55.8630288,45.7681928 56.0407127,45.7681928" id="Fill-6" fill="#06092B"></path><path d="M48.4374702,61.6652157 C51.0571123,59.0457028 52.4999056,55.5566372 52.4999056,51.8412992 C52.4999056,48.1257028 51.0571123,44.6368956 48.437341,42.0171243 C48.3113469,41.8911302 48.1459394,41.8281978 47.9805318,41.8281978 C47.8151243,41.8281978 47.6497167,41.8911302 47.5238519,42.0171243 C47.271993,42.2688539 47.271993,42.6787545 47.5239811,42.9306133 C52.4371024,47.8438638 52.4371024,55.8384761 47.5238519,60.7518559 C47.4018638,60.8738439 47.3347962,61.0360209 47.3347962,61.208665 C47.3347962,61.3811799 47.4018638,61.5433569 47.5238519,61.6652157 C47.6459692,61.787333 47.8081461,61.854659 47.980661,61.854659 C48.1530467,61.854659 48.3152237,61.787333 48.4374702,61.6652157" id="Fill-8" fill="#59C9A5"></path><path d="M45.1449553,58.3728946 C48.7463171,54.7714036 48.7463171,48.9110656 45.1449553,45.3094453 C45.0190905,45.1837097 44.8536829,45.1206481 44.6882753,45.1206481 C44.5228678,45.1206481 44.3572018,45.1837097 44.2312078,45.3097038 C43.9794781,45.5613042 43.9794781,45.9712048 44.231337,46.2230636 C45.729826,47.7215527 46.5550547,49.7169105 46.5550547,51.8412346 C46.5550547,53.9658171 45.729826,55.9610457 44.231337,57.4594056 C43.9794781,57.7112644 43.9794781,58.121165 44.2314662,58.3730239 C44.3534543,58.4948827 44.5156312,58.5622087 44.6881461,58.5622087 C44.8605318,58.5622087 45.022838,58.4948827 45.1449553,58.3728946" id="Fill-10" fill="#59C9A5"></path><path d="M41.2167326,55.0909115 C41.3891183,55.0909115 41.5514245,55.0235855 41.6735417,54.9015974 C43.3610865,53.2140527 43.3610865,50.4682873 41.673671,48.7807425 C41.5478062,48.655007 41.3822694,48.5920746 41.2168618,48.5920746 C41.051325,48.5920746 40.8857883,48.655007 40.7597942,48.781001 C40.5081938,49.0326014 40.5081938,49.442502 40.7600527,49.6943608 C41.3326471,50.2670845 41.6480845,51.0293807 41.6480845,51.8412992 C41.6480845,52.6529592 41.3326471,53.4152555 40.7600527,53.9879791 C40.5081938,54.239838 40.5081938,54.6497386 40.7600527,54.9015974 C40.88217,55.0235855 41.0443469,55.0909115 41.2167326,55.0909115" id="Fill-12" fill="#59C9A5"></path><path d="M29.7880527,56.9130567 C29.6694245,56.7944284 29.4985895,56.7236133 29.3312435,56.7236133 C29.1638976,56.7236133 28.9933211,56.7944284 28.8746928,56.9130567 C28.7561938,57.0315557 28.6852495,57.2023907 28.6852495,57.3696074 C28.6852495,57.5369533 28.7560646,57.7075298 28.8746928,57.8260288 C28.9933211,57.9447863 29.1640268,58.0156014 29.3312435,58.0156014 C29.4985895,58.0156014 29.6692952,57.9447863 29.7879235,57.8261581 C29.9087485,57.7061083 29.9772376,57.5401839 29.9772376,57.3696074 C29.9772376,57.1992893 29.9086193,57.0332356 29.7889573,56.9139612 L29.7880527,56.9130567 Z" id="Fill-14" fill="#59C9A5"></path></g></g></g></g></g></g></svg> 