<?xml version="1.0" encoding="UTF-8"?> <svg xmlns="http://www.w3.org/2000/svg" xmlns:xlink="http://www.w3.org/1999/xlink" width="34px" height="29px" viewBox="0 0 34 29" version="1.1"><!-- Generator: Sketch 63.1 (92452) - https://sketch.com --><title>Icon/Health Copy</title><desc>Created with Sketch.</desc><defs><polygon id="path-1" points="0 0 34 0 34 28.4914424 0 28.4914424"></polygon></defs><g id="UI" stroke="none" stroke-width="1" fill="none" fill-rule="evenodd"><g id="Careers" transform="translate(-617.000000, -1673.000000)"><g id="Icon/Language" transform="translate(614.000000, 1667.000000)"><g id="Group-3" transform="translate(3.000000, 6.000000)"><mask id="mask-2" fill="white"><use xlink:href="#path-1"></use></mask><g id="Clip-2"></g><path d="M32.776,9.0609864 L21.281824,9.0609864 L28.883272,1.4598104 L29.12678,1.5473944 C31.309512,2.3323184 32.776,4.4158384 32.776,6.7319864 L32.776,9.0609864 Z M32.776,14.6698984 L19.804456,14.6698984 C19.466972,14.6698984 19.192456,14.9444144 19.192456,15.2818984 L19.192456,23.7282464 L14.807544,23.7282464 L14.807544,15.2818984 C14.807544,14.9444144 14.533028,14.6698984 14.195544,14.6698984 L1.224,14.6698984 L1.224,10.2849864 L14.195544,10.2849864 C14.533028,10.2849864 14.807544,10.0104024 14.807544,9.6729864 L14.807544,1.2239864 L19.192456,1.2239864 L19.192456,9.6729864 C19.192456,10.0104024 19.466972,10.2849864 19.804456,10.2849864 L32.776,10.2849864 L32.776,14.6698984 Z M32.776,18.2202464 C32.776,20.5374824 31.30856,22.6214104 29.124468,23.4056544 L28.881028,23.4931024 L21.281824,15.8938984 L32.776,15.8938984 L32.776,18.2202464 Z M20.416456,23.7282464 L20.416456,16.7595384 L27.385232,23.7282464 L20.416456,23.7282464 Z M13.583544,23.7706104 L13.451556,23.8919224 C13.422928,23.9182384 13.401508,23.9406104 13.386072,23.9603304 L13.385188,23.9614864 L11.075976,26.8908584 L8.767104,23.9614184 C8.65028,23.8133144 8.474976,23.7282464 8.286412,23.7282464 L6.614768,23.7282464 L13.583544,16.7595384 L13.583544,23.7706104 Z M4.875532,23.4056544 C2.69144,22.6214104 1.224,20.5374824 1.224,18.2202464 L1.224,15.8938984 L12.718176,15.8938984 L5.118972,23.4931024 L4.875532,23.4056544 Z M1.224,6.7319864 C1.224,4.4158384 2.690488,2.3323184 4.87322,1.5473944 L5.116796,1.4598104 L12.718244,9.0609864 L1.224,9.0609864 L1.224,6.7319864 Z M13.583544,1.2239864 L13.583544,8.1956184 L6.611844,1.2239864 L13.583544,1.2239864 Z M20.416456,1.2239864 L27.388156,1.2239864 L20.416456,8.1956184 L20.416456,1.2239864 Z M34,6.7319864 C34,3.0199344 30.980052,-1.36e-05 27.268,-1.36e-05 L6.732,-1.36e-05 C3.019948,-1.36e-05 0,3.0199344 0,6.7319864 L0,18.2202464 C0,21.9322984 3.019948,24.9522464 6.732,24.9522464 L7.989524,24.9522464 L10.595352,28.2582704 C10.712176,28.4063744 10.887412,28.4914424 11.076044,28.4914424 C11.264744,28.4914424 11.439912,28.4065104 11.556668,28.2583384 L14.162564,24.9522464 L27.268,24.9522464 C30.980052,24.9522464 34,21.9322984 34,18.2202464 L34,6.7319864 Z" id="Fill-1" stroke="#06092B" stroke-width="0.2" fill="#06092B" mask="url(#mask-2)"></path></g></g></g></g></svg> 