<?xml version="1.0" encoding="UTF-8"?> <svg xmlns="http://www.w3.org/2000/svg" xmlns:xlink="http://www.w3.org/1999/xlink" width="47px" height="48px" viewBox="0 0 47 48" version="1.1"><!-- Generator: Sketch 63.1 (92452) - https://sketch.com --><title>Icon/Revenue-booster Copy</title><desc>Created with Sketch.</desc><defs><polygon id="path-1" points="1.87166229e-05 0.935906553 46.9759159 0.935906553 46.9759159 50.9359066 1.87166229e-05 50.9359066"></polygon></defs><g id="UI" stroke="none" stroke-width="1" fill="none" fill-rule="evenodd"><g id="About-us-(Mobile)" transform="translate(-31.000000, -4114.000000)"><g id="Icon/Why-us-2" transform="translate(24.000000, 4108.000000)"><g id="Group-13" transform="translate(7.000000, 3.000000)"><g id="Group-3" transform="translate(0.000000, 0.042620)"><mask id="mask-2" fill="white"><use xlink:href="#path-1"></use></mask><g id="Clip-2"></g><path d="M46.0401971,44.0114112 L38.1652716,44.0114112 L38.0529718,43.7038971 C37.8513938,43.1512888 37.588706,42.6182393 37.2723015,42.1199093 L37.1636515,41.9489329 L38.7210617,35.8781027 L42.1152277,36.6890004 C44.4261691,37.2410472 46.0401971,39.286119 46.0401971,41.6621007 L46.0401971,44.0114112 Z M37.6182783,50.0003562 L24.6292228,50.0003562 L34.2534038,40.3761751 L34.5759848,40.6072318 C36.4810563,41.9708314 37.6182783,44.1903421 37.6182783,46.5443317 L37.6182783,50.0003562 Z M27.1068357,38.2673732 L32.010123,39.438753 C32.2379979,39.4932184 32.4736401,39.5623763 32.7108733,39.6444487 L33.4174259,39.8888878 L24.3698104,48.9365969 L27.1068357,38.2673732 Z M20.6844137,37.6357808 L20.6844137,34.9460149 L21.2852173,35.1239164 C22.7160096,35.5477543 24.2693957,35.5467249 25.6987842,35.1215768 L26.3000557,34.9426459 L26.3000557,37.6465428 L26.2853631,37.7038157 L23.4937788,48.5854731 L20.6844137,37.6357808 Z M13.5710676,39.8779386 L14.2800533,39.6345289 C14.5096127,39.5557319 14.7386106,39.4887264 14.9606833,39.4354776 L19.8778209,38.2572662 L22.6136296,48.9205006 L13.5710676,39.8779386 Z M9.35767507,50.0003562 L9.35767507,46.5401205 C9.35767507,44.180703 10.4993891,41.9579169 12.4115728,40.5941302 L12.7341538,40.3641965 L22.3701264,50.0003562 L9.35767507,50.0003562 Z M8.80955877,44.0115983 L0.935756277,44.0115983 L0.935756277,41.6621943 C0.935756277,39.286119 2.54978425,37.2410472 4.86072568,36.689094 L8.25479807,35.8781963 L9.81155317,41.9463126 L9.70299676,42.1171954 C9.3863115,42.6160869 9.12343653,43.149885 8.92157776,43.7038971 L8.80955877,44.0115983 Z M6.17603635,28.4388066 L6.17603635,25.9462204 L6.63955351,25.941822 C8.06753826,25.9280652 9.47811654,25.5513932 10.7189351,24.8524209 L10.9484944,24.7230891 L11.178241,24.8524209 C12.4187787,25.5513932 13.8294506,25.9280652 15.2575289,25.941822 L15.7210461,25.9462204 L15.7210461,28.4388066 C15.7210461,30.8919944 13.725199,32.8877479 11.2721048,32.8877479 L10.624884,32.8877479 C8.17178984,32.8877479 6.17603635,30.8919944 6.17603635,28.4388066 L6.17603635,28.4388066 Z M6.17631704,24.297941 C6.17612993,23.1113071 6.63936635,21.9945798 7.48049138,21.1534547 C8.32161641,20.3123297 9.43834371,19.8490933 10.6249776,19.8490933 L11.2721984,19.8490933 C13.7253862,19.8490933 15.7212333,21.8448468 15.7212333,24.297941 L15.7212333,25.0116058 L15.2475155,25.0058036 C13.807365,24.98821 12.4094204,24.5623133 11.2049122,23.7741563 C11.0491899,23.6722443 10.8482669,23.6721507 10.6928254,23.7740627 C9.48803635,24.5624068 8.09009179,24.9883972 6.64984766,25.0058036 L6.17631704,25.0115122 L6.17631704,24.297941 Z M11.6034826,40.0274844 L11.4822925,40.124998 C11.337613,40.241509 11.2134282,40.3471643 11.102813,40.4479533 L10.5277447,40.9719252 L9.0615781,35.256898 L9.0615781,33.6217202 L9.6169003,33.727282 C9.95202143,33.7910121 10.2911666,33.8233918 10.624884,33.8233918 L11.2721048,33.8233918 C11.603857,33.8233918 11.9411305,33.7913864 12.2744736,33.7283114 L12.8294214,33.6234047 L12.8294214,35.2494113 L11.6034826,40.0274844 Z M13.6361079,35.871084 L17.0398193,36.6866608 C17.2894055,36.7463668 17.5386173,36.8268483 17.7805297,36.9255785 L19.1260677,37.4750986 L14.7426346,38.525569 C14.3716712,38.6143794 13.9976195,38.7326684 13.6307737,38.8769736 L12.7786058,39.2123755 L13.6361079,35.871084 Z M15.8286667,31.3022627 L16.2573709,30.6229429 L16.6368505,31.3309928 C17.3059697,32.5795787 18.3030978,33.6234983 19.5206141,34.349984 L19.7487698,34.4861475 L19.7487698,36.9603914 L19.0341691,36.5171818 C18.4852105,36.1766328 17.8875888,35.9275146 17.2579616,35.7767522 L13.765159,34.9396512 L13.765159,33.2166925 L13.9954671,33.080997 C14.7358031,32.6448061 15.3696415,32.0297779 15.8286667,31.3022627 L15.8286667,31.3022627 Z M16.6567837,22.8093144 C16.6567837,19.042594 19.7212563,15.9782149 23.4879767,15.9782149 C27.254697,15.9782149 30.3191697,19.0426876 30.3191697,22.809408 L30.3191697,23.5305594 L29.3746353,23.5305594 C28.3072263,23.5305594 27.315526,23.000879 26.7220219,22.1136175 L26.1638922,21.279324 L26.4316335,21.0076523 C26.7063,20.7290553 26.9665546,20.438199 27.2050044,20.143225 C27.2835206,20.0460858 27.3195501,19.9240534 27.3062613,19.7998686 C27.2931597,19.6755902 27.2323307,19.5639455 27.1350978,19.4853357 C27.0379585,19.4067259 26.9163005,19.3706028 26.7917414,19.3838916 C26.667463,19.3970869 26.5557247,19.4578223 26.4771149,19.5551487 C24.4355993,22.0815185 21.4016347,23.5304658 18.1532712,23.5304658 L16.6567837,23.5304658 L16.6567837,22.8093144 Z M30.3194504,27.6754491 C30.3194504,31.4421695 27.2548842,34.5067357 23.4881638,34.5067357 C19.7214435,34.5067357 16.6569708,31.4421695 16.6569708,27.6754491 L16.6569708,24.466297 L18.1533648,24.466297 C20.667288,24.466297 23.0565585,23.6816962 25.0628869,22.1972808 L25.4572461,21.9055822 L25.9445334,22.6337524 C26.7120085,23.7812686 27.994378,24.466297 29.3749161,24.466297 L30.3194504,24.466297 L30.3194504,27.6754491 Z M30.718676,30.6228493 L31.1472867,31.3022627 C31.6063118,32.0298715 32.2401503,32.6448061 32.9803927,33.0809034 L33.2107943,33.2165989 L33.2107943,34.9396512 L29.7179918,35.7766586 C29.0917336,35.9266723 28.4967321,36.1741997 27.9497388,36.5123155 L27.2358868,36.953747 L27.2358868,34.4813747 L27.463481,34.3452113 C28.6772539,33.6187256 29.6716681,32.5763968 30.3391965,31.3308992 L30.718676,30.6228493 Z M34.1983769,39.2172418 L33.3462091,38.8818399 C32.9768366,38.7365989 32.6004453,38.6176548 32.2273294,38.5285637 L27.8429605,37.4810879 L29.1842873,36.9300705 C29.4296622,36.8292815 29.6826173,36.7473027 29.9360404,36.6865672 L33.339939,35.8708968 L34.1983769,39.2172418 Z M34.1466255,35.2495985 L34.1466255,33.6235919 L34.7014798,33.7284986 C35.0349164,33.7915736 35.3721899,33.823579 35.7039421,33.823579 L36.3511629,33.823579 C36.6850675,33.823579 37.0242127,33.7911993 37.3591466,33.7274692 L37.9145624,33.6218138 L37.9145624,35.2570852 L36.4475535,40.9752942 L35.8725789,40.4515095 C35.7632738,40.3520307 35.6397441,40.2469368 35.4948774,40.1301451 L35.3738744,40.0326315 L34.1466255,35.2495985 Z M31.2550944,25.9462204 L31.7184244,25.941822 C33.1464092,25.9280652 34.557081,25.5513932 35.797806,24.8524209 L36.0274589,24.7230891 L36.2571119,24.8524209 C37.4977432,25.5513932 38.9083215,25.9280652 40.3364934,25.941822 L40.799917,25.9462204 L40.799917,28.4388066 C40.799917,30.8919944 38.8041635,32.8877479 36.3509757,32.8877479 L35.7037549,32.8877479 C33.2505672,32.8877479 31.2548137,30.8919944 31.2548137,28.4388066 L31.2550944,25.9462204 Z M31.255188,24.297941 C31.255188,23.1113071 31.7182372,21.9945798 32.5593623,21.1534547 C33.4004873,20.3123297 34.5172146,19.8490933 35.7039421,19.8490933 L36.3511629,19.8490933 C38.8043507,19.8490933 40.8001042,21.8448468 40.8001042,24.297941 L40.8001042,25.0116058 L40.32648,25.0058036 C38.8863295,24.98821 37.4883849,24.5623133 36.2837831,23.7741563 C36.1280608,23.6721507 35.9271378,23.6722443 35.7715091,23.7740627 C34.5668137,24.5624068 33.1689627,24.9883972 31.7287186,25.0058036 L31.255188,25.0115122 L31.255188,24.297941 Z M46.9759346,44.4792332 L46.9759346,41.6621943 C46.9759346,38.8513318 45.0666519,36.4320212 42.3326212,35.778811 L38.8502064,34.9468571 L38.8502064,33.2133235 L39.0801401,33.0775344 C40.7181254,32.109885 41.7356546,30.3323673 41.7356546,28.438713 L41.7356546,24.297941 C41.7356546,21.3289231 39.3200872,18.9134493 36.3510693,18.9134493 L35.7038485,18.9134493 C34.1844331,18.9134493 32.7270632,19.5632905 31.7053228,20.6963948 L31.1539311,21.308054 L30.9108021,20.5212072 C30.4313758,18.9695056 29.4469751,17.5744621 28.1390575,16.593056 C26.7870622,15.5787086 25.1787428,15.0424774 23.4880703,15.0424774 C21.7973041,15.0424774 20.1889847,15.578615 18.8369895,16.593056 C17.5289783,17.5743685 16.5446711,18.969412 16.0652448,20.5212072 L15.8222094,21.308054 L15.2707242,20.6963948 C14.2489837,19.5632905 12.7916139,18.9134493 11.2721984,18.9134493 L10.6249776,18.9134493 C7.65586614,18.9134493 5.24039237,21.3289231 5.24039237,24.297941 L5.24039237,28.438713 C5.24039237,30.3323673 6.25792157,32.109885 7.89590682,33.0775344 L8.12584054,33.2133235 L8.12584054,34.9468571 L4.6433321,35.778811 C1.90948858,36.4321147 1.87166229e-05,38.8513318 1.87166229e-05,41.6621007 L1.87166229e-05,44.4791396 C1.87166229e-05,44.7371482 0.209832059,44.9469616 0.467840705,44.9469616 L8.55753944,44.9469616 L8.48987885,45.4744896 C8.44477179,45.8259878 8.42184393,46.1844111 8.42184393,46.5397462 L8.42184393,50.0002626 L2.33940941,50.0002626 C2.08149435,50.0002626 1.87158742,50.2100759 1.87158742,50.4680846 C1.87158742,50.7260932 2.08149435,50.9359066 2.33940941,50.9359066 L44.6365439,50.9359066 C44.8945526,50.9359066 45.1043659,50.7260932 45.1043659,50.4680846 C45.1043659,50.2100759 44.8945526,50.0002626 44.6365439,50.0002626 L38.5540158,50.0002626 L38.5540158,46.5442382 C38.5540158,46.1875929 38.5309944,45.8277658 38.4854194,45.4747703 L38.4174781,44.9470551 L46.5081126,44.9470551 C46.7661213,44.9470551 46.9759346,44.7372418 46.9759346,44.4792332 L46.9759346,44.4792332 Z" id="Fill-1" stroke="#06092B" stroke-width="0.3" fill="#06092B" mask="url(#mask-2)"></path></g><path d="M23.4879486,8.94231144 C23.7459572,8.94231144 23.9557706,8.73240451 23.9557706,8.47448945 L23.9557706,4.46782199 C23.9557706,4.34288853 23.9071074,4.22544172 23.8187649,4.13709926 C23.7304224,4.04866322 23.6128821,4 23.4879486,4 C23.2300335,4 23.0201266,4.20990693 23.0201266,4.46782199 L23.0201266,8.47448945 C23.0201266,8.73240451 23.2300335,8.94231144 23.4879486,8.94231144" id="Fill-4" stroke="#59C9A5" stroke-width="0.3" fill="#59C9A5"></path><path d="M23.4879486,12.1964677 C23.6092323,12.1964677 23.732762,12.1452777 23.8185777,12.0593684 C23.9055165,11.9719618 23.9558642,11.8510524 23.9558642,11.7285521 C23.9558642,11.6055839 23.9058908,11.4849553 23.8186713,11.3978294 L23.8186713,11.3978294 C23.732762,11.3119201 23.6091387,11.2606366 23.4879486,11.2606366 C23.3648868,11.2606366 23.2443518,11.31061 23.1572259,11.3977358 C23.0700064,11.4849553 23.020033,11.6054903 23.020033,11.7285521 C23.020033,11.8498359 23.071223,11.9734592 23.1570387,12.0591813 C23.2430416,12.1451842 23.3667585,12.1964677 23.4879486,12.1964677" id="Fill-7" stroke="#59C9A5" stroke-width="0.3" fill="#59C9A5"></path><path d="M16.2728121,12.272008 C16.3611546,12.3603505 16.4786014,12.4090137 16.6036284,12.4090137 C16.7285619,12.4090137 16.8461023,12.3602569 16.9344448,12.2719144 C17.1168382,12.0895209 17.1167447,11.7926753 16.9342576,11.6100946 L13.4670032,8.14358891 C13.3757597,8.05243896 13.2560669,8.00686398 13.1361869,8.00686398 C13.0164005,8.00686398 12.896427,8.05253254 12.8051834,8.14377608 C12.6228835,8.32607599 12.6229771,8.62292162 12.8054642,8.80550228 L16.2728121,12.272008 Z" id="Fill-9" stroke="#59C9A5" stroke-width="0.3" fill="#59C9A5"></path><path d="M33.6486604,7.99830113 L29.9702825,11.6765854 C29.787889,11.8589789 29.787889,12.1558246 29.9703761,12.3383116 C30.0587185,12.4266541 30.1762589,12.4753173 30.3011924,12.4753173 C30.4261258,12.4753173 30.5436662,12.4266541 30.6322894,12.3382181 L34.3106673,8.65984016 C34.4929672,8.47744667 34.4929672,8.18060103 34.3105737,7.99820754 C34.2195174,7.90705759 34.0995438,7.86148261 33.9797574,7.86148261 C33.8598775,7.86148261 33.7399975,7.90705759 33.6486604,7.99830113" id="Fill-11" stroke="#59C9A5" stroke-width="0.3" fill="#59C9A5"></path></g></g></g></g></svg> 