<?xml version="1.0" encoding="UTF-8"?> <svg xmlns="http://www.w3.org/2000/svg" xmlns:xlink="http://www.w3.org/1999/xlink" width="29px" height="32px" viewBox="0 0 29 32" version="1.1"><!-- Generator: Sketch 63.1 (92452) - https://sketch.com --><title>Icon/Health Copy 2</title><desc>Created with Sketch.</desc><g id="UI" stroke="none" stroke-width="1" fill="none" fill-rule="evenodd"><g id="Careers" transform="translate(-1012.000000, -1671.000000)"><g id="Icon/Time" transform="translate(1006.000000, 1667.000000)"><g id="Group" transform="translate(6.000000, 4.000000)"><path d="M14.6832918,3.84638404 L14.6832918,1.27680798 L17.2369077,1.27680798 C17.5894885,1.27680798 17.8753117,0.990984778 17.8753117,0.63840399 C17.8753117,0.285823202 17.5894885,0 17.2369077,0 L10.8528678,0 C10.500287,0 10.2144638,0.285823202 10.2144638,0.63840399 C10.2144638,0.990984778 10.500287,1.27680798 10.8528678,1.27680798 L13.4064838,1.27680798 L13.4064838,3.84638404 C5.78200276,4.19330994 -0.16987815,10.5656423 0.00362963995,18.1960396 C0.17713743,25.826437 6.41251799,31.9216429 14.0448878,31.9216429 C21.6772576,31.9216429 27.9126381,25.826437 28.0861459,18.1960396 C28.2596537,10.5656423 22.3077728,4.19330994 14.6832918,3.84638404 L14.6832918,3.84638404 Z M14.0448878,30.6433915 C6.99327202,30.6433915 1.27680798,24.9269275 1.27680798,17.8753117 C1.27680798,10.823696 6.99327202,5.10723192 14.0448878,5.10723192 C21.0965035,5.10723192 26.8129676,10.823696 26.8129676,17.8753117 C26.804876,24.9235731 21.0931492,30.6353 14.0448878,30.6433915 L14.0448878,30.6433915 Z" id="Shape" fill="#06092B" fill-rule="nonzero"></path><path d="M14.0448878,7.66084788 C14.4461937,7.66082816 14.8471575,7.68427633 15.2457257,7.73107232 C15.4746262,7.76245447 15.7026202,7.66771235 15.8418679,7.48334755 C15.9811155,7.29898274 16.0098842,7.05376914 15.9170903,6.84218093 C15.8242964,6.63059272 15.6244222,6.48565257 15.3944738,6.463202 C14.946538,6.41054652 14.4959078,6.38411409 14.0448878,6.3840399 C13.692307,6.3840399 13.4064838,6.6698631 13.4064838,7.02244389 C13.4064838,7.37502468 13.692307,7.66084788 14.0448878,7.66084788 L14.0448878,7.66084788 Z" id="Path" fill="#06092B" fill-rule="nonzero"></path><path d="M17.7578454,8.35926185 C18.1603687,8.51685942 18.5523107,8.70024905 18.9312319,8.90828928 C19.1312579,9.01799565 19.3746172,9.01265594 19.5696386,8.89428156 C19.7646601,8.77590718 19.8817154,8.56248201 19.876711,8.33440126 C19.8717065,8.1063205 19.7454025,7.89823505 19.5453766,7.78852868 C19.1182797,7.55396376 18.6764292,7.34732619 18.2226035,7.16991521 C17.8941745,7.04157581 17.5238905,7.20378048 17.3955511,7.53220948 C17.2672117,7.86063848 17.4294164,8.23092243 17.7578454,8.35926185 L17.7578454,8.35926185 Z" id="Path" fill="#06092B" fill-rule="nonzero"></path><path d="M21.8551222,11.2997506 C22.0015231,11.4758794 22.2310545,11.5600889 22.4566237,11.5204269 C22.682193,11.480765 22.8692324,11.3233096 22.9467722,11.1078053 C23.024312,10.8923009 22.9804696,10.6517728 22.8318803,10.4774863 C22.5411302,10.1326399 22.2305534,9.80501011 21.9017257,9.49625935 C21.644518,9.25509412 21.2405069,9.26809908 20.9993417,9.52530676 C20.7581764,9.78251443 20.7711814,10.1865255 21.028389,10.4276908 C21.3206468,10.7020972 21.5966909,10.9932759 21.8551222,11.2997506 L21.8551222,11.2997506 Z" id="Path" fill="#06092B" fill-rule="nonzero"></path><path d="M4.46882793,17.2369077 L3.19201995,17.2369077 C2.83943916,17.2369077 2.55361596,17.5227309 2.55361596,17.8753117 C2.55361596,18.2278925 2.83943916,18.5137157 3.19201995,18.5137157 L4.46882793,18.5137157 C4.82140872,18.5137157 5.10723192,18.2278925 5.10723192,17.8753117 C5.10723192,17.5227309 4.82140872,17.2369077 4.46882793,17.2369077 Z" id="Path" fill="#06092B" fill-rule="nonzero"></path><path d="M24.8977556,17.2369077 L23.6209476,17.2369077 C23.2683668,17.2369077 22.9825436,17.5227309 22.9825436,17.8753117 C22.9825436,18.2278925 23.2683668,18.5137157 23.6209476,18.5137157 L24.8977556,18.5137157 C25.2503364,18.5137157 25.5361596,18.2278925 25.5361596,17.8753117 C25.5361596,17.5227309 25.2503364,17.2369077 24.8977556,17.2369077 Z" id="Path" fill="#06092B" fill-rule="nonzero"></path><path d="M14.0448878,26.8129676 C13.692307,26.8129676 13.4064838,27.0987908 13.4064838,27.4513716 L13.4064838,28.7281796 C13.4064838,29.0807603 13.692307,29.3665835 14.0448878,29.3665835 C14.3974686,29.3665835 14.6832918,29.0807603 14.6832918,28.7281796 L14.6832918,27.4513716 C14.6832918,27.0987908 14.3974686,26.8129676 14.0448878,26.8129676 Z" id="Path" fill="#06092B" fill-rule="nonzero"></path><path d="M23.8884389,13.9861546 C24.2085823,13.8384233 24.3483498,13.4591359 24.2006185,13.1389925 C24.0528871,12.8188492 23.6735997,12.6790816 23.3534564,12.826813 L15.3804289,16.5065736 C14.649331,15.7230909 13.4552244,15.5919495 12.571513,16.1980875 C11.6878015,16.8042256 11.3801235,17.9654417 11.8477571,18.9296347 C12.3153907,19.8938277 13.4177681,20.3711669 14.4408969,20.0524875 C15.4640258,19.733808 16.1003598,18.7149029 15.9377556,17.6557007 L23.8884389,13.9861546 Z M13.838404,18.676808 C13.4858232,18.676808 13.2,18.3909848 13.2,18.038404 C13.2,17.6858232 13.4858232,17.4 13.838404,17.4 C14.1909848,17.4 14.476808,17.6858232 14.476808,18.038404 C14.476808,18.3909848 14.1909848,18.676808 13.838404,18.676808 Z" id="Shape" fill="#59C9A5" fill-rule="nonzero"></path></g></g></g></g></svg> 