<?xml version="1.0" encoding="UTF-8"?> <svg xmlns="http://www.w3.org/2000/svg" xmlns:xlink="http://www.w3.org/1999/xlink" width="34px" height="34px" viewBox="0 0 34 34" version="1.1"><!-- Generator: Sketch 63.1 (92452) - https://sketch.com --><title>Icon/Health Copy 4</title><desc>Created with Sketch.</desc><defs><polygon id="path-1" points="2.38e-05 2.04e-05 33.999728 2.04e-05 33.999728 34 2.38e-05 34"></polygon></defs><g id="UI" stroke="none" stroke-width="1" fill="none" fill-rule="evenodd"><g id="Careers" transform="translate(-617.000000, -1777.000000)"><g id="Icon/Team" transform="translate(614.000000, 1774.000000)"><g id="Group-3" transform="translate(3.000000, 3.000000)"><mask id="mask-2" fill="white"><use xlink:href="#path-1"></use></mask><g id="Clip-2"></g><path d="M30.6339388,22.3400604 L32.9549148,24.6611044 C33.0705148,24.7766364 33.2241948,24.8403524 33.3875988,24.8403524 C33.5510028,24.8403524 33.7046828,24.7767044 33.8202148,24.6611044 C33.9360188,24.5453684 33.9997349,24.3916204 33.9997349,24.2281484 C33.9997349,24.0646764 33.9361548,23.9110644 33.8205548,23.7953964 L31.7458748,21.7206484 L31.7845668,21.5098484 C32.1866508,19.3234444 31.4933228,17.0847484 29.9298668,15.5213604 L29.2482348,14.8395924 L33.7523508,10.3390124 C33.8680868,10.2234124 33.9317348,10.0698004 33.9318028,9.9063284 C33.9318708,9.7428564 33.8682908,9.5891084 33.7527588,9.4735084 C33.5141468,9.2347604 33.1258668,9.2346244 32.8873228,9.4731004 L28.3829348,13.9737484 L21.2289948,6.8362644 L27.0206228,1.0447724 C27.2591668,0.8061604 27.2591668,0.4178804 27.0205548,0.1792684 C26.9050228,0.0636684 26.7513428,2.04e-05 26.5878708,2.04e-05 C26.4243988,2.04e-05 26.2706508,0.0637364 26.1550508,0.1792684 L20.0483788,6.2860084 L19.8521308,6.2630244 C19.7431948,6.2503084 19.6369108,6.2438484 19.5362708,6.2438484 C18.8262828,6.2438484 18.1602908,6.5187724 17.6611708,7.0180964 C17.4515268,7.2276724 17.2800308,7.4685284 17.1515108,7.7339324 L16.9014748,8.2501204 L8.8304868,0.1793364 C8.7149548,0.0637364 8.5612748,2.04e-05 8.3978028,2.04e-05 C8.2343308,2.04e-05 8.0805828,0.0638044 7.9650508,0.1793364 C7.7264388,0.4179484 7.7264388,0.8062284 7.9650508,1.0448404 L13.9117188,6.9915084 L13.3847188,7.2381444 C13.1064628,7.3683644 12.8545908,7.5450964 12.6361748,7.7635124 C12.4150388,7.9846484 12.2368108,8.2406004 12.1065228,8.5240924 L11.8992588,8.9749324 L11.4969708,8.6845044 C11.0466748,8.3593964 10.5107668,8.1875604 9.9472508,8.1875604 C9.2373308,8.1875604 8.5713388,8.4625524 8.0720828,8.9618764 C7.1540828,9.8798764 7.0327708,11.3137244 7.7836948,12.3713284 L8.0622908,12.7636884 L7.6296748,12.9743524 C7.3654948,13.1029404 7.1260668,13.2736204 6.9179188,13.4817684 C6.7046028,13.6950844 6.5309308,13.9400204 6.4018668,14.2097764 L6.1530548,14.7299084 L1.0444188,9.6212724 C0.9288868,9.5057404 0.7751388,9.4420244 0.6117348,9.4420244 C0.4482628,9.4420244 0.2945828,9.5057404 0.1789828,9.6212724 C-0.0596292,9.8598844 -0.0596292,10.2481644 0.1789828,10.4867764 L8.0098628,18.3243884 L0.1791188,26.1552684 C-0.0594932,26.3939484 -0.0594932,26.7822284 0.1791188,27.0209084 C0.2946508,27.1364404 0.4482628,27.2000884 0.6118028,27.2000884 C0.7753428,27.2000884 0.9289548,27.1364404 1.0444188,27.0209084 L8.8755708,19.1896884 L10.5279028,20.8420884 L10.0063428,21.0904244 C9.7340708,21.2200324 9.4877068,21.3941124 9.2740508,21.6077004 C8.7747948,22.1070924 8.4997348,22.7730844 8.4997348,23.4830044 C8.4997348,24.1929244 8.7747268,24.8589164 9.2740508,25.3583084 L13.1353628,29.2196204 L9.3912148,32.9500324 C9.1521268,33.1883044 9.1514468,33.5765844 9.3895828,33.8156044 C9.5052508,33.9316804 9.6592708,33.9956004 9.8231508,33.9956004 C9.9861468,33.9956004 10.1395548,33.9322924 10.2550868,33.8171684 L14.0008668,30.0850564 L15.7653308,31.8494524 C16.6371588,32.7212804 17.7982588,33.2014284 19.0348388,33.2014284 C20.0340308,33.2014284 20.9839908,32.8895124 21.7820388,32.2993404 L22.0645788,32.0903764 L23.7950428,33.8207044 C23.9107108,33.9363044 24.0643908,34.0000204 24.2277948,34.0000204 C24.3912668,34.0000204 24.5449468,33.9363724 24.6604788,33.8207724 C24.8990908,33.5820924 24.8990908,33.1938124 24.6604788,32.9551324 L22.5273868,30.8220404 C22.4040348,30.6988244 22.2263508,30.6320484 22.0523388,30.6442884 C21.8655428,30.6572084 21.6420948,30.7809684 21.4390468,30.9838804 C20.1134548,32.3094724 17.9564268,32.3094044 16.6306988,30.9839484 L10.1394188,24.4926684 C9.8712948,24.2245444 9.7236668,23.8659124 9.7236668,23.4829364 C9.7236668,23.0998244 9.8712948,22.7411924 10.1394868,22.4731364 C10.6959988,21.9165564 11.6016908,21.9165564 12.1584068,22.4725924 L14.0822628,24.3964484 C14.1978628,24.5120484 14.3515428,24.5757644 14.5149468,24.5757644 C14.6784188,24.5757644 14.8320988,24.5121164 14.9474948,24.3965164 C15.0632988,24.2808484 15.1269468,24.1271684 15.1269468,23.9636964 C15.1269468,23.8002924 15.0632308,23.6465444 14.9476308,23.5309444 L7.7835588,16.3667364 C7.5154348,16.0986804 7.3678068,15.7400484 7.3678068,15.3570044 C7.3678068,14.9739604 7.5154348,14.6153964 7.7835588,14.3472724 C8.2205268,13.9104404 8.8859748,13.8049724 9.4396308,14.0850644 L9.5313628,14.1314404 L9.5739988,14.1926404 C9.8058108,14.4341764 12.2285828,16.8654484 13.8424268,18.4826244 C13.9577548,18.5980204 14.1114348,18.6616684 14.2748388,18.6616684 C14.4383108,18.6616684 14.5919228,18.5980204 14.7075228,18.4824884 C14.8231228,18.3667524 14.8868388,18.2130724 14.8868388,18.0496004 C14.8868388,17.8861284 14.8231908,17.7324484 14.7075908,17.6169164 L8.9375188,11.8468444 C8.6693948,11.5787884 8.5216988,11.2201564 8.5216988,10.8371804 C8.5216988,10.4541364 8.6693948,10.0955044 8.9375188,9.8273804 C9.2055748,9.5592564 9.5642068,9.4116284 9.9471828,9.4116284 C10.3302268,9.4116284 10.6888588,9.5592564 10.9569828,9.8273804 L16.7269868,15.5973844 C16.8425868,15.7129844 16.9961988,15.7766324 17.1596708,15.7766324 C17.3231428,15.7766324 17.4768228,15.7129844 17.5923548,15.5974524 C17.7080228,15.4818524 17.7716708,15.3281044 17.7716708,15.1646324 C17.7716708,15.0012284 17.7080228,14.8474804 17.5924228,14.7318804 L13.4257908,10.5653844 L13.4138908,10.5509684 C12.9469348,9.9894244 12.9854908,9.1452044 13.5016108,8.6290164 C14.0585308,8.0722324 14.9644948,8.0723004 15.5212108,8.6290164 L19.6116828,12.7121444 C19.7275548,12.8280164 19.8813028,12.8917324 20.0447068,12.8917324 C20.2082468,12.8917324 20.3617908,12.8280844 20.4773228,12.7125524 C20.5930588,12.5968164 20.6566388,12.4431364 20.6566388,12.2796644 C20.6566388,12.1161924 20.5930588,11.9625804 20.4774588,11.8469124 L18.4437148,9.8133044 L18.4308628,9.7975964 C17.9641788,9.2275524 18.0052508,8.4047524 18.5264708,7.8837364 C18.7945268,7.6156124 19.1530908,7.4679844 19.5361348,7.4679844 C19.9191108,7.4679844 20.2776748,7.6156124 20.5458668,7.8837364 L29.0639548,16.3866604 C30.4575468,17.7803884 30.9986228,19.8338524 30.4762468,21.7458084 C30.4184468,21.9572204 30.4788988,22.1849524 30.6339388,22.3400604" id="Fill-1" fill="#06092B" mask="url(#mask-2)"></path></g></g></g></g></svg> 