<?xml version="1.0" encoding="UTF-8"?> <svg xmlns="http://www.w3.org/2000/svg" xmlns:xlink="http://www.w3.org/1999/xlink" width="48px" height="42px" viewBox="0 0 48 42" version="1.1"><!-- Generator: Sketch 63.1 (92452) - https://sketch.com --><title>Icon/Revenue-booster Copy 3</title><desc>Created with Sketch.</desc><defs><polygon id="path-1" points="0 2.90322581e-05 47.9983307 2.90322581e-05 47.9983307 41.7409355 0 41.7409355"></polygon></defs><g id="UI" stroke="none" stroke-width="1" fill="none" fill-rule="evenodd"><g id="About-us" transform="translate(-1020.000000, -3654.000000)"><g id="Icon/Why-us-4" transform="translate(1012.000000, 3643.000000)"><g id="Group-3" transform="translate(8.000000, 11.000000)"><mask id="mask-2" fill="white"><use xlink:href="#path-1"></use></mask><g id="Clip-2"></g><path d="M42.5044355,17.1189 C41.7979839,17.8303839 41.4090484,18.7760613 41.4090484,19.7816419 C41.4090484,20.9062548 41.1155323,22.0106419 40.5604355,22.9755774 L40.0862419,23.7998032 L31.6947581,15.346771 L32.5318548,14.8809968 C33.8577581,14.1433839 34.9350484,13.0360935 35.6475,11.6787387 C35.8325323,11.3258032 35.6959839,10.8879968 35.3429516,10.7028677 C35.1716613,10.6129645 34.9760806,10.5953516 34.7918226,10.6526419 C34.6074677,10.7101258 34.4565968,10.8359323 34.3668871,11.0069323 C33.5145,12.6316742 32.0137258,13.8115452 30.2493387,14.2439323 L30.1868226,14.2564161 C30.1514032,14.2619323 30.1190806,14.2689968 30.0909194,14.2776097 L30.0266613,14.2939645 C28.6594355,14.5768355 27.2681129,14.4035129 26.003371,13.7926742 C24.3729194,13.0048355 22.4246613,13.4259 21.2657903,14.8167387 C20.3983065,15.8572548 19.1778871,16.4979 17.8292419,16.6207065 C17.0653065,16.6899968 16.3175323,16.5911903 15.6059516,16.3269968 L14.6443065,15.9699968 L22.1465323,6.96612581 L22.3537258,6.90302903 C22.974629,6.71354516 23.5908871,6.61744839 24.1852742,6.61744839 L28.3886613,6.61744839 C29.3786613,6.61744839 30.3020806,6.23664194 30.9888871,5.5452871 L34.755629,1.74922258 L46.2577258,13.3363839 L42.5044355,17.1189 Z M40.1643387,29.1168677 L40.1641452,29.1169645 C39.743371,29.5408355 39.1844032,29.7742548 38.5904032,29.7742548 C37.9964032,29.7742548 37.4375323,29.5408355 37.0166613,29.1169645 L34.3185968,26.3989645 C34.182629,26.262029 34.001371,26.1860613 33.8082097,26.1853839 L33.8054032,26.1853839 C33.6132097,26.1853839 33.4325323,26.2598032 33.2961774,26.3950935 C33.1590484,26.5312548 33.0830806,26.7125129 33.0825,26.9055774 C33.0817258,27.0986419 33.1562419,27.2803839 33.2923065,27.4174161 L35.9905645,30.1354161 C36.8625968,31.0139323 36.8625,32.4430935 35.9905645,33.3212226 C35.5698871,33.7450935 35.0109194,33.9787065 34.4169194,33.9787065 C33.8228226,33.9787065 33.2639516,33.7450935 32.8430806,33.321029 L30.1451129,30.603029 C29.864371,30.3203516 29.4054677,30.3185129 29.1225968,30.5992548 C28.839629,30.8801903 28.8377903,31.3389 29.1188226,31.6218677 L31.8167903,34.3399645 C32.6891129,35.2182871 32.6891129,36.6476419 31.8165,37.525771 C31.3965,37.9493516 30.8377258,38.1831581 30.2440161,38.1831581 L30.2432419,38.1831581 C29.6492419,38.1831581 29.090371,37.9496419 28.6692097,37.5255774 C27.5538871,36.4112226 26.8893387,35.7355452 26.4921774,35.3319 C25.9145323,34.744771 25.9109516,34.7425452 25.8190161,34.6869968 L25.7668548,34.6555452 L25.7206935,34.615771 C25.1014355,34.0826419 24.3442742,33.778771 23.5309839,33.7372548 L22.875629,33.7036742 L22.8431129,33.0483194 C22.7975323,32.1323516 22.4188548,31.2713516 21.7767581,30.6241258 C21.4367903,30.2819323 21.0425323,30.0142548 20.6052097,29.8288355 L19.8475645,29.5076419 L20.2608871,28.7960613 C21.1031129,27.3461903 20.8682419,25.5046742 19.6898226,24.3179323 C18.5111129,23.1305129 16.6841129,22.8891581 15.2470161,23.7307065 L14.5311774,24.1499323 L14.2107581,23.3848355 C14.0267903,22.9456742 13.7640484,22.5523839 13.4297903,22.2159 C12.7346613,21.5157387 11.8114355,21.1301903 10.8298548,21.1301903 L10.8296613,21.1301903 C9.8478871,21.1301903 8.92446774,21.5157387 8.22953226,22.2157065 L7.20904839,23.2443194 L6.80617742,22.1978032 C6.61253226,21.6948677 6.51440323,21.1649323 6.51440323,20.6226097 C6.51440323,19.0750935 5.91479032,17.6186419 4.82608065,16.5215129 L1.74227419,13.4318032 L13.2442742,1.84444839 L16.9338871,5.54422258 C17.5271129,6.14180323 18.2775968,6.5079 19.1053065,6.60380323 L20.4385645,6.75835161 L13.1051129,15.5581258 C12.8501129,15.8644161 12.8915323,16.3211903 13.197629,16.5761903 C14.5351452,17.6909323 16.2266613,18.2180613 17.9599839,18.0605129 C19.6936935,17.9029645 21.2626935,17.0789323 22.3781129,15.7403516 C23.1100161,14.8617387 24.3419516,14.5962871 25.3742419,15.0944806 C26.7307258,15.7498355 28.2315,15.9959323 29.7145645,15.8068355 L30.0694355,15.7615452 L40.1642419,25.9310613 C41.0358871,26.8092871 41.0358871,28.2384484 40.1643387,29.1168677 L40.1643387,29.1168677 Z M24.9120484,39.0206419 L24.3003387,39.6366097 C23.8796613,40.0603839 23.3207903,40.2940935 22.7268871,40.2940935 C22.1328871,40.2940935 21.5740161,40.0603839 21.1531452,39.6364161 C20.373629,38.8512871 20.2832419,37.5880935 20.9430484,36.6980613 L20.9738226,36.6566419 L21.0101129,36.6199645 C21.3307258,36.295771 21.5162419,36.1096742 21.632371,35.9930613 C21.8026935,35.8222548 21.8129516,35.8119 21.8849516,35.7329323 L21.9254032,35.6887065 L21.9724355,35.6517387 C22.8552097,34.9575774 24.1188871,35.0363516 24.9119516,35.835029 C25.7836935,36.7133516 25.7836935,38.1423194 24.9120484,39.0206419 L24.9120484,39.0206419 Z M19.9621452,35.6069323 L18.6668226,36.9278032 C18.2429516,37.3549645 17.6838871,37.5886742 17.0899839,37.5886742 L17.0898871,37.5886742 C16.4959839,37.5886742 15.9371129,37.3549645 15.5161452,36.9308032 C14.6444032,36.0526742 14.6444032,34.6239 15.5162419,33.7453839 L17.6029839,31.6430613 C18.0239516,31.2190935 18.5828226,30.985771 19.1767258,30.985771 C19.7707258,30.985771 20.3295968,31.2190935 20.7504677,31.6428677 C21.5459516,32.4444484 21.6247258,33.7232226 20.9339516,34.6176097 L20.8966935,34.6659968 L20.8286613,34.7287065 C20.7769839,34.7758355 20.7526935,34.8005129 19.9621452,35.6069323 L19.9621452,35.6069323 Z M14.4898548,32.7268355 C14.0686935,33.1507065 13.5100161,33.3839323 12.9162097,33.3839323 L12.9155323,33.3839323 C12.3218226,33.3837387 11.7632419,33.1502226 11.3425645,32.7263516 C10.4709194,31.8484161 10.4708226,30.4193516 11.3425645,29.5408355 L11.3426613,29.5407387 L15.5162419,25.3362871 C15.9372097,24.9123194 16.4961774,24.6788032 17.0901774,24.6788032 L17.0904677,24.6788032 C17.684371,24.6789 18.2431452,24.9124161 18.6638226,25.3363839 C19.5354677,26.2146097 19.5354677,27.6438677 18.6638226,28.5222871 L14.4898548,32.7268355 Z M8.74272581,29.1796742 C8.14891935,29.1796742 7.59004839,28.9462548 7.16927419,28.5223839 C6.29733871,27.6438677 6.29733871,26.2146097 7.16908065,25.3363839 L7.16917742,25.3363839 L9.25591935,23.2340613 C9.67659677,22.8101903 10.2354677,22.5765774 10.8294677,22.5765774 C11.4234677,22.5765774 11.9823387,22.8101903 12.4031129,23.2340613 C13.2755323,24.1126742 13.2754355,25.5418355 12.4028226,26.4199645 L10.316371,28.5222871 C9.89540323,28.9462548 9.33662903,29.1796742 8.74272581,29.1796742 L8.74272581,29.1796742 Z M47.7892742,12.8272548 L35.2681452,0.213222581 C35.1337258,0.0777387097 34.9467581,2.9032258e-05 34.7553387,2.9032258e-05 C34.5642097,2.9032258e-05 34.3772419,0.0780290323 34.2421452,0.2139 L29.9625,4.52683548 C29.5414355,4.95070645 28.9825645,5.18393226 28.3886613,5.18393226 L19.5351774,5.18393226 C18.9415645,5.18393226 18.3819194,4.95002903 17.9593065,4.52519032 L13.7550484,0.309319355 C13.6203387,0.174029032 13.4338548,0.0966096774 13.2432097,0.0966096774 C13.0515968,0.0968032258 12.8649194,0.174803226 12.7301129,0.310480645 L0.209177419,12.9238355 C-0.0703064516,13.2053516 -0.0696290323,13.6630935 0.210629032,13.9441258 L3.80143548,17.5417065 C4.61898387,18.3655452 5.06840323,19.4591903 5.06840323,20.6226097 C5.06840323,21.7282548 5.3778871,22.8016742 5.96327419,23.7266419 L6.2441129,24.1702548 L5.91053226,24.5758355 C4.71730645,26.0268677 4.81930645,28.2076742 6.14279032,29.5407387 C6.78962903,30.1928032 7.64791935,30.5763194 8.55953226,30.6209323 L9.2178871,30.6531581 L9.24904839,31.3115129 C9.29269355,32.2317387 9.67166129,33.0961258 10.3161774,33.7452871 C10.9632097,34.3972548 11.8215968,34.780771 12.7335,34.8253839 L13.3920484,34.8576097 L13.4230161,35.5162548 C13.4661774,36.4359 13.8451452,37.3001903 14.4899516,37.9498355 C15.489629,38.9569645 16.9965,39.2985774 18.3288871,38.820029 L19.0199516,38.5719 L19.2601452,39.265771 C19.4422742,39.792029 19.7339516,40.2595452 20.1267581,40.6552548 C20.8215968,41.3553194 21.7449194,41.7409645 22.7266935,41.7409645 C23.7084677,41.7409645 24.6315968,41.3553194 25.3263387,40.6553516 L25.9382419,40.0393839 C26.2494677,39.7257387 26.4994355,39.3621581 26.6808871,38.9590935 L27.0853065,38.0611258 L27.8233065,38.7132871 C29.2727903,39.9939968 31.4776935,39.919771 32.8430806,38.5444161 C33.4877903,37.8950613 33.8666613,37.0308677 33.9098226,36.1108355 L33.9408871,35.4519968 L34.599629,35.4199645 C35.5110484,35.3757387 36.3693387,34.9921258 37.0165645,34.3399645 C37.6612742,33.6907065 38.0402419,32.8264161 38.0838871,31.9061903 L38.1151452,31.2475452 L38.7735968,31.2155129 C39.684629,31.1712871 40.5428226,30.787771 41.1902419,30.1358032 C42.5245645,28.7917065 42.6332419,26.6673194 41.4429194,25.1942226 L41.0973387,24.7663839 L41.415629,24.318029 C42.3572419,22.9914484 42.8549516,21.4228355 42.8549516,19.7816419 C42.8549516,19.1694484 43.1011452,18.5703194 43.5305323,18.1377387 L47.7891774,13.8458032 C48.0679839,13.5648677 48.0680806,13.1079968 47.7892742,12.8272548 L47.7892742,12.8272548 Z" id="Fill-1" fill="#06092B" mask="url(#mask-2)"></path></g></g></g></g></svg> 