<?xml version="1.0" encoding="UTF-8"?>
<svg xmlns="http://www.w3.org/2000/svg" xmlns:xlink="http://www.w3.org/1999/xlink" width="69px" height="58px" viewBox="0 0 69 58" version="1.1"><!-- Generator: Sketch 63.1 (92452) - https://sketch.com --><title>Icon/Ad-mapper</title><desc>Created with Sketch.</desc><g id="UI" stroke="none" stroke-width="1" fill="none" fill-rule="evenodd"><g id="Products" transform="translate(-276.000000, -805.000000)"><g id="Post" transform="translate(222.000000, 771.000000)"><g id="Icon/Revenue-recovery-tool-2" transform="translate(48.000000, 23.000000)"><g id="Revenue-recovery-tool-icon"><rect id="Background" x="0" y="0" width="80" height="80"/><g id="Icon" transform="translate(6.250000, 11.250000)"><path d="M16.7059958,49.8498292 L22.9286666,43.527007 L23.4034189,43.8624274 C26.5251953,46.0678833 30.1977838,47.2336344 34.0238752,47.2336344 C44.3284753,47.2336344 52.7119397,38.7150521 52.7119397,28.2442304 C52.7119397,27.8568177 52.4017534,27.5416321 52.0204857,27.5416321 L47.5016958,27.5416321 L56.945574,17.9459668 L66.3891756,27.5417727 L62.124011,27.5417727 C61.7427433,27.5417727 61.432557,27.8569582 61.432557,28.2443709 C61.432557,35.6836217 58.5815541,42.6774252 53.4046382,47.9374973 C48.2278607,53.1978504 41.3449897,56.0948035 34.0238752,56.0948035 C28.0069811,56.0948035 22.0783165,54.0503831 17.3299639,50.3378539 L16.7059958,49.8498292 Z M54.3824924,48.9311117 C59.4718702,43.7601291 62.4556323,36.901084 62.7843495,29.6172479 L62.8146352,28.9468286 L68.0584838,28.9468286 C68.3390758,28.9468286 68.589797,28.7766593 68.6969723,28.513185 C68.8044243,28.2495701 68.7456507,27.9489986 68.5472034,27.7472124 L57.4344319,16.4553343 C57.1647649,16.1816021 56.7259682,16.1814615 56.4563012,16.4554749 L45.3433914,27.7472124 C45.1449441,27.9489986 45.0861705,28.2494296 45.1936225,28.512904 C45.3010744,28.7763783 45.5517956,28.9466881 45.8323876,28.9466881 L51.3317976,28.9466881 L51.2698433,29.707321 C50.9129148,34.0843676 48.9591424,38.1474933 45.7679441,41.1481499 C42.5586297,44.1662309 38.3877794,45.8282973 34.0238752,45.8282973 C30.0940657,45.8282973 26.3869045,44.51753 23.3034347,42.0377798 C23.1770369,41.9361841 23.0254702,41.885878 22.8744566,41.885878 C22.6966147,41.885878 22.5196025,41.9554353 22.3851838,42.0918798 L15.2029132,49.3900489 C15.0675265,49.5276176 14.9938175,49.7181623 15.0004068,49.912501 C15.0079232,50.1071207 15.0950464,50.291623 15.2398369,50.4186527 C20.4451023,54.9852603 27.1159735,57.5 34.0238752,57.5 C41.7143644,57.5 48.9446219,54.4569065 54.3824924,48.9311117 L54.3824924,48.9311117 Z" id="Fill-1" fill="#59C9A5"/><path d="M53.75,7.58751678 C53.7426043,7.39275969 53.6554801,7.2084009 53.5105497,7.08137319 L53.5104114,7.08109215 C48.3052258,2.51469897 41.6342795,0 34.7263002,0 C32.5952151,0 30.4713212,0.236069192 28.4138077,0.701462743 C28.041663,0.785632652 27.8062894,1.16179767 27.8891265,1.53978941 C27.9292313,1.72316459 28.0372376,1.87941991 28.1929548,1.98017087 C28.3488103,2.08078131 28.5339838,2.11352186 28.714317,2.07291234 C30.6739195,1.62986105 32.6967217,1.40517376 34.7264385,1.40517376 C40.7434002,1.40517376 46.6721314,3.44970159 51.4203992,7.16217068 L52.0445125,7.65004701 L45.8220484,13.9727669 L45.3471525,13.6374924 C42.225341,11.4319317 38.5527111,10.2661995 34.7264385,10.2661995 C24.4217225,10.2661995 16.0381638,18.7847844 16.0381638,29.2552962 C16.0381638,29.6427026 16.3483536,29.9578831 16.7296256,29.9578831 L21.2484663,29.9578831 L11.8044819,39.5535337 L2.3610507,29.9578831 L6.62626327,29.9578831 C7.00739698,29.9578831 7.31772501,29.6427026 7.31772501,29.2552962 C7.31772501,21.8161658 10.16876,14.8223349 15.3455958,9.5624885 C16.4428072,8.44748312 17.6339192,7.42367352 18.8856033,6.51916316 C19.0360653,6.41054323 19.1359124,6.24866721 19.1667516,6.06360583 C19.1974525,5.87854444 19.1554116,5.69249944 19.0483734,5.53947601 C18.8275205,5.2240145 18.3950803,5.14996185 18.0840608,5.37408706 C16.7698686,6.32356298 15.5195675,7.39838039 14.3677306,8.56874962 C9.27829561,13.7399296 6.29436164,20.5990043 5.96564073,27.8824415 L5.9353547,28.5527093 L0.691585482,28.5527093 C0.41099031,28.5527093 0.160404576,28.7228759 0.053089715,28.986346 C-0.0545017311,29.2500971 0.00441080879,29.5506638 0.202860327,29.7523062 L11.3158951,41.044142 C11.4465813,41.1767904 11.6201382,41.25 11.8047585,41.25 C11.9893788,41.25 12.163074,41.1767904 12.2938985,41.0440015 L23.4069333,29.7523062 C23.6052445,29.5506638 23.664157,29.2499566 23.5567039,28.9864865 C23.4492507,28.7231569 23.1985267,28.5528499 22.9179315,28.5528499 L17.4184598,28.5528499 L17.4804147,27.7922293 C17.837209,23.4153941 19.7911416,19.3523341 22.9822375,16.3515855 C26.1917263,13.3336939 30.3626235,11.6715138 34.7265768,11.6715138 C38.6562921,11.6715138 42.3634951,12.9824004 45.4471378,15.46197 C45.7224779,15.6834254 46.1171642,15.659959 46.3652607,15.4080114 L53.5476121,8.10996038 C53.6830003,7.97211284 53.7567101,7.78185231 53.75,7.58751678" id="Fill-3" fill="#06092B"/><path d="M23.7031012,2.86620433 C23.6420146,2.71783781 23.5292305,2.60317997 23.3853814,2.54337425 C23.3158332,2.51437754 23.2431552,2.5 23.1704773,2.5 C23.0929309,2.5 23.0155005,2.51631065 22.9421271,2.54917359 L22.8459186,2.59266866 C22.5545114,2.72557027 22.420515,3.08247149 22.5485998,3.3876619 C22.6408671,3.60779528 22.8496279,3.75 23.0800645,3.75 C23.1594655,3.75 23.2375914,3.73284361 23.3124717,3.69889329 L23.3962773,3.66071429 C23.6926689,3.52817514 23.8290994,3.1723613 23.7031012,2.86620433" id="Fill-5" fill="#06092B"/><path d="M51.0344449,46.0732139 L51.0743478,46.0335372 C51.3087925,45.798874 51.3089138,45.4139973 51.0725285,45.1775141 C50.9542753,45.0593331 50.7989086,45 50.6434207,45 C50.4881754,45 50.3329301,45.0592118 50.2146768,45.1773927 L50.1788976,45.2129441 C50.0637977,45.3276063 50.0003654,45.4798825 50,45.641987 C49.9996377,45.8039701 50.062221,45.956489 50.1765931,46.0712726 C50.2912079,46.1866628 50.4437849,46.25 50.6064287,46.25 C50.7678596,46.25 50.9198302,46.1871481 51.0344449,46.0732139" id="Fill-7" fill="#59C9A5"/><path d="M47.1770056,50.0399515 C47.3355711,49.9378104 47.4447706,49.7808107 47.4842351,49.5977145 C47.5235583,49.4143376 47.4887615,49.226892 47.3860688,49.0696116 C47.2507011,48.8626638 47.0232494,48.75 46.7912713,48.75 C46.6594398,48.75 46.5261939,48.7863386 46.4076587,48.8625235 C42.8620715,51.1420364 38.729608,52.3469638 34.4572503,52.3469638 C34.0672725,52.3469638 33.75,52.6618051 33.75,53.0484819 C33.75,53.435299 34.0672725,53.75 34.4572503,53.75 C39.0033138,53.75 43.4018449,52.4670637 47.1770056,50.0399515" id="Fill-9" fill="#59C9A5"/></g></g></g></g></g></g></svg>