<?xml version="1.0" encoding="UTF-8"?> <svg xmlns="http://www.w3.org/2000/svg" xmlns:xlink="http://www.w3.org/1999/xlink" width="36px" height="36px" viewBox="0 0 36 36" version="1.1"><!-- Generator: Sketch 63.1 (92452) - https://sketch.com --><title>Icon/Health Copy 3</title><desc>Created with Sketch.</desc><defs><polygon id="path-1" points="0.0574605237 -7.2e-05 2.14923721 -7.2e-05 2.14923721 4.7288088 0.0574605237 4.7288088"></polygon><polygon id="path-3" points="0 0.00110169113 35.996544 0.00110169113 35.996544 28.2959784 0 28.2959784"></polygon></defs><g id="UI" stroke="none" stroke-width="1" fill="none" fill-rule="evenodd"><g id="Careers" transform="translate(-224.000000, -1776.000000)"><g id="Icon/Party" transform="translate(222.000000, 1774.000000)"><g id="Group-21" transform="translate(2.000000, 2.000000)"><path d="M29.0386224,5.6298528 L30.9032784,2.6401248 C31.0922784,2.3370768 30.9994704,1.9366128 30.6963504,1.7475408 C30.5494704,1.6558848 30.3757344,1.6270848 30.2072544,1.6661088 C30.0387024,1.7052768 29.8953504,1.8076608 29.8037664,1.9545408 L27.9391824,4.9441248 C27.8476704,5.0909328 27.8187264,5.2646688 27.8578224,5.4332928 C27.8969184,5.6018448 27.9992304,5.7451248 28.1461104,5.8367088 C28.2492144,5.9010048 28.3674384,5.9349888 28.4879664,5.9349888 C28.7136144,5.9349888 28.9195344,5.8208688 29.0386224,5.6298528" id="Fill-1" fill="#59C9A5"></path><g id="Group-5" transform="translate(23.256000, 0.000072)"><mask id="mask-2" fill="white"><use xlink:href="#path-1"></use></mask><g id="Clip-4"></g><path d="M1.6469784,4.7118888 C1.8160344,4.6727208 1.9592424,4.5703368 2.0508264,4.4235288 C2.1424104,4.2767208 2.1713544,4.1029848 2.1322584,3.9344328 L1.3367304,0.5019048 C1.2976344,0.3332088 1.1953224,0.1898568 1.0484424,0.0982728 C0.9444744,0.0333288 0.8269704,-7.92e-05 0.7073784,-7.92e-05 C0.6582744,-7.92e-05 0.6087384,0.0056088 0.5596344,0.0169848 C0.3907224,0.0561528 0.2475144,0.1585368 0.1558584,0.3053448 C0.0643464,0.4521528 0.0353304,0.6258888 0.0744264,0.7944408 L0.8699544,4.2270408 C0.9384264,4.5224568 1.1975544,4.7288088 1.5001704,4.7288088 C1.5494184,4.7288088 1.5988104,4.7231208 1.6469784,4.7118888" id="Fill-3" fill="#59C9A5" mask="url(#mask-2)"></path></g><path d="M31.1276736,8.761536 L34.5607056,7.965864 C34.7292576,7.92684 34.8725376,7.824456 34.9641216,7.677576 C35.0557056,7.530768 35.0846496,7.357104 35.0455536,7.188552 C35.0063856,7.019784 34.9040016,6.87636 34.7571936,6.784704 C34.6532976,6.719832 34.5357936,6.686424 34.4162016,6.686424 C34.3670256,6.686424 34.3175616,6.692112 34.2684576,6.703488 L30.8355696,7.499088 C30.6670896,7.538184 30.5237376,7.64064 30.4321536,7.787448 C30.3405696,7.934328 30.3116256,8.107992 30.3507216,8.276544 L30.3507936,8.276688 C30.4191936,8.572104 30.6783216,8.778384 30.9809376,8.778384 C31.0301856,8.778384 31.0795776,8.772696 31.1276736,8.761536" id="Fill-6" fill="#59C9A5"></path><path d="M11.553624,4.422204 C11.553624,4.075524 11.2716,3.7935 10.92492,3.7935 C10.578168,3.7935 10.296144,4.075524 10.296144,4.422204 C10.296144,4.768884 10.578168,5.05098 10.92492,5.05098 C11.2716,5.05098 11.553624,4.768884 11.553624,4.422204" id="Fill-8" fill="#06092B"></path><path d="M12.6287712,13.1845824 C12.6287712,12.8379024 12.3467472,12.5558784 12.0000672,12.5558784 C11.6533152,12.5558784 11.3712912,12.8379024 11.3712912,13.1845824 C11.3712912,13.5312624 11.6533152,13.8133584 12.0000672,13.8133584 C12.3467472,13.8133584 12.6287712,13.5312624 12.6287712,13.1845824" id="Fill-10" fill="#06092B"></path><path d="M7.3561104,1.7807328 C7.0094304,1.7807328 6.7274064,2.0627568 6.7274064,2.4095088 C6.7274064,2.7561888 7.0094304,3.0382128 7.3561104,3.0382128 C7.7027904,3.0382128 7.9848144,2.7561888 7.9848144,2.4095088 C7.9848144,2.0627568 7.7027904,1.7807328 7.3561104,1.7807328" id="Fill-12" fill="#06092B"></path><path d="M6.8774544,6.2648784 C6.8774544,5.9181984 6.5954304,5.6361744 6.2487504,5.6361744 C5.9019984,5.6361744 5.6199744,5.9181984 5.6199744,6.2648784 C5.6199744,6.6115584 5.9019984,6.8936544 6.2487504,6.8936544 C6.5954304,6.8936544 6.8774544,6.6115584 6.8774544,6.2648784" id="Fill-14" fill="#06092B"></path><g id="Group-18" transform="translate(0.000000, 7.704072)"><mask id="mask-4" fill="white"><use xlink:href="#path-3"></use></mask><g id="Clip-17"></g><path d="M31.3774272,23.7757464 L33.8548032,25.1212824 L30.5443152,26.5148424 L31.3774272,23.7757464 Z M28.1413872,16.5109464 C27.7137792,16.6908744 27.2635632,16.7809464 26.8132752,16.7809464 C26.3759472,16.7809464 25.9386192,16.6959864 25.5214512,16.5260664 L25.5213792,16.5260664 C24.6745872,16.1809704 24.0129072,15.5268504 23.6583072,14.6840904 L20.6458992,7.5284424 L29.2186512,10.2473784 L29.9681712,12.0278664 C30.3224832,12.8693304 30.3273072,13.7995704 29.9819232,14.6471544 C29.6365392,15.4947384 28.9828512,16.1566344 28.1413872,16.5109464 L28.1413872,16.5109464 Z M19.2253392,4.1542344 L25.5352752,1.4978664 L28.5581952,8.6784984 L19.9853712,5.9597064 L19.2253392,4.1542344 Z M14.7409632,8.9767224 L6.1682832,11.6955144 L10.4612112,1.4978664 L16.7710752,4.1542344 L14.7409632,8.9767224 Z M12.3383232,14.6840904 L12.3383952,14.6840904 C11.8026432,15.9566904 10.5628032,16.7790024 9.1797552,16.7790024 L9.1793952,16.7790024 C8.7234192,16.7790024 8.2778832,16.6887864 7.8552432,16.5108744 C6.6501072,16.0034904 5.8294512,14.8297464 5.7645792,13.5205704 L5.7480912,13.1880744 L14.0805792,10.5453864 L12.3383232,14.6840904 Z M2.1417552,25.1212824 L4.6190592,23.7757464 L5.4522432,26.5148424 L2.1417552,25.1212824 Z M29.5225632,28.2959784 C29.6092512,28.2959784 29.6937792,28.2789144 29.7736992,28.2452904 L35.6000112,25.7926104 C35.8281072,25.6965624 35.9834832,25.4748024 35.9957952,25.2275544 C36.0080352,24.9802344 35.8754832,24.7442184 35.6578272,24.6260664 L31.4943552,22.3646184 L29.3277312,17.3629224 L29.6054352,17.1590904 C31.3724592,15.8616504 32.0127552,13.5447624 31.1624352,11.5249464 C30.7828512,10.6222104 29.4476112,7.4508264 28.2799872,4.6776744 C27.4807872,2.7792504 26.7600672,1.0674504 26.4782592,0.3978504 C26.4110832,0.2384424 26.2858752,0.1146744 26.1256752,0.0493704 C25.9677792,-0.0150696 25.7869872,-0.0141336 25.6297392,0.0521064 L17.9983152,3.2648904 L10.3668912,0.0521784 C10.2072672,-0.0149256 10.0312992,-0.0159336 9.8711712,0.0492984 C9.7106832,0.1147464 9.5854032,0.2385144 9.5182992,0.3979944 L4.8340512,11.5249464 C4.6989072,11.8461384 4.5991152,12.1857624 4.5374112,12.5344584 L4.5337392,12.5529624 C4.5293472,12.5729064 4.5258192,12.5934264 4.5231552,12.6140904 L4.5213552,12.6272664 C4.2525072,14.3487864 4.9864032,16.1275464 6.3911232,17.1588744 L6.6687552,17.3627784 L4.5020592,22.3644744 L0.3386592,24.6260664 C0.1211472,24.7442184 -0.0115488,24.9803064 0.0007632,25.2274824 C0.0130752,25.4748024 0.1684512,25.6965624 0.3965472,25.7926104 L6.2227152,28.2452184 C6.4508112,28.3413384 6.7244112,28.2948984 6.9080112,28.1292984 C7.0937712,27.9617544 7.1667792,27.6988824 7.0939872,27.4595544 L5.6968272,22.8665304 L7.8499152,17.8960104 L8.1965952,17.9709624 C9.1364112,18.1737864 10.0846512,18.0843624 10.9639872,17.7260904 C12.1312512,17.2503864 13.0434912,16.3486584 13.5325872,15.1870104 L17.9982432,4.5790344 L22.4638992,15.1869384 C22.9529232,16.3486584 23.8650912,17.2503864 25.0323552,17.7260904 C25.9117632,18.0843624 26.8593552,18.1742184 27.7998192,17.9708184 L28.1464272,17.8958664 L30.2996592,22.8664584 L28.9024992,27.4595544 C28.8297072,27.6988824 28.9027152,27.9618264 29.0884752,28.1293704 C29.2076352,28.2367944 29.3619312,28.2959784 29.5225632,28.2959784 L29.5225632,28.2959784 Z" id="Fill-16" fill="#06092B" mask="url(#mask-4)"></path></g><path d="M27.27054,20.7080208 C27.27054,20.3613408 26.988516,20.0793168 26.641836,20.0793168 C26.295084,20.0793168 26.01306,20.3613408 26.01306,20.7080208 C26.01306,21.0547008 26.295084,21.3367248 26.641836,21.3367248 C26.988516,21.3367248 27.27054,21.0547008 27.27054,20.7080208" id="Fill-19" fill="#06092B"></path></g></g></g></g></svg> 