<?xml version="1.0" encoding="UTF-8"?> <svg xmlns="http://www.w3.org/2000/svg" xmlns:xlink="http://www.w3.org/1999/xlink" width="66px" height="66px" viewBox="0 0 66 66" version="1.1"><!-- Generator: Sketch 63.1 (92452) - https://sketch.com --><title>Icon/Ad-mapper</title><desc>Created with Sketch.</desc><defs><polygon id="path-1" points="0 -0.000233067729 65.0001295 -0.000233067729 65.0001295 65 0 65"></polygon></defs><g id="UI" stroke="none" stroke-width="1" fill="none" fill-rule="evenodd"><g id="Products" transform="translate(-865.000000, -801.000000)"><g id="Post" transform="translate(810.000000, 771.000000)"><g id="Icon/Revenue-booster-2" transform="translate(48.000000, 23.000000)"><g id="Revenue-booster-icon"><rect id="Background" x="0" y="0" width="80" height="80"></rect><g id="Group-26" transform="translate(7.500000, 7.500000)"><path d="M49.5576185,6.81570319 L49.5501086,6.81570319 C49.1951982,6.81570319 48.9064532,7.10613147 48.9064532,7.46311355 C48.9064532,7.82009562 49.1985647,8.1105239 49.557489,8.1105239 C49.9144711,8.1105239 50.2048994,7.82009562 50.2048994,7.46311355 C50.2048994,7.10613147 49.9146006,6.81570319 49.5576185,6.81570319 Z" id="Fill-1" fill="#06092B"></path><path d="M57.1931375,7.46311355 C57.1931375,7.10613147 56.9028386,6.81570319 56.5458566,6.81570319 L56.5384761,6.81570319 C56.1834363,6.81570319 55.8946912,7.10613147 55.8946912,7.46311355 C55.8946912,7.82009562 56.1868028,8.1105239 56.5457271,8.1105239 C56.9027092,8.1105239 57.1931375,7.82009562 57.1931375,7.46311355" id="Fill-3" fill="#06092B"></path><path d="M43.2166614,7.46311355 C43.2166614,7.10613147 42.9263625,6.81570319 42.5693805,6.81570319 L42.562,6.81570319 C42.2070896,6.81570319 41.9183446,7.10613147 41.9183446,7.46311355 C41.9183446,7.82009562 42.2103267,8.1105239 42.569251,8.1105239 C42.9262331,8.1105239 43.2166614,7.82009562 43.2166614,7.46311355 Z" id="Fill-5" fill="#06092B"></path><path d="M8.45031076,6.81570319 C8.09332869,6.81570319 7.8029004,7.10613147 7.8029004,7.46311355 C7.8029004,7.82009562 8.09332869,8.1105239 8.45031076,8.1105239 L27.9065458,8.1105239 C28.2635279,8.1105239 28.5539562,7.82009562 28.5539562,7.46311355 C28.5539562,7.10613147 28.2635279,6.81570319 27.9065458,6.81570319 L8.45031076,6.81570319 Z" id="Fill-7" fill="#06092B"></path><g id="Group-11" transform="translate(0.000000, 0.000259)"><mask id="mask-2" fill="white"><use xlink:href="#path-1"></use></mask><g id="Clip-10"></g><path d="M63.7051793,13.6348765 L1.29482072,13.6348765 L1.29482072,3.5064004 C1.29482072,2.28680876 2.28704183,1.29458765 3.50663347,1.29458765 L61.493496,1.29458765 C62.7130876,1.29458765 63.7051793,2.28680876 63.7051793,3.5064004 L63.7051793,13.6348765 Z M63.7051793,51.4512809 C63.7051793,52.6708725 62.7130876,53.6630936 61.493496,53.6630936 L53.9120618,53.6630936 L53.9120618,26.3539004 C53.9120618,24.0500259 52.0378088,22.1756434 49.7338048,22.1756434 L38.3080478,22.1756434 C37.9511952,22.1756434 37.6606375,22.4660717 37.6606375,22.8230538 C37.6606375,23.1800359 37.9511952,23.4704641 38.3080478,23.4704641 L49.7338048,23.4704641 C51.3237151,23.4704641 52.617241,24.76399 52.617241,26.3539004 L52.617241,60.8216394 C52.617241,62.4115498 51.3237151,63.7050757 49.7338048,63.7050757 L15.2661952,63.7050757 C13.6762849,63.7050757 12.382759,62.4115498 12.382759,60.8216394 L12.382759,26.3539004 C12.382759,24.76399 13.6762849,23.4704641 15.2661952,23.4704641 L26.6770618,23.4704641 C27.0340438,23.4704641 27.3244721,23.1800359 27.3244721,22.8230538 C27.3244721,22.4660717 27.0340438,22.1756434 26.6770618,22.1756434 L15.2661952,22.1756434 C12.9621912,22.1756434 11.0879382,24.0500259 11.0879382,26.3539004 L11.0879382,53.6630936 L3.50663347,53.6630936 C2.28704183,53.6630936 1.29482072,52.6708725 1.29482072,51.4512809 L1.29482072,14.9296972 L63.7051793,14.9296972 L63.7051793,51.4512809 Z M65.0001295,3.5064004 C65.0001295,1.57284462 63.4270518,-0.000233067729 61.493496,-0.000233067729 L3.50663347,-0.000233067729 C1.57294821,-0.000233067729 0,1.57284462 0,3.5064004 L0,51.4514104 C0,53.3849661 1.57294821,54.9580438 3.50663347,54.9580438 L11.0879382,54.9580438 L11.0879382,60.8217689 C11.0879382,63.1256434 12.9621912,65.0000259 15.2661952,65.0000259 L49.7339343,65.0000259 C52.0378088,65.0000259 53.9121912,63.1256434 53.9121912,60.8217689 L53.9121912,54.9580438 L61.4936255,54.9580438 C63.4271813,54.9580438 65.0001295,53.3849661 65.0001295,51.4514104 L65.0001295,3.5064004 Z" id="Fill-9" fill="#06092B" mask="url(#mask-2)"></path></g><path d="M18.0020478,34.2048904 L18.0020478,29.0899602 L23.1169781,29.0899602 C23.4739602,29.0899602 23.7643884,28.7995319 23.7643884,28.4425498 C23.7643884,28.0855677 23.4739602,27.7951394 23.1169781,27.7951394 L17.3546375,27.7951394 C16.9976554,27.7951394 16.7072271,28.0855677 16.7072271,28.4425498 L16.7072271,34.2048904 C16.7072271,34.5618725 16.9976554,34.8523008 17.3546375,34.8523008 C17.7116195,34.8523008 18.0020478,34.5618725 18.0020478,34.2048904" id="Fill-12" fill="#59C9A5"></path><path d="M47.6454791,34.8523008 C48.0024612,34.8523008 48.2928894,34.5618725 48.2928894,34.2048904 L48.2928894,28.4425498 C48.2928894,28.0855677 48.0024612,27.7951394 47.6454791,27.7951394 L41.8793835,27.7951394 C41.5224014,27.7951394 41.2319731,28.0855677 41.2319731,28.4425498 C41.2319731,28.7995319 41.5224014,29.0899602 41.8793835,29.0899602 L46.9980687,29.0899602 L46.9980687,34.2048904 C46.9980687,34.5618725 47.288497,34.8523008 47.6454791,34.8523008" id="Fill-14" fill="#59C9A5"></path><path d="M23.1169781,59.3808795 C23.4739602,59.3808795 23.7643884,59.0904512 23.7643884,58.7334691 C23.7643884,58.3764871 23.4739602,58.0860588 23.1169781,58.0860588 L18.0020478,58.0860588 L18.0020478,52.9673735 C18.0020478,52.6103914 17.7116195,52.3199631 17.3546375,52.3199631 C16.9976554,52.3199631 16.7072271,52.6103914 16.7072271,52.9673735 L16.7072271,58.7334691 C16.7072271,59.0904512 16.9976554,59.3808795 17.3546375,59.3808795 L23.1169781,59.3808795 Z" id="Fill-16" fill="#59C9A5"></path><path d="M47.6454791,52.3199243 C47.288497,52.3199243 46.9980687,52.6103526 46.9980687,52.9673347 L46.9980687,58.0860199 L41.8793835,58.0860199 C41.5224014,58.0860199 41.2319731,58.3764482 41.2319731,58.7334303 C41.2319731,59.0904124 41.5224014,59.3808406 41.8793835,59.3808406 L47.6454791,59.3808406 C48.0024612,59.3808406 48.2928894,59.0904124 48.2928894,58.7334303 L48.2928894,52.9673347 C48.2928894,52.6103526 48.0024612,52.3199243 47.6454791,52.3199243" id="Fill-18" fill="#59C9A5"></path><path d="M32.4982261,46.2530548 C31.0296404,46.2530548 29.8350388,45.0566404 29.8350388,43.5861125 C29.8350388,42.1176564 31.0296404,40.9229253 32.4982261,40.9229253 C33.9686245,40.9229253 35.1650388,42.1176564 35.1650388,43.5861125 C35.1650388,45.0566404 33.9686245,46.2530548 32.4982261,46.2530548 M32.4982261,39.6281046 C30.3158058,39.6281046 28.5402181,41.4036922 28.5402181,43.5861125 C28.5402181,45.7706046 30.3158058,47.5478755 32.4982261,47.5478755 C34.6825886,47.5478755 36.4598596,45.7706046 36.4598596,43.5861125 C36.4598596,41.4036922 34.6825886,39.6281046 32.4982261,39.6281046" id="Fill-20" fill="#59C9A5"></path><path d="M21.6976086,39.325505 L23.4015926,38.0802759 L22.6889233,40.0667898 C22.282738,41.199499 22.0767321,42.3836125 22.0767321,43.5861125 C22.0767321,44.7893894 22.282997,45.9741504 22.6899592,47.107248 L23.4034054,49.0941504 L21.6987739,47.8489213 C19.2033954,46.0259432 18.1126384,44.3288217 18.0113835,43.6873675 L17.9953277,43.5858536 L18.0115129,43.4844691 C18.1135448,42.8434034 19.2045608,41.1473177 21.6976086,39.325505 L21.6976086,39.325505 Z M26.3724293,36.8270189 L26.4651384,36.7429851 L26.5824492,36.6996086 C28.5529074,35.970495 30.5431763,35.6008237 32.4983556,35.6008237 C34.4552181,35.6008237 36.4474293,35.9711424 38.4195707,36.7012918 L38.5371404,36.7449273 L38.6301086,36.8293496 C40.5332361,38.5581942 41.6246404,41.0210727 41.6246404,43.5861125 C41.6246404,46.147009 40.5353078,48.6088516 38.6360647,50.3406743 L38.5429671,50.4256145 L38.42475,50.46925 C36.4509253,51.2004353 34.4570309,51.5711424 32.4982261,51.5711424 C30.5412341,51.5711424 28.5490229,51.2010827 26.5771404,50.4710627 L26.4590528,50.4274273 L26.3662141,50.3428755 C24.4630867,48.6119592 23.3716823,46.1492102 23.3716823,43.5859831 C23.3716823,41.0182241 24.4654173,38.5546982 26.3724293,36.8270189 L26.3724293,36.8270189 Z M43.2981962,39.3235627 C45.7935747,41.1460229 46.8860149,42.842756 46.9884353,43.4842102 L47.0046205,43.5858536 L46.9885647,43.6876265 C46.8867918,44.3295986 45.7946106,46.027497 43.2969014,47.8508635 L41.5929173,49.0946683 L42.3058456,47.1090608 C42.7130667,45.9753157 42.9193317,44.7900369 42.9193317,43.5859831 C42.9194612,42.3830946 42.7134552,41.1984631 42.307011,40.0649771 L41.594989,38.079758 L43.2981962,39.3235627 Z M16.70724,43.5861125 C16.70724,45.2460727 19.0752082,47.6221982 21.4220707,49.2405946 C23.3854074,50.5945886 27.4353476,52.8660926 32.4982261,52.8660926 C37.5609751,52.8660926 41.6119512,50.5947181 43.5760647,49.2407241 C45.9239631,47.6220687 48.2928376,45.2459432 48.2928376,43.5861125 C48.2928376,41.9278357 45.9239631,39.5520986 43.5761942,37.9331843 C41.6115627,36.5785428 37.5600687,34.3061325 32.4982261,34.3061325 C27.435995,34.3061325 23.3857958,36.5786723 21.4219412,37.9331843 C19.0752082,39.5519691 16.70724,41.9277062 16.70724,43.5861125 L16.70724,43.5861125 Z" id="Fill-22" fill="#59C9A5"></path><path d="M32.4982261,23.4707231 C32.8541723,23.4707231 33.1436942,23.1802948 33.1436942,22.8233127 C33.1436942,22.4663307 32.852489,22.1759024 32.4946006,22.1759024 C32.1376185,22.1759024 31.8471902,22.4663307 31.8471902,22.8233127 C31.8471902,23.1802948 32.1376185,23.4707231 32.4946006,23.4707231 L32.4982261,23.4707231 Z" id="Fill-24" fill="#06092B"></path></g></g></g></g></g></g></svg> 