<?xml version="1.0" encoding="UTF-8"?> <svg xmlns="http://www.w3.org/2000/svg" xmlns:xlink="http://www.w3.org/1999/xlink" width="34px" height="34px" viewBox="0 0 34 34" version="1.1"><!-- Generator: Sketch 63.1 (92452) - https://sketch.com --><title>Icon/Health Copy 2</title><desc>Created with Sketch.</desc><defs><polygon id="path-1" points="0.0674425174 0.0674897271 30.132483 0.0674897271 30.132483 30.1415528 0.0674425174 30.1415528"></polygon></defs><g id="UI" stroke="none" stroke-width="1" fill="none" fill-rule="evenodd"><g id="Careers" transform="translate(-1009.000000, -1670.000000)"><g id="Icon/Project" transform="translate(1006.000000, 1667.000000)"><g id="Group-8" transform="translate(3.000000, 3.000000)"><path d="M23.4802032,13.9751401 C23.0038639,14.4514116 22.378291,14.6894794 21.7527182,14.6894794 C21.1270774,14.6894794 20.5015046,14.4514116 20.025301,13.9751401 C19.5644347,13.5142739 19.3106902,12.9007808 19.3106902,12.247723 C19.3106902,11.5945972 19.5644347,10.9811042 20.025301,10.5203058 C20.977776,9.5678986 22.5276603,9.56783074 23.4801353,10.5203058 C24.4326104,11.4727808 24.4326104,13.0225972 23.4802032,13.9751401 M25.415285,12.247723 C25.415285,11.267695 25.0347022,10.3475234 24.3439118,9.65666507 C23.6519677,8.96478882 22.7317281,8.5837988 21.7526503,8.5837988 C20.7735046,8.5837988 19.8534008,8.96478882 19.1616603,9.65659721 L19.1615924,9.65666507 C17.7329138,11.0853437 17.7329138,13.4100343 19.1616603,14.8388487 C19.8534687,15.5306571 20.7737082,15.9116471 21.752786,15.9116471 C22.7319317,15.9116471 23.6520355,15.5305892 24.3438439,14.8388487 C25.0347022,14.1479226 25.415285,13.2277509 25.415285,12.247723" id="Fill-1" fill="#06092B"></path><g id="Group-5" transform="translate(3.800399, 0.000407)"><mask id="mask-2" fill="white"><use xlink:href="#path-1"></use></mask><g id="Clip-4"></g><path d="M28.0870878,9.13254251 L27.9103693,9.82577605 L20.373024,2.28829501 L21.0680898,2.11259441 C24.167994,1.32882994 27.0567046,1.26619122 28.5035709,1.29856248 L28.892501,1.30731697 L28.9014591,1.69631497 C28.9592794,4.20396766 28.6700419,6.84490579 28.0870878,9.13254251 L28.0870878,9.13254251 Z M27.3897146,11.3692132 C26.5612954,13.5864747 25.4201577,15.4317042 23.9982655,16.8535964 C20.4735988,20.3781952 17.5247605,21.4205904 13.0611238,22.9983669 C12.2873353,23.2718599 11.4872156,23.5547182 10.6216068,23.8721194 L10.3773633,23.9617002 L6.23784631,19.8221832 L6.32735928,19.5780076 C6.64584631,18.7096164 6.92951896,17.9058319 7.20382635,17.1285824 C8.77549501,12.6753968 9.81381836,9.73341277 13.3458822,6.2013489 C14.7757146,4.7714487 16.6200619,3.62942874 18.8278902,2.80684591 L19.0729481,2.7155006 L27.4813313,11.1239517 L27.3897146,11.3692132 Z M20.5922934,27.9843549 L17.2951078,22.733289 L17.7326287,22.5456443 C19.2779661,21.8830176 20.5569361,21.1840156 21.7576587,20.345824 L22.6481737,19.7241872 L20.5922934,27.9843549 Z M2.21715968,9.61308942 L10.4781417,7.54777605 L9.8553513,8.43978403 C9.01607385,9.64179601 8.31625749,10.9221912 7.65308782,12.4691573 L7.46557884,12.9066104 L2.21715968,9.61308942 Z M7.49394611,22.8056323 L9.79101597,25.1027701 C9.95965868,25.2712092 10.2129281,25.3263828 10.4364052,25.2430455 C11.5233872,24.8374208 12.514002,24.4875804 13.4720419,24.1494128 C14.2991038,23.857325 15.0803573,23.5815246 15.8236747,23.3042311 L16.1344251,23.188319 L20.3201577,29.8547621 C20.4509321,30.0631054 20.693004,30.1726383 20.9355509,30.13382 C21.1784371,30.0950695 21.3738184,29.9157721 21.4332675,29.6769577 L24.26599,18.2961194 L24.3521098,18.2143429 C24.52401,18.0511293 24.695503,17.8840475 24.8618383,17.7175086 C28.0593313,14.5201513 29.3062016,10.0505425 29.7890559,6.86404351 C30.3093713,3.43085788 30.0865729,0.789308982 30.0768004,0.678486627 C30.0509441,0.382326946 29.8174232,0.148805988 29.5214671,0.123017565 C29.4103733,0.11324511 26.7654311,-0.109078244 23.3356387,0.410694212 C20.1491397,0.893616367 15.6796667,2.14041876 12.4822415,5.33777605 C12.3150918,5.50492575 12.1483493,5.67601158 11.9866966,5.84628303 L11.9051238,5.9321992 L0.530053892,8.7758479 C0.292257485,8.83529701 0.113638723,9.03020319 0.0750918164,9.27241078 C0.0365449102,9.5145505 0.145874251,9.75526507 0.353606786,9.88563234 L7.01183832,14.0638998 L6.89585828,14.374786 C6.77017365,14.7117321 6.43838523,15.6408619 6.0870519,16.6244866 C5.66161078,17.8159118 5.17936727,19.166275 4.95656886,19.7634128 C4.87316367,19.986822 4.92826946,20.2400914 5.09684431,20.4087341 L7.39398204,22.7057361 L7.49394611,22.8056323 Z" id="Fill-3" fill="#06092B" mask="url(#mask-2)"></path></g><path d="M9.80356407,29.0886559 C9.46994331,29.4222088 8.3540511,30.1752986 4.62782754,31.4717776 C3.88871776,31.7289832 3.09138044,31.9916858 2.25793932,32.252624 L1.51509701,32.4852627 L1.74773573,31.7424204 C2.01023473,30.9042966 2.27395529,30.1039733 2.53163593,29.3637776 C3.82621477,25.6444084 4.57842236,24.530077 4.91163593,24.1968635 C6.26037046,22.8481968 8.45482954,22.8482647 9.80356407,24.1967956 C11.1522307,25.5455301 11.1522307,27.7399892 9.80356407,29.0886559 M10.6224822,23.2859892 C9.71798723,22.4059932 8.53708104,21.9668435 7.35698922,21.9668435 C6.15511297,21.9668435 4.95411896,22.422077 4.04548423,23.3306439 C3.321101,24.055095 2.42149222,25.9524443 1.37156407,28.9700291 C0.60971976,31.160077 0.0467177645,33.1378455 0.0231688623,33.2210471 C-0.0372982036,33.4342088 0.0226259481,33.6642008 0.179392415,33.8209673 L0.179460279,33.8210351 C0.336226747,33.9778695 0.566083034,34.0377936 0.779516168,33.977123 C0.799875449,33.9713545 2.80892934,33.4016339 5.03046627,32.6287277 C8.0478475,31.5788675 9.94519681,30.6792587 10.6697836,29.9549433 C12.4706978,28.1539613 12.4907856,25.2035621 10.7145741,23.3778774" id="Fill-6" fill="#59C9A5"></path></g></g></g></g></svg> 