<?xml version="1.0" encoding="UTF-8"?> <svg xmlns="http://www.w3.org/2000/svg" xmlns:xlink="http://www.w3.org/1999/xlink" width="50px" height="50px" viewBox="0 0 50 50" version="1.1"><!-- Generator: Sketch 63.1 (92452) - https://sketch.com --><title>Icon/Revenue-booster Copy 3</title><desc>Created with Sketch.</desc><g id="UI" stroke="none" stroke-width="1" fill="none" fill-rule="evenodd"><g id="About-us-(Mobile)" transform="translate(-31.000000, -4355.000000)"><g id="Icon/Why-us-4" transform="translate(24.000000, 4348.000000)"><g id="Group" transform="translate(8.000000, 8.000000)"><path d="M38.0718502,29.4273753 C38.2597386,29.2430247 38.262894,28.9400127 38.0789259,28.7518375 L38.0309259,28.7032637 C37.9389418,28.6113753 37.817412,28.565192 37.6954996,28.565192 C37.5729179,28.565192 37.4499538,28.6118534 37.3565355,28.7052717 C37.1702725,28.8915347 37.1702725,29.1949291 37.3567267,29.3815745 L37.3936351,29.4186741 C37.4862884,29.5131442 37.6076271,29.5641084 37.7371888,29.5641084 C37.8630215,29.5641084 37.9819697,29.5155347 38.0718502,29.4273753" id="Fill-1" stroke="#06092B" stroke-width="0.3" fill="#06092B"></path><path d="M33.3675347,26.7728701 C31.6051124,26.7728701 29.9482518,27.4591171 28.7023554,28.7052048 C27.4562677,29.9514837 26.7699251,31.6083442 26.7699251,33.3704797 C26.7699251,35.132902 27.4561721,36.7897625 28.7022598,38.035659 C29.9463394,39.279643 31.6031044,39.9647426 33.3675347,39.9647426 C35.1319649,39.9647426 36.7887299,39.279643 38.0328096,38.035659 C39.4245227,36.6438502 40.1185147,34.7205992 39.9368414,32.7591012 L39.9368414,32.7590056 C39.9250805,32.631643 39.8642677,32.5164239 39.7655904,32.4346709 C39.6675825,32.3533004 39.5436622,32.3152446 39.4177339,32.3271012 C39.289702,32.3389578 39.1746741,32.3995793 39.0931124,32.4977785 C39.0115506,32.5959777 38.9731124,32.7200892 38.9848733,32.8471649 C39.1401562,34.5250614 38.5466582,36.1696829 37.3566024,37.359643 C36.2570008,38.4592446 34.8119331,39.009141 33.3675347,39.0093323 C31.9227538,39.0094279 30.4783554,38.4595315 29.3784669,37.3595474 C28.3130008,36.2939857 27.726196,34.8773163 27.726196,33.3703841 C27.726196,31.863643 28.3130008,30.4469737 29.3783713,29.3813163 C30.4438375,28.3158502 31.8605068,27.7290454 33.3675347,27.7290454 C33.6311522,27.7290454 33.8456223,27.5145753 33.8456223,27.2509578 C33.8456223,26.9873402 33.6311522,26.7728701 33.3675347,26.7728701" id="Fill-3" stroke="#06092B" stroke-width="0.3" fill="#06092B"></path><path d="M47.0408414,35.4236462 L44.7879968,35.4236462 C44.5620526,35.4236462 44.3700526,35.5776861 44.3212876,35.7984669 C44.0375904,37.0792637 43.5349291,38.2896861 42.827455,39.3959809 C42.707455,39.5836781 42.7346104,39.834196 42.8920924,39.9915825 L44.4877578,41.5873434 L41.5843315,44.4907697 L39.9852239,42.8916622 C39.8255426,42.7321721 39.5808574,42.7050167 39.3901004,42.8267378 C38.284188,43.5312478 37.0748175,44.0312319 35.7958375,44.3126343 C35.5784032,44.3605386 35.4205386,44.5569371 35.4205386,44.7796303 L35.4205386,47.0437578 L31.3144351,47.0437578 L31.3144351,44.7762837 C31.3144351,44.5538773 31.1568574,44.3576701 30.9396143,44.3095745 C29.6622598,44.0266422 28.454706,43.5257976 27.3505147,42.8210964 C27.1629131,42.7013833 26.9127777,42.7286343 26.7552956,42.8860207 L25.1506422,44.4906741 L22.2472159,41.5872478 L23.8518693,39.98269 C24.0117418,39.8227219 24.0385147,39.5778454 23.9167936,39.3873753 C23.2119968,38.2831841 22.7112478,37.0756303 22.4284112,35.7982757 C22.3795506,35.5775904 22.1875506,35.4235506 21.9616064,35.4235506 L19.6941323,35.4235506 L19.6941323,31.317447 L21.958451,31.317447 C22.1811442,31.317447 22.3775426,31.1594869 22.425447,30.9418614 C22.7068494,29.6630725 23.2067378,28.453702 23.911439,27.347694 C24.0328733,27.1572239 24.0061004,26.912443 23.8463235,26.7526661 L22.2472159,25.1537498 L25.1506422,22.2503235 L26.7463076,23.8457976 C26.9038853,24.0032797 27.1544032,24.0306263 27.3420048,23.9106263 C28.4482996,23.2030566 29.6586263,22.7004908 30.9396143,22.4167936 C31.1602996,22.3678375 31.3144351,22.1759331 31.3144351,21.9498932 L31.3144351,19.6971442 L35.4205386,19.6971442 L35.4205386,21.9468335 C35.4205386,22.1694311 35.5784032,22.3659251 35.7959331,22.4138295 C37.078451,22.6959968 38.2905944,23.1978932 39.3988016,23.9053673 C39.5863076,24.0247936 39.8368255,23.9977339 39.994212,23.840443 L41.5842359,22.2503235 L44.4876622,25.1538454 L42.8975426,26.7438693 C42.7401562,26.9012558 42.7129052,27.1515825 42.8326183,27.3391841 C43.540188,28.4473912 44.0419888,29.6597259 44.3242518,30.9423394 C44.3721562,31.1596781 44.5685546,31.3175426 44.7912478,31.3175426 L47.0408414,31.3175426 L47.0408414,35.4236462 Z M47.9970167,35.901447 L47.9970167,30.8392637 C47.9970167,30.7116143 47.9472956,30.5915187 47.8570327,30.5013514 C47.7667697,30.4109928 47.6466741,30.3612717 47.5190247,30.3612717 L45.1748653,30.3612717 L45.0759012,30.0142757 C44.8232797,29.128188 44.4680606,28.2701163 44.020188,27.4639649 L43.8451124,27.1487139 L45.5020685,25.4918534 C45.6884271,25.3053992 45.6884271,25.0020048 45.5019729,24.8155506 L41.9225307,21.2359171 C41.7361721,21.0498454 41.4328733,21.0495586 41.2461323,21.2360127 L39.5891761,22.8929689 L39.2739251,22.7177976 C38.4678693,22.2698295 37.6097976,21.914706 36.7238056,21.6620845 L36.3768096,21.5631203 L36.3768096,19.2190566 C36.3768096,18.9555347 36.1623394,18.7409689 35.8987219,18.7409689 L30.836443,18.7409689 C30.5728255,18.7409689 30.3583554,18.9555347 30.3583554,19.2190566 L30.3583554,21.5668494 L30.0119331,21.6661004 C29.1269928,21.9196781 28.2706422,22.2752797 27.46669,22.7228653 L27.1512478,22.8985147 L25.4889371,21.2360127 C25.3025785,21.049941 24.9991841,21.0496542 24.8125386,21.2361084 L21.2330008,24.8156462 C21.0466422,25.0021004 21.0466422,25.3054948 21.2330964,25.491949 L22.8993275,27.1581801 L22.7245386,27.4732398 C22.278961,28.277192 21.9254629,29.1321084 21.6737976,30.0143713 L21.5748335,30.3613673 L19.2160446,30.3613673 C18.9524271,30.3613673 18.737957,30.5758375 18.737957,30.839455 L18.737957,35.9017339 C18.737957,36.1653514 18.9524271,36.3798215 19.2160446,36.3798215 L21.5783713,36.3798215 L21.6776223,36.7261482 C21.9302438,37.6075506 22.2841243,38.4608414 22.7294151,39.2623076 L22.9046821,39.5774629 L21.2330008,41.2491442 C21.0466422,41.4355984 21.0466422,41.7388972 21.2330008,41.9253514 L24.8126343,45.5050805 C24.9990884,45.6912478 25.3024829,45.691439 25.4890327,45.5048892 L27.1605227,43.8333992 L27.4757737,44.0084749 C28.2775267,44.453957 29.1307219,44.8079331 30.0118375,45.0603633 L30.3581641,45.1596143 L30.3581641,47.5218454 C30.3581641,47.7854629 30.5727299,47.9999331 30.8362518,47.9999331 L35.8986263,47.9999331 C36.1622438,47.9999331 36.3767139,47.7854629 36.3767139,47.5218454 L36.3767139,45.1630566 L36.72371,45.0640924 C37.6062598,44.8123315 38.4611761,44.4588335 39.2647458,44.0133514 L39.5799012,43.8386582 L41.2460367,45.5049849 C41.4324908,45.690961 41.7359809,45.6911522 41.9225307,45.5047936 L45.5019729,41.9252558 C45.5923315,41.8349928 45.641957,41.7148972 45.641957,41.5872478 C45.641957,41.4595028 45.5923315,41.3394072 45.5018773,41.2490486 L43.8395665,39.5866422 L44.0150247,39.2712956 C44.4630884,38.4665785 44.81869,37.6102279 45.0718853,36.725957 L45.1711363,36.3795347 L47.5189291,36.3795347 C47.7825466,36.3795347 47.9970167,36.1650645 47.9970167,35.901447 L47.9970167,35.901447 Z" id="Fill-5" stroke="#06092B" stroke-width="0.3" fill="#06092B"></path><path d="M12.2390534,16.7330295 C9.76102948,16.7330295 7.74502948,14.7170295 7.74502948,12.2390056 C7.74502948,9.76098167 9.76102948,7.74498167 12.2390534,7.74498167 C14.7170773,7.74498167 16.7330773,9.76098167 16.7330773,12.2390056 C16.7330773,14.7170295 14.7170773,16.7330295 12.2390534,16.7330295 M12.2390534,6.78880637 C9.23379442,6.78880637 6.78885418,9.23374661 6.78885418,12.2390056 C6.78885418,15.2442645 9.23379442,17.6892048 12.2390534,17.6892048 C15.2443124,17.6892048 17.6892526,15.2442645 17.6892526,12.2390056 C17.6892526,9.23374661 15.2443124,6.78880637 12.2390534,6.78880637" id="Fill-7" stroke="#06092B" stroke-width="0.3" fill="#06092B"></path><path d="M23.5221992,13.8648287 L21.7307092,13.8648287 C21.5046693,13.8648287 21.3127649,14.0188685 21.2639044,14.2394582 C21.0302151,15.2949801 20.6160956,16.2921753 20.0332112,17.203506 C19.9132112,17.3911076 19.9403665,17.6416255 20.0978486,17.7991076 L21.3669801,19.0681434 L19.0681434,21.3669801 L17.796239,20.0949801 C17.6360797,19.9349163 17.3915857,19.9081434 17.2013068,20.0295777 C16.2896892,20.6101673 15.2934502,21.0221833 14.2399363,21.2539602 C14.0188685,21.3026295 13.8645418,21.4946295 13.8645418,21.7209562 L13.8645418,23.5219124 L10.6135458,23.5219124 L10.6135458,21.7182789 C10.6135458,21.4958725 10.4559681,21.2994741 10.2387251,21.2513785 C9.18645418,21.0183586 8.1916494,20.6058645 7.28194422,20.0252749 C7.09434263,19.9054661 6.84392032,19.9329084 6.68682072,20.0901036 L5.41042231,21.3665976 L3.11149004,19.067761 L4.38807968,17.7912669 C4.5452749,17.6338805 4.57262151,17.3835538 4.45281275,17.1960478 C3.87212749,16.2864382 3.45963347,15.2916335 3.22661355,14.2392669 C3.17775299,14.0185817 2.98575299,13.8645418 2.75971315,13.8645418 L0.956175299,13.8645418 L0.956175299,10.6135458 L2.75722709,10.6135458 C2.97992032,10.6135458 3.17631873,10.4555857 3.22422311,10.2381514 C3.45619124,9.18425498 3.86811155,8.18792032 4.44850996,7.27697211 C4.56803187,7.08946614 4.54058964,6.83923506 4.38339442,6.68203984 L3.11149004,5.41023108 L5.41042231,3.11139442 L6.67936255,4.38043028 C6.836749,4.53781673 7.08736255,4.56516335 7.27496414,4.44506773 C8.18639044,3.86218327 9.18358566,3.44815936 10.2388207,3.21447012 C10.4596016,3.16560956 10.6136414,2.97360956 10.6136414,2.74766534 L10.6136414,0.956175299 L13.8646375,0.956175299 L13.8646375,2.74508367 C13.8646375,2.96777689 14.0224064,3.1641753 14.2399363,3.21198406 C15.2967012,3.4445259 16.2953307,3.8579761 17.2082869,4.44076494 C17.3958884,4.56057371 17.6464064,4.53332271 17.8036016,4.37593625 L19.0680478,3.11158566 L21.3668845,5.41042231 L20.1023426,6.67486853 C19.9451474,6.83215936 19.9178008,7.08248606 20.0376096,7.26999203 C20.6203984,8.18313944 21.0338486,9.18176892 21.2662948,10.2384382 C21.3141992,10.4559681 21.5106932,10.6138327 21.7333865,10.6138327 L23.5221992,10.6138327 L23.5221992,13.8648287 Z M24.4780876,14.3427251 L24.4780876,10.1355538 C24.4780876,9.87193625 24.2636175,9.65746614 24,9.65746614 L22.1163347,9.65746614 L22.0145976,9.31572908 C21.8166693,8.65070916 21.5488446,8.00395219 21.2186773,7.39333865 L21.049243,7.07990438 L22.3808127,5.74833466 C22.4710757,5.65807171 22.5207968,5.5379761 22.5207968,5.41032669 C22.5207968,5.28449402 22.4698327,5.16124303 22.3808127,5.07222311 L19.4058645,2.09746614 C19.2194104,1.91101195 18.9160159,1.91120319 18.7295618,2.09756175 L17.3981833,3.42894024 L17.084749,3.25941036 C16.473753,2.92914741 15.826996,2.66141833 15.1623586,2.46358566 L14.8206215,2.36194422 L14.8206215,0.478087649 C14.8206215,0.21447012 14.6061514,-1.0658141e-14 14.3425339,-1.0658141e-14 L10.1353625,-1.0658141e-14 C9.87174502,-1.0658141e-14 9.6572749,0.21447012 9.6572749,0.478087649 L9.6572749,2.36481275 L9.31620717,2.46683665 C8.6525259,2.66533865 8.00701195,2.93325896 7.39754582,3.26333068 L7.08401594,3.43324303 L5.74823904,2.09717928 C5.56207171,1.91091633 5.25867729,1.91101195 5.07193625,2.09746614 L2.09717928,5.07212749 C2.00825498,5.16114741 1.95719522,5.28430279 1.95719522,5.41023108 C1.95719522,5.53788048 2.00691633,5.6579761 2.0972749,5.74833466 L3.43649402,7.08745817 L3.26744223,7.40079681 C2.93899602,8.00959363 2.67250996,8.65386454 2.47553785,9.31563347 L2.3738008,9.65737052 L0.478087649,9.65737052 C0.21447012,9.65737052 -1.0658141e-14,9.87184064 -1.0658141e-14,10.1354582 L-1.0658141e-14,14.3426295 C-1.0658141e-14,14.6061514 0.21447012,14.8207171 0.478087649,14.8207171 L2.37686056,14.8207171 L2.47888446,15.1617849 C2.6765259,15.8228845 2.94310757,16.4657211 3.27145817,17.0726056 L3.44089243,17.3861355 L2.09717928,18.729753 C2.00691633,18.8201116 1.95719522,18.9402072 1.95719522,19.0678566 C1.95719522,19.195506 2.00691633,19.3156016 2.09717928,19.4058645 L5.07212749,22.3807171 C5.25848606,22.5668845 5.56188048,22.5671713 5.74843028,22.3806215 L7.09195219,21.0370996 L7.40538645,21.2065339 C8.012749,21.5348845 8.65568127,21.8015618 9.31630279,21.999012 L9.65737052,22.1010359 L9.65737052,24 C9.65737052,24.2635219 9.87184064,24.4780876 10.1354582,24.4780876 L14.3426295,24.4780876 C14.606247,24.4780876 14.8207171,24.2635219 14.8207171,24 L14.8207171,22.1040956 L15.1623586,22.0024542 C15.8247012,21.8052908 16.4688765,21.5388048 17.0771952,21.2105498 L17.3905339,21.0414024 L18.7298486,22.3808127 C18.9159203,22.5669801 19.2192191,22.5672669 19.4058645,22.3808127 L22.3808127,19.4059602 C22.4698327,19.3170359 22.5207968,19.1937849 22.5207968,19.0679522 C22.5207968,18.9403028 22.4710757,18.8202072 22.3807171,18.729753 L21.0448446,17.3939761 L21.2146614,17.0803506 C21.5447331,16.4711713 21.8126534,15.8256574 22.0111554,15.1618805 L22.1131793,14.8208127 L24,14.8208127 C24.2636175,14.8208127 24.4780876,14.606247 24.4780876,14.3427251 L24.4780876,14.3427251 Z" id="Fill-9" stroke="#06092B" stroke-width="0.3" fill="#06092B"></path><path d="M39.3451315,11.618945 C37.7106454,11.618945 36.380988,10.289192 36.380988,8.65480159 C36.380988,7.02041116 37.7106454,5.69065817 39.3451315,5.69065817 C40.9796175,5.69065817 42.3092749,7.02041116 42.3092749,8.65480159 C42.3092749,10.289192 40.9796175,11.618945 39.3451315,11.618945 M39.3451315,4.73448287 C37.183506,4.73448287 35.4248127,6.4931761 35.4248127,8.65480159 C35.4248127,10.8164271 37.183506,12.5751203 39.3451315,12.5751203 C41.506757,12.5751203 43.2654502,10.8164271 43.2654502,8.65480159 C43.2654502,6.4931761 41.506757,4.73448287 39.3451315,4.73448287" id="Fill-12" stroke="#59C9A5" stroke-width="0.3" fill="#59C9A5"></path><path d="M41.1225466,14.6836972 C40.9205068,14.7431713 40.7793753,14.9318247 40.7793753,15.1423745 L40.7793753,16.3534661 L37.9108494,16.3534661 L37.9108494,15.1423745 C37.9108494,14.9318247 37.7698135,14.7431713 37.5676781,14.6836972 C36.6184829,14.4043028 35.735455,13.8938008 35.0141163,13.2073625 C34.8616064,13.0622151 34.6279171,13.0343904 34.4454789,13.1396653 L33.3951203,13.7462629 L31.9608574,11.2621195 L33.0097817,10.6563825 C33.1919331,10.5512032 33.2847777,10.3349163 33.2356303,10.1303904 C33.1189769,9.64541833 33.0597896,9.14887649 33.0597896,8.6547251 C33.0597896,8.16066932 33.1189769,7.66412749 33.2356303,7.17905976 C33.2847777,6.97453386 33.1919331,6.75824701 33.0097817,6.65316335 L31.9608574,6.04752191 L33.3951203,3.56318725 L34.4455745,4.16988048 C34.6277259,4.27515538 34.8616064,4.24723506 35.014212,4.10208765 C35.7355506,3.41574502 36.6185785,2.90514741 37.5676781,2.62584861 C37.7698135,2.56627888 37.9108494,2.37772112 37.9108494,2.16717131 L37.9108494,0.956175299 L40.7793753,0.956175299 L40.7793753,2.16726693 C40.7793753,2.37781673 40.9205068,2.5663745 41.122451,2.62584861 C42.0713594,2.90505179 42.9542916,3.41555378 43.6760127,4.10218327 C43.8286183,4.24752191 44.062212,4.27534661 44.2446502,4.1699761 L45.2953912,3.56337849 L46.7296542,6.04752191 L45.6803474,6.65325896 C45.498196,6.75843825 45.4053514,6.97462948 45.4545944,7.17915538 C45.5713434,7.66403187 45.6305307,8.16057371 45.6305307,8.65482072 C45.6305307,9.14897211 45.5713434,9.64551394 45.4545944,10.1304861 C45.4053514,10.3349163 45.498196,10.5512032 45.6803474,10.6563825 L46.7296542,11.2620239 L45.2953912,13.7462629 L44.2446502,13.1396653 C44.0624988,13.0346773 43.8286183,13.0623108 43.6759171,13.2074582 C42.9548653,13.8937052 42.0719331,14.4042072 41.1225466,14.6836972 L41.1225466,14.6836972 Z M44.0746422,14.1455618 L45.2313275,14.8133546 C45.341957,14.8772271 45.470945,14.8940558 45.5941004,14.8610677 C45.717447,14.8279841 45.8204271,14.749004 45.8842996,14.6383745 L47.7966502,11.3260876 C47.8605227,11.2154582 47.8775426,11.0866614 47.844459,10.963506 C47.8112797,10.8398725 47.7322996,10.7367968 47.6217657,10.6730199 L46.4665147,10.0060876 L46.5126024,9.68567331 C46.561941,9.34412749 46.5868016,8.99722709 46.5868016,8.65482072 C46.5868016,8.31250996 46.561941,7.96560956 46.5126024,7.62396813 L46.4665147,7.30355378 L47.6217657,6.63662151 C47.7306741,6.5738008 47.8118534,6.46814343 47.8443633,6.34661355 C47.8775426,6.2230757 47.8605227,6.09427888 47.7966502,5.9836494 L45.8842996,2.67126693 C45.7525386,2.44302789 45.4595665,2.36443028 45.2312319,2.49638247 L44.0746422,3.16407968 L43.8203952,2.96414343 C43.275949,2.53615936 42.6754709,2.18897211 42.0355984,1.93204781 L41.7355506,1.81166534 L41.7355506,0.478087649 C41.7355506,0.21447012 41.5210805,3.37507799e-14 41.2574629,3.37507799e-14 L37.4327618,3.37507799e-14 C37.1691442,3.37507799e-14 36.9546741,0.21447012 36.9546741,0.478087649 L36.9546741,1.8114741 L36.6547219,1.93195219 C36.0144669,2.18906773 35.4140845,2.53625498 34.8700207,2.96404781 L34.6156781,3.16398406 L33.4591841,2.49619124 C33.3482677,2.43231873 33.2195665,2.4152988 33.0966024,2.44838247 C32.9730645,2.48146614 32.8698932,2.56054183 32.8060207,2.67117131 L30.8936701,5.98355378 C30.7620048,6.21179283 30.8404112,6.50476494 31.0687458,6.63662151 L32.2238056,7.30345817 L32.1776223,7.62387251 C32.1284749,7.96513147 32.1035187,8.31193625 32.1035187,8.6547251 C32.1035187,8.99751394 32.1284749,9.34431873 32.1776223,9.68557769 L32.2238056,10.0058964 L31.0687458,10.6729243 C30.8405068,10.8047809 30.7620048,11.0978486 30.8936701,11.3260876 L32.8060207,14.6383745 C32.8690327,14.7473785 32.9747857,14.8285578 33.0964112,14.8610677 C33.2195665,14.894247 33.348459,14.8773227 33.4590884,14.8133546 L34.6154869,14.145753 L34.8698295,14.3455936 C35.4143713,14.7733865 36.0148494,15.1206693 36.6547219,15.3776892 L36.9546741,15.4981673 L36.9546741,16.8314582 C36.9546741,17.0950757 37.1691442,17.3095458 37.4327618,17.3095458 L41.2574629,17.3095458 C41.5210805,17.3095458 41.7355506,17.0950757 41.7355506,16.8314582 L41.7355506,15.4981673 L42.0355028,15.3776892 C42.6756622,15.1205737 43.2761402,14.7732908 43.8203952,14.345498 L44.0746422,14.1455618 Z" id="Fill-14" stroke="#59C9A5" stroke-width="0.3" fill="#59C9A5"></path></g></g></g></g></svg> 