<?xml version="1.0" encoding="UTF-8"?> <svg xmlns="http://www.w3.org/2000/svg" xmlns:xlink="http://www.w3.org/1999/xlink" width="53px" height="53px" viewBox="0 0 53 53" version="1.1"><!-- Generator: Sketch 63.1 (92452) - https://sketch.com --><title>Icon/Health Copy</title><desc>Created with Sketch.</desc><g id="UI" stroke="none" stroke-width="1" fill="none" fill-rule="evenodd"><g id="AI-Engine" transform="translate(-228.000000, -2325.000000)"><g id="Icon/Remote" transform="translate(222.000000, 2319.000000)"><g id="self-employed" transform="translate(6.400000, 6.400000)"><path d="M48.516129,28.9032258 L43.3548387,28.9032258 L43.3548387,27.8709677 C43.3502879,23.8821516 40.1178484,20.6497121 36.1290323,20.6451613 L7.22580645,20.6451613 C3.23699029,20.6497121 0.00455085004,23.8821516 7.33463469e-15,27.8709677 L7.33463469e-15,48.516129 C7.33463469e-15,50.2264302 1.38647303,51.6129032 3.09677419,51.6129032 L48.516129,51.6129032 C50.2264302,51.6129032 51.6129032,50.2264302 51.6129032,48.516129 L51.6129032,32 C51.6129032,30.2896988 50.2264302,28.9032258 48.516129,28.9032258 Z M24.5976774,22.7096774 C24.1607166,23.9478476 22.9904312,24.7758677 21.6774194,24.7758677 C20.3644075,24.7758677 19.1941221,23.9478476 18.7571613,22.7096774 L24.5976774,22.7096774 Z M2.06451613,48.516129 L2.06451613,27.8709677 C2.06792889,25.0218806 4.37671933,22.7130902 7.22580645,22.7096774 L16.6193548,22.7096774 C17.1078116,25.1151731 19.2228319,26.8438839 21.6774194,26.8438839 C24.1320068,26.8438839 26.2470271,25.1151731 26.7354839,22.7096774 L36.1290323,22.7096774 C38.9781194,22.7130902 41.2869098,25.0218806 41.2903226,27.8709677 L41.2903226,28.9032258 L19.6129032,28.9032258 C17.9026021,28.9032258 16.516129,30.2896988 16.516129,32 L16.516129,41.2903226 L10.3225806,41.2903226 L10.3225806,29.9354839 C10.3225806,29.3653835 9.86042297,28.9032258 9.29032258,28.9032258 C8.72022219,28.9032258 8.25806452,29.3653835 8.25806452,29.9354839 L8.25806452,41.2903226 L5.16129032,41.2903226 C4.59118994,41.2903226 4.12903226,41.7524803 4.12903226,42.3225806 C4.12903226,42.892681 4.59118994,43.3548387 5.16129032,43.3548387 L16.516129,43.3548387 L16.516129,48.516129 C16.5195504,48.8685829 16.5838062,49.2177992 16.7060645,49.5483871 L3.09677419,49.5483871 C2.52667381,49.5483871 2.06451613,49.0862294 2.06451613,48.516129 L2.06451613,48.516129 Z M49.5483871,48.516129 C49.5483871,49.0862294 49.0862294,49.5483871 48.516129,49.5483871 L19.6129032,49.5483871 C19.0428028,49.5483871 18.5806452,49.0862294 18.5806452,48.516129 L18.5806452,32 C18.5806452,31.4298996 19.0428028,30.9677419 19.6129032,30.9677419 L48.516129,30.9677419 C49.0862294,30.9677419 49.5483871,31.4298996 49.5483871,32 L49.5483871,48.516129 Z" id="Shape" fill="#06092B" fill-rule="nonzero"></path><path d="M21.6774194,18.5806452 C26.8083228,18.5806452 30.9677419,14.4212261 30.9677419,9.29032258 C30.9677419,4.1594191 26.8083228,0 21.6774194,0 C16.5465159,0 12.3870968,4.1594191 12.3870968,9.29032258 C12.3927857,14.4188678 16.5488741,18.5749563 21.6774194,18.5806452 Z M21.6774194,2.06451613 C24.8686915,2.07164465 27.6785103,4.16852433 28.5935484,7.22580645 L24.7741935,7.22580645 C23.6339928,7.22580645 22.7096774,6.3014911 22.7096774,5.16129032 C22.7096774,4.59118994 22.2475197,4.12903226 21.6774194,4.12903226 C21.107319,4.12903226 20.6451613,4.59118994 20.6451613,5.16129032 C20.6451613,6.3014911 19.7208459,7.22580645 18.5806452,7.22580645 L14.7612903,7.22580645 C15.6763284,4.16852433 18.4861472,2.07164465 21.6774194,2.06451613 L21.6774194,2.06451613 Z M18.5806452,9.29032258 C19.7664166,9.2909462 20.8949291,8.7804824 21.6774194,7.88954839 C22.4599096,8.7804824 23.5884221,9.2909462 24.7741935,9.29032258 L28.9032258,9.29032258 C28.9032258,13.2810252 25.668122,16.5161289 21.6774194,16.5161289 C17.6867167,16.5161289 14.4516129,13.2810252 14.4516129,9.29032258 L18.5806452,9.29032258 Z" id="Shape" fill="#06092B" fill-rule="nonzero"></path><path d="M35.7708387,37.4957419 L36.987871,35.6696774 C37.3042767,35.1953539 37.176259,34.5543412 36.7019355,34.2379355 C36.227612,33.9215298 35.5865993,34.0495474 35.2701935,34.523871 L34.0645161,36.3354839 L32.8588387,34.5269677 C32.542433,34.0526442 31.9014203,33.9246265 31.4270968,34.2410323 C30.9527733,34.557438 30.8247556,35.1984507 31.1411613,35.6727742 L32.3581935,37.4988387 C30.2835746,38.3181973 29.0842307,40.496502 29.5012635,42.687729 C29.9182964,44.8789561 31.8339574,46.4644151 34.0645161,46.4644151 C36.2950749,46.4644151 38.2107358,44.8789561 38.6277687,42.687729 C39.0448016,40.496502 37.8454577,38.3181973 35.7708387,37.4988387 L35.7708387,37.4957419 Z M34.0645161,44.3870968 C32.6392652,44.3870968 31.483871,43.2317026 31.483871,41.8064516 C31.483871,40.3812006 32.6392652,39.2258065 34.0645161,39.2258065 C35.4897671,39.2258065 36.6451613,40.3812006 36.6451613,41.8064516 C36.6451613,43.2317026 35.4897671,44.3870968 34.0645161,44.3870968 Z" id="Shape" fill="#59C9A5" fill-rule="nonzero"></path></g></g></g></g></svg> 